<?xml version="1.0" standalone="no"?>
<!DOCTYPE svg PUBLIC "-//W3C//DTD SVG 1.1//EN" "http://www.w3.org/Graphics/SVG/1.1/DTD/svg11.dtd" >
<svg>
<metadata>
Created by FontForge 20090914 at Mon Dec 14 13:30:32 2020
 By www-data
Copyright &#194;&#169; 2020 Vasily Draigo. All Rights Reserved.
</metadata>
<defs>
<font id="NaturalMonoAlt-Regular" horiz-adv-x="1229" >
  <font-face 
    font-family="Natural Mono Alt"
    font-weight="400"
    font-stretch="normal"
    units-per-em="2048"
    panose-1="2 11 6 9 3 8 4 2 2 4"
    ascent="1638"
    descent="-410"
    x-height="1098"
    cap-height="1462"
    bbox="-312.001 -555.001 1315 2163"
    underline-thickness="102"
    underline-position="-103"
    unicode-range="U+000D-U+FFFD"
  />
<missing-glyph 
d="M193 1462h841v-1462h-841v1462zM297 104h633v1254h-633v-1254z" />
    <glyph glyph-name=".notdef" 
d="M193 1462h841v-1462h-841v1462zM297 104h633v1254h-633v-1254z" />
    <glyph glyph-name="uni0000" horiz-adv-x="0" 
 />
    <glyph glyph-name="uni0000" horiz-adv-x="0" 
 />
    <glyph glyph-name="uni000D" unicode="&#xd;" 
 />
    <glyph glyph-name="space" unicode=" " 
 />
    <glyph glyph-name="exclam" unicode="!" 
d="M504 1462h223l-51 -1048h-121zM614 250c84.667 0 127 -46.333 127 -139c0 -93.333 -42.333 -140 -127 -140s-127 46.667 -127 140c0 92.667 42.333 139 127 139z" />
    <glyph glyph-name="quotedbl" unicode="&#x22;" 
d="M707 1462h237l-41 -528h-155zM522 1462l-41 -528h-155l-41 528h237z" />
    <glyph glyph-name="numbersign" unicode="#" 
d="M45 565h244l65 328h-233v137h258l82 432h147l-82 -432h293l84 432h144l-84 -432h221v-137h-248l-64 -328h240v-137h-266l-82 -428h-148l84 428h-290l-82 -428h-144l78 428h-217v137zM436 565h291l64 328h-291z" />
    <glyph glyph-name="dollar" unicode="$" 
d="M547 252l0.00195312 433.997c-127.333 42.667 -217.333 91.334 -270 146.001c-52 54 -78 127 -78 219c0 44 7.83301 84.167 23.5 120.5s38.5 68.5 68.5 96.5s66.5 51 109.5 69s91.833 30.333 146.5 37v180h137v-176c125.333 -6 237.333 -32 336 -78l-66 -145
c-92.667 41.333 -182.667 65.333 -270 72v-422c45.333 -15.333 89.666 -32.333 132.999 -51s81.833 -41.667 115.5 -69s60.667 -60.166 81 -98.499s30.5 -85.166 30.5 -140.499c0 -186 -120 -297.667 -360 -335v-230h-137v221c-152.667 0 -274.334 23.333 -365.001 70v172
c134 -61.333 255.667 -92 365 -92zM684.002 261.997c122.667 18.667 184 80 184 184c0 85.333 -61.333 148.333 -184 189v-373zM547.002 853.997v368.999c-114.667 -18.667 -172 -76.667 -172 -174c0 -51.333 13.667 -91.666 41 -120.999s71 -54 131 -74z" />
    <glyph glyph-name="percent" unicode="%" 
d="M0 1133c0 54.667 6.83594 103.501 20.5029 146.501s33.167 79.167 58.5 108.5s56.166 51.833 92.499 67.5s77.5 23.5 123.5 23.5c86 0 156 -31 210 -93s81 -146.333 81 -253c0 -54 -6.66699 -102.5 -20 -145.5s-32.833 -79.667 -58.5 -110s-56.667 -53.5 -93 -69.5
s-77.5 -24 -123.5 -24c-50 0 -93.333 9.66699 -130 29s-66.834 45.166 -90.501 77.499s-41.334 69.5 -53.001 111.5s-17.5 85.667 -17.5 131zM938.003 676.001c86 0 156.001 -31 210.001 -93s81 -146.333 81 -253c0 -54 -6.66699 -102.5 -20 -145.5
s-32.833 -79.5 -58.5 -109.5s-56.667 -53 -93 -69s-77.5 -24 -123.5 -24c-44 0 -83 7.83301 -117 23.5s-65 39.5 -93 71.5c-54 62 -81 146.333 -81 253c0 54.667 6.83301 103.5 20.5 146.5s33.167 79.167 58.5 108.5s56.166 51.833 92.499 67.5s77.5 23.5 123.5 23.5z
M170.004 0.000976562l729 1462h158l-729 -1462h-158zM795.004 330.001c0 -153.333 47 -230 141 -230c92.667 0 139 76.667 139 230c0 150 -46.333 225 -139 225c-94 0 -141 -75 -141 -225zM293.004 903.001c92.667 0 139 76.667 139 230c0 150 -46.333 225 -139 225
c-94 0 -141 -75 -141 -225c0 -153.333 47 -230 141 -230z" />
    <glyph glyph-name="ampersand" unicode="&#x26;" 
d="M61 381c0 54 7.50098 101.834 22.501 143.501s35.667 79.167 62 112.5s57.833 63.833 94.5 91.5s76.667 54.5 120 80.5c-108.667 126.667 -163 245.334 -163 356.001c0 49.333 8 93.666 24 132.999s39.667 72.833 71 100.5s70 49 116 64s99 22.5 159 22.5
c56 0 105.833 -7.33301 149.5 -22s80.667 -35.834 111 -63.501s53.333 -61.167 69 -100.5s23.5 -84 23.5 -134c0 -135.333 -106 -265 -318 -389l281 -348c23.333 40.667 43.666 83 60.999 127s31.666 90.333 42.999 139h184c-35.333 -156 -94.666 -290.333 -177.999 -403
l234 -291h-217l-131 166c-116 -124 -253.333 -186 -412 -186c-62.667 0 -119 9.16699 -169 27.5s-92.5 44.666 -127.5 78.999s-62 76.333 -81 126s-28.5 105.834 -28.5 168.501zM252.001 387.001c0 -32 5.5 -62.8311 16.5 -92.498s26.5 -55.834 46.5 -78.501
s43.833 -40.834 71.5 -54.501s58.5 -20.5 92.5 -20.5c106 0 205.667 48.667 299 146l-323 401c-135.333 -82 -203 -182.333 -203 -301zM375.001 1165c0 -80 44.333 -169.333 133 -268c44.667 26.667 82.334 51.5 113.001 74.5s54.334 44.5 71.001 64.5
c32.667 38.667 49 83 49 133c0 24.667 -4.33301 47.167 -13 67.5s-20.834 37.833 -36.501 52.5s-34.5 26 -56.5 34s-46.667 12 -74 12c-58.667 0 -104.334 -14.833 -137.001 -44.5s-49 -71.5 -49 -125.5z" />
    <glyph glyph-name="quotesingle" unicode="'" 
d="M733 1462l-41 -528h-155l-41 528h237z" />
    <glyph glyph-name="parenleft" unicode="(" 
d="M739 1462h193c-299.333 -251.333 -449 -549 -449 -893c0 -347.333 149 -645 447 -893h-191c-296 235.333 -444 532.333 -444 891c0 354.667 148 653 444 895z" />
    <glyph glyph-name="parenright" unicode=")" 
d="M297 1462h192c296.667 -240.667 445 -539 445 -895c0 -360 -148.333 -657 -445 -891h-190c297.333 247.333 446 545 446 893c0 345.333 -149.333 643 -448 893z" />
    <glyph glyph-name="asterisk" unicode="*" 
d="M715 1556l-43 -393l397 111l27 -193l-379 -28l246 -326l-179 -96l-176 358l-157 -358l-185 96l242 326l-375 28l29 193l391 -111l-43 393h205z" />
    <glyph glyph-name="plus" unicode="+" 
d="M539 797v389h149v-389h387v-150h-387v-385h-149v385h-387v150h387z" />
    <glyph glyph-name="comma" unicode="," 
d="M440 -289c50.667 215.333 87.667 399 111 551h219l16 -24c-38 -146 -102.667 -321.667 -194 -527h-152z" />
    <glyph glyph-name="hyphen" unicode="-" 
d="M285 465v168h659v-168h-659z" />
    <glyph glyph-name="period" unicode="." 
d="M463 135c0 110.667 50.333 166 151 166c101.333 0 152 -55.333 152 -166s-50.667 -166 -152 -166c-100.667 0 -151 55.333 -151 166z" />
    <glyph glyph-name="slash" unicode="/" 
d="M1016 1462l-627 -1462h-178l627 1462h178z" />
    <glyph glyph-name="zero" unicode="0" 
d="M147 733c0 501.333 155.002 751.999 465.002 751.999c77.333 0 145.166 -16.333 203.499 -49s107.166 -80.834 146.499 -144.501s69 -142.167 89 -235.5s30 -201 30 -323c0 -502 -156.333 -753 -469 -753c-76 0 -143 16.333 -201 49s-106.5 80.834 -145.5 144.501
s-68.5 142.334 -88.5 236.001s-30 201.5 -30 323.5zM400.002 274.999c45.333 -93.333 115.999 -140 211.999 -140c98 0 170 47 216 141c46 92.667 69 245 69 457c0 105.333 -5.66699 195.5 -17 270.5s-28.666 136.667 -51.999 185s-52.833 83.833 -88.5 106.5
s-78.167 34 -127.5 34c-97.333 0 -168 -46.333 -212 -139c-45.333 -96 -68 -248.333 -68 -457c0 -212 22.667 -364.667 68 -458zM503.001 730.999c0 18.667 0.5 40.667 1.5 66s2.83301 51.5 5.5 78.5s6.5 53.667 11.5 80s11.667 50 20 71s18.5 38 30.5 51
s26.333 19.5 43 19.5s31 -6.5 43 -19.5s22.167 -30 30.5 -51s15 -44.667 20 -71s8.83301 -53 11.5 -80s4.33398 -53.167 5.00098 -78.5s1 -47.333 1 -66s-0.333008 -40.667 -1 -66s-2.33398 -51.5 -5.00098 -78.5s-6.5 -53.667 -11.5 -80s-11.667 -50 -20 -71
s-18.5 -38 -30.5 -51s-26.333 -19.5 -43 -19.5s-31 6.5 -43 19.5s-22.167 30 -30.5 51s-15 44.667 -20 71s-8.83301 53 -11.5 80s-4.5 53.167 -5.5 78.5s-1.5 47.333 -1.5 66z" />
    <glyph glyph-name="one" unicode="1" 
d="M608 1462l150 -0.000976562v-1462h-176v913c0 40.667 0.666992 90.834 2 150.501s3.33301 129.834 6 210.501c-13.333 -14.667 -29.833 -31.334 -49.5 -50.001s-43.5 -39.667 -71.5 -63l-147 -121l-97 123z" />
    <glyph glyph-name="two" unicode="2" 
d="M158 0l-0.000976562 155.999l350 381c66 72 120 134 162 186s73.667 96 95 132c41.333 69.333 62 146 62 230c0 38 -5.5 72 -16.5 102s-26.667 55.5 -47 76.5s-45 37.167 -74 48.5s-61.5 17 -97.5 17c-106.667 0 -212.667 -45.667 -318 -137l-102 119
c126.667 114.667 267.334 172 422.001 172c61.333 0 117.5 -8.5 168.5 -25.5s95 -42 132 -75s65.833 -73.833 86.5 -122.5s31 -104.667 31 -168c0 -79.333 -19.667 -160.666 -59 -243.999c-38.667 -82.667 -135.667 -207.667 -291 -375l-281 -299v-8h688v-166h-911z" />
    <glyph glyph-name="three" unicode="3" 
d="M131 59v170.003c123.333 -64 251 -96 383 -96c236 0 354 96.333 354 289c0 172 -127 258 -381 258h-133v151h133c53.333 0 100.833 6.66699 142.5 20s76.834 32 105.501 56s50.5 53 65.5 87s22.5 72 22.5 114c0 34 -5.83301 64.667 -17.5 92s-28.5 50.5 -50.5 69.5
s-48.333 33.667 -79 44s-65 15.5 -103 15.5c-118.667 0 -233.334 -40.333 -344.001 -121l-92 125c125.333 100 270.666 150 435.999 150c58 0 113.333 -6.83301 166 -20.5s99 -35.334 139 -65.001s72 -67.334 96 -113.001s36 -100.5 36 -164.5c0 -46 -7 -88.5 -21 -127.5
s-34.333 -73.5 -61 -103.5s-59.667 -55.167 -99 -75.5s-84.333 -34.833 -135 -43.5v-6c240.667 -30.667 361 -146.667 361 -348c0 -68 -11.667 -128.833 -35 -182.5s-57.666 -99.334 -102.999 -137.001s-101.333 -66.5 -168 -86.5s-143.667 -30 -231 -30
c-161.333 0 -290.333 26.333 -387 79z" />
    <glyph glyph-name="four" unicode="4" 
d="M61 487l664 983h188v-976h213v-166h-213v-328h-176v328h-676v159zM737 494l-0.000976562 356c0 58.667 1 123.5 3 194.5s5.33301 150.167 10 237.5h-9c-12 -34 -25.667 -66 -41 -96s-31.666 -58 -48.999 -84l-411 -608h497z" />
    <glyph glyph-name="five" unicode="5" 
d="M172 231c96 -64 216.001 -95.998 360.001 -95.998c224 0 336 104.667 336 314c0 196 -114.667 294 -344 294c-53.333 0 -130.333 -8.66699 -231 -26l-90 57l55 688h690v-166h-532l-39 -419c36.667 6.66699 72.167 11.667 106.5 15s68.5 5 102.5 5
c67.333 0 129.5 -9.16699 186.5 -27.5s106.5 -45.5 148.5 -81.5s74.833 -80.667 98.5 -134s35.5 -115 35.5 -185c0 -78 -11.667 -147.333 -35 -208s-57.5 -111.834 -102.5 -153.501s-100.167 -73.334 -165.5 -95.001s-140 -32.5 -224 -32.5
c-150.667 0 -269.334 26.333 -356.001 79v172z" />
    <glyph glyph-name="six" unicode="6" 
d="M793 1483c72.667 0 130.002 -6.33398 172.002 -19.001v-155c-46.667 16 -102 24 -166 24c-74.667 0 -140 -11.5 -196 -34.5s-103 -58.5 -141 -106.5s-67 -109 -87 -183s-31.667 -162 -35 -264h12c63.333 113.333 165.666 170 306.999 170c68 0 128 -10.833 180 -32.5
s95.5 -52 130.5 -91s61.333 -85.667 79 -140s26.5 -114.5 26.5 -180.5c0 -70 -9.33301 -134.833 -28 -194.5s-46.5 -111.5 -83.5 -155.5s-83.167 -78.5 -138.5 -103.5s-120 -37.5 -194 -37.5c-144.667 0 -260.334 56.333 -347.001 169s-130 271.334 -130 476.001
c0 572 213 858 639 858zM629.002 132.999c86.667 0 153.334 28.833 200.001 86.5s70 141.5 70 251.5c0 98.667 -22.333 173.5 -67 224.5s-110.334 76.5 -197.001 76.5c-84.667 0 -155.667 -27 -213 -81s-86 -115.667 -86 -185c0 -43.333 6 -87.166 18 -131.499
s30.167 -84.333 54.5 -120s54.833 -64.834 91.5 -87.501s79.667 -34 129 -34z" />
    <glyph glyph-name="seven" unicode="7" 
d="M334 0l563 1296h-754v166h940v-145l-555 -1317h-194z" />
    <glyph glyph-name="eight" unicode="8" 
d="M438 766c-156.667 96.667 -234.999 219.664 -234.999 368.997c0 58.667 11.333 109.834 34 153.501s53 80 91 109s81.667 50.833 131 65.5s101 22 155 22c54.667 0 106.834 -7.16699 156.501 -21.5s93.5 -36 131.5 -65s68.167 -65.5 90.5 -109.5s33.5 -96 33.5 -156
c0 -153.333 -87.333 -273 -262 -359c206 -106.667 309 -237.667 309 -393c0 -66.667 -12.333 -125 -37 -175s-57.834 -91.667 -99.501 -125s-90.334 -58.5 -146.001 -75.5s-114.5 -25.5 -176.5 -25.5c-72 0 -136.333 8.83301 -193 26.5s-104.667 43.334 -144 77.001
s-69.333 74.834 -90 123.501s-31 104 -31 166c0 171.333 94 302.333 282 393zM610.001 130.997c92.667 0 163.333 21.667 212 65s73 104.333 73 183c0 30.667 -4.83301 59.167 -14.5 85.5s-25.5 51.666 -47.5 75.999s-50.5 48 -85.5 71s-78.167 46.5 -129.5 70.5l-30 14
c-169.333 -81.333 -254 -189.666 -254 -324.999c0 -160 92 -240 276 -240zM381 1126c0 -38 6.33398 -71.168 19.001 -99.501s29.834 -53.166 51.501 -74.499s46.667 -40.333 75 -57s58.166 -32.334 89.499 -47.001c154.667 68.667 232 161.334 232 278.001
c0 68.667 -20.667 120.334 -62 155.001s-99.333 52 -174 52c-70.667 0 -126.834 -17.333 -168.501 -52s-62.5 -86.334 -62.5 -155.001z" />
    <glyph glyph-name="nine" unicode="9" 
d="M154 991c0 69.333 9.33203 134 27.999 194s46.5 112 83.5 156s83.333 78.667 139 104s120.167 38 193.5 38c146.667 0 263 -57 349 -171c85.333 -113.333 128 -271.333 128 -474c0 -572 -213 -858 -639 -858c-69.333 0 -126.666 6 -171.999 18v156
c42 -16.667 97.333 -25 166 -25c75.333 0 140.833 11.5 196.5 34.5s102.5 58.5 140.5 106.5s67 109 87 183s31.667 162 35 264h-12c-64 -113.333 -166.667 -170 -308 -170c-68 0 -127.833 10.833 -179.5 32.5s-95 52 -130 91s-61.333 85.833 -79 140.5
s-26.5 114.667 -26.5 180zM593.999 690c83.333 0 154.331 27.334 212.998 82.001c57.333 53.333 86 114.666 86 183.999c0 44 -6 88.167 -18 132.5s-30.167 84.333 -54.5 120s-54.833 64.667 -91.5 87s-79.667 33.5 -129 33.5c-87.333 0 -154.166 -28.5 -200.499 -85.5
s-69.5 -141.167 -69.5 -252.5c0 -98.667 22.333 -173.5 67 -224.5s110.334 -76.5 197.001 -76.5z" />
    <glyph glyph-name="colon" unicode=":" 
d="M487 111c0 92.667 42.333 139 127 139s127 -46.333 127 -139c0 -93.333 -42.333 -140 -127 -140s-127 46.667 -127 140zM487 987c0 92.667 42.333 139 127 139s127 -46.333 127 -139s-42.333 -139 -127 -139s-127 46.333 -127 139z" />
    <glyph glyph-name="semicolon" unicode=";" 
d="M410 -264c20.667 86.667 39.332 170.832 55.999 252.499s31.334 164.834 44.001 249.501h199l14 -23c-17.333 -64.667 -40.5 -136.667 -69.5 -216s-64.5 -167 -106.5 -263h-137zM493.998 986.998c0 92.667 42.333 139 127 139s127 -46.333 127 -139
s-42.333 -139 -127 -139s-127 46.333 -127 139z" />
    <glyph glyph-name="less" unicode="&#x3c;" 
d="M1075 1225v-160l-715 -342l715 -342v-160l-923 451v102z" />
    <glyph glyph-name="equal" unicode="=" 
d="M1075 592v-150h-923v150h923zM152 852v149h923v-149h-923z" />
    <glyph glyph-name="greater" unicode="&#x3e;" 
d="M1075 774v-102l-923 -451v160l714 342l-714 342v160z" />
    <glyph glyph-name="question" unicode="?" 
d="M168 1386c136 64.667 277.996 97.0029 425.996 97.0029c72.667 0 136.834 -7.66699 192.501 -23s104.834 -40 147.501 -74c83.333 -65.333 125 -152.666 125 -261.999c0 -88.667 -17.667 -160.667 -53 -216c-36 -56 -101.667 -119.667 -197 -191
c-78.667 -56.667 -129 -103.667 -151 -141c-22 -36 -33 -84 -33 -144v-18h-160v37c0 43.333 4.33301 81.5 13 114.5s21.834 63.167 39.501 90.5s39.334 52.666 65.001 75.999s55.5 47 89.5 71c44 33.333 80.333 62.666 109 87.999s49.667 47.666 63 66.999
c27.333 39.333 41 92 41 158c0 30.667 -6.33301 58.667 -19 84s-31.167 47.166 -55.5 65.499s-53.833 32.5 -88.5 42.5s-74 15 -118 15c-116 0 -239.667 -30 -371 -90zM425.996 111.003c0 92.667 42.333 139 127 139s127 -46.333 127 -139c0 -93.333 -42.333 -140 -127 -140
s-127 46.667 -127 140z" />
    <glyph glyph-name="at" unicode="@" 
d="M31 602c0 264.667 55.665 474.336 166.998 629.003c111.333 154 263 231 455 231c166 0 298.333 -65.333 397 -196s148 -309 148 -535c0 -154 -21.333 -277.333 -64 -370c-43.333 -93.333 -102.666 -140 -177.999 -140c-85.333 0 -137.666 60 -156.999 180h-4
c-48.667 -120 -125.334 -180 -230.001 -180c-33.333 0 -63 5.66699 -89 17s-48.667 26.666 -68 45.999s-35.5 42 -48.5 68s-23.5 53.167 -31.5 81.5s-13.833 57.333 -17.5 87s-5.5 58.167 -5.5 85.5c0 137.333 32.333 248.333 97 333c64 84 149 126 255 126
c88.667 0 174 -15.667 256 -47l-22 -416c-0.666992 -12.667 -1.16699 -24.667 -1.5 -36s-0.5 -22.333 -0.5 -33v-7c0 -117.333 24 -176 72 -176c66.667 0 100 127.667 100 383c0 186 -37 331.333 -111 436c-74 105.333 -173.667 158 -299 158c-150.667 0 -268 -64 -352 -192
c-84.667 -128.667 -127 -304.334 -127 -527.001c0 -104 11 -196.5 33 -277.5s54.167 -149.333 96.5 -205s94.333 -98 156 -127s132.5 -43.5 212.5 -43.5c120.667 0 236 26 346 78v-133c-104.667 -54.667 -222 -82 -352 -82c-76.667 0 -145.5 9.83301 -206.5 29.5
s-115 47.167 -162 82.5s-87.167 77.333 -120.5 126s-60.666 102.167 -81.999 160.5s-37 120.166 -47 185.499s-15 132 -15 200zM464.998 602.002c0 -168 42.334 -251.999 127.001 -251.999c88 0 136.333 104 145 312l15 253c-36 14 -70.333 21 -103 21
c-26 0 -48.5 -5.5 -67.5 -16.5s-35.333 -25.667 -49 -44s-24.834 -39.333 -33.501 -63s-15.5 -47.834 -20.5 -72.501s-8.5 -49 -10.5 -73s-3 -45.667 -3 -65z" />
    <glyph glyph-name="A" unicode="A" 
d="M516 1468h195l485 -1468h-192l-144 453h-491l-146 -453h-190zM422 618h385l-133 424c-13.333 42 -25.166 81.667 -35.499 119s-19.166 73 -26.499 107c-6.66699 -34 -13.834 -66 -21.501 -96s-15.834 -59 -24.501 -87z" />
    <glyph glyph-name="B" unicode="B" 
d="M135 0v1462h440c91.333 0 169.833 -7 235.5 -21s119.667 -36 162 -66s73.5 -68.333 93.5 -115s30 -102.667 30 -168c0 -42.667 -6.83301 -82 -20.5 -118s-33 -67.667 -58 -95s-55.5 -49.833 -91.5 -67.5s-76.333 -29.5 -121 -35.5v-10c221.333 -36 332 -150 332 -342
c0 -71.333 -12 -133.666 -36 -186.999s-57.333 -97.5 -100 -132.5s-93 -61.167 -151 -78.5s-120.667 -26 -188 -26h-527zM629 157.999c207.333 0 311 91.333 311 274c0 169.333 -108 254 -324 254h-294v-528h307zM606 841.999c104 0 179.833 18.5 227.5 55.5
s71.5 97.5 71.5 181.5c0 80 -25.5 137.333 -76.5 172s-131.833 52 -242.5 52h-264v-461h284z" />
    <glyph glyph-name="C" unicode="C" 
d="M797 1483c146 0 273.668 -28.668 383.001 -86.001l-78 -156c-102.667 52 -204.334 78 -305.001 78c-84 0 -155.833 -16.667 -215.5 -50s-108.334 -77.5 -146.001 -132.5s-65.334 -117.667 -83.001 -188s-26.5 -142.833 -26.5 -217.5
c0 -195.333 39.333 -342.166 118 -440.499s196.334 -147.5 353.001 -147.5c90 0 199 19.333 327 58v-162c-100 -39.333 -219.333 -59 -358 -59c-76.667 0 -145.667 8.83301 -207 26.5s-115.666 42.667 -162.999 75s-87.833 71.333 -121.5 117
s-61.334 96.334 -83.001 152.001s-37.5 115.834 -47.5 180.501s-15 132 -15 202c0 105.333 13.667 203.666 41 294.999s68.833 170.666 124.5 237.999s125.334 120.333 209.001 159s181.5 58 293.5 58z" />
    <glyph glyph-name="D" unicode="D" 
d="M135 0l-0.000976562 1462h342c111.333 0 208.833 -17.167 292.5 -51.5s153.5 -83 209.5 -146s98 -138.5 126 -226.5s42 -185.667 42 -293c0 -120 -15.5 -226.333 -46.5 -319s-76.5 -170.5 -136.5 -233.5s-134.167 -110.833 -222.5 -143.5s-190.166 -49 -305.499 -49h-301
zM417.999 160c354.667 0 532 193 532 579c0 376 -164.333 564 -493 564h-135v-1143h96z" />
    <glyph glyph-name="E" unicode="E" 
d="M1059 1462v-164h-656v-452h617v-162h-617v-520h656v-164h-842v1462h842z" />
    <glyph glyph-name="F" unicode="F" 
d="M244 0v1462h841v-164h-655v-516h617v-164h-617v-618h-186z" />
    <glyph glyph-name="G" unicode="G" 
d="M117 733c0 235.333 54 419.001 162 551.001c108.667 132.667 257.334 199 446.001 199c127.333 0 242.666 -28.667 345.999 -86l-72 -162c-96.667 56 -190 84 -280 84c-53.333 0 -100.5 -8.33301 -141.5 -25s-76.5 -39.5 -106.5 -68.5s-55.167 -62.833 -75.5 -101.5
s-36.5 -79.834 -48.5 -123.501s-20.667 -88.5 -26 -134.5s-8 -91 -8 -135c0 -392 131.333 -588 394 -588c61.333 0 128.666 9.66699 201.999 29v436h-237v164h422v-717c-130 -50 -270 -75 -420 -75c-173.333 0 -309.666 66.667 -408.999 200
c-98.667 132.667 -148 317 -148 553z" />
    <glyph glyph-name="H" unicode="H" 
d="M135 1462h187v-616h585v616h187v-1462h-187v682h-585v-682h-187v1462z" />
    <glyph glyph-name="I" unicode="I" 
d="M225 1462h776v-143h-294v-1176h294v-143h-776v143h295v1176h-295v143z" />
    <glyph glyph-name="J" unicode="J" 
d="M137 39l-0.00292969 166.001c110.667 -41.333 213.667 -62 309 -62c54 0 102.333 6.83301 145 20.5s79 33.5 109 59.5s53 58 69 96s24 81.333 24 130v1013h186v-1011c0 -77.333 -13.167 -145.333 -39.5 -204s-62.666 -107.834 -108.999 -147.501
s-101.166 -69.5 -164.499 -89.5s-131.666 -30 -204.999 -30c-144.667 0 -252.667 19.667 -324 59z" />
    <glyph glyph-name="K" unicode="K" 
d="M397 1462v-731l121 168l453 563h209l-521 -637l539 -825h-211l-450 698l-140 -114v-584h-186v1462h186z" />
    <glyph glyph-name="L" unicode="L" 
d="M233 0v1462h187v-1296h635v-166h-822z" />
    <glyph glyph-name="M" unicode="M" 
d="M360 1462l248 -1192h6l250 1192h252v-1462h-153v887c0 34 1.16699 83 3.5 147s5.83301 145.333 10.5 244h-8l-283 -1278h-154l-278 1280h-8c12 -176.667 18 -312 18 -406v-874h-151v1462h247z" />
    <glyph glyph-name="N" unicode="N" 
d="M135 1462h213l578 -1204h6c-4.66699 102.667 -8.16699 187.167 -10.5 253.5s-3.5 116.5 -3.5 150.5v800h174v-1462h-215l-580 1210h-8c12 -184.667 18 -323.667 18 -417v-793h-172v1462z" />
    <glyph glyph-name="O" unicode="O" 
d="M84 735c0 500 177.999 750.001 533.999 750.001c85.333 0 160.833 -16.667 226.5 -50s121 -82 166 -146s79 -142.667 102 -236s34.5 -200 34.5 -320c0 -58.667 -3.33301 -118 -10 -178s-18 -117.833 -34 -173.5s-37.167 -107.834 -63.5 -156.501
s-59.166 -91.167 -98.499 -127.5s-85.833 -65 -139.5 -86s-115.5 -31.5 -185.5 -31.5c-354.667 0 -532 251.667 -532 755zM615.999 143.001c115.333 0 199.833 48.333 253.5 145s80.5 245 80.5 445c0 202 -27.167 350.5 -81.5 445.5s-137.833 142.5 -250.5 142.5
c-224.667 0 -337 -196 -337 -588c0 -393.333 111.667 -590 335 -590z" />
    <glyph glyph-name="P" unicode="P" 
d="M176 1462l404 0.000976562c342.667 0 514 -142.667 514 -428c0 -72.667 -11.667 -137.834 -35 -195.501s-57.833 -106.5 -103.5 -146.5s-102.167 -70.5 -169.5 -91.5s-145 -31.5 -233 -31.5h-191v-569h-186v1462zM532 727.001c66 0 122.331 5.83203 168.998 17.499
s84.834 29.834 114.501 54.501s51.334 55.667 65.001 93s20.5 81.333 20.5 132c0 186 -112.667 279 -338 279h-201v-576h170z" />
    <glyph glyph-name="Q" unicode="Q" 
d="M84 735c0 500 178 750.001 534 750.001c85.333 0 160.833 -16.667 226.5 -50s121 -82 166 -146s79 -142.667 102 -236s34.5 -200 34.5 -320c0 -350.667 -95 -582 -285 -694c57.333 -120.667 150.333 -224.334 279 -311.001l-121 -142c-158 114.667 -267.333 248 -328 400
c-24 -4 -49.333 -6 -76 -6c-354.667 0 -532 251.667 -532 755zM281 733.001c0 -393.333 111.667 -590 335 -590c115.333 0 199.833 48.333 253.5 145s80.5 245 80.5 445c0 202 -27.167 350.5 -81.5 445.5s-137.833 142.5 -250.5 142.5c-224.667 0 -337 -196 -337 -588z" />
    <glyph glyph-name="R" unicode="R" 
d="M186 0v1462h357c346.667 0 520 -138.333 520 -415c0 -191.333 -96.333 -322 -289 -392l397 -655h-219l-350 604h-229v-604h-187zM373 762l164 0.00195312c114 0 198 22 252 66s81 114 81 210c0 47.333 -6.5 87.666 -19.5 120.999s-33.167 60.666 -60.5 81.999
s-62.333 37 -105 47s-93.667 15 -153 15h-159v-541z" />
    <glyph glyph-name="S" unicode="S" 
d="M141 227c144 -57.333 281.999 -85.9961 413.999 -85.9961c233.333 0 350 80 350 240c0 70 -23.333 123.333 -70 160c-24 18.667 -59.5 39.167 -106.5 61.5s-106.833 46.166 -179.5 71.499c-54.667 19.333 -105.667 41.166 -153 65.499s-88.5 53.5 -123.5 87.5
s-62.5 74.167 -82.5 120.5s-30 101.166 -30 164.499c0 68.667 13.833 126.667 41.5 174s64.167 85.5 109.5 114.5s96.666 50 153.999 63s116 19.5 176 19.5c152.667 0 291.334 -26 416.001 -78l-64 -164c-128.667 52 -248.667 78 -360 78c-195.333 0 -293 -69.667 -293 -209
c0 -68 22 -122.667 66 -164c22 -20.667 55.333 -42.167 100 -64.5s101.334 -45.166 170.001 -68.499c84 -30 152.833 -59.667 206.5 -89s94.5 -60 122.5 -92c54.667 -62.667 82 -143 82 -241c0 -64 -11.833 -121.333 -35.5 -172s-58 -93.834 -103 -129.501
s-100.5 -62.834 -166.5 -81.501s-141.667 -28 -227 -28c-176.667 0 -314.667 23 -414 69v178z" />
    <glyph glyph-name="T" unicode="T" 
d="M102 1462h1022v-164h-417v-1298h-187v1298h-418v164z" />
    <glyph glyph-name="U" unicode="U" 
d="M125 520v942h186v-932c0 -258 102.333 -387 307 -387c196.667 0 296.667 129.667 300 389v932h186v-948c0 -173.333 -42 -306 -126 -398s-207.333 -138 -370 -138c-322 0 -483 180 -483 540z" />
    <glyph glyph-name="V" unicode="V" 
d="M229 1462l295 -926.998c13.333 -42.667 27.5 -91.334 42.5 -146.001s30.167 -117.334 45.5 -188.001c10.667 48 23.5 100 38.5 156s33.167 117.333 54.5 184l292 921h199l-489 -1462h-187l-487 1462h196z" />
    <glyph glyph-name="W" unicode="W" 
d="M172 1462l88 -663.002c8 -58.667 15.333 -119.167 22 -181.5s12.667 -127.833 18 -196.5l12.5 -162c3 -39.333 4.5 -65.666 4.5 -78.999c8 50.667 17.833 101.834 29.5 153.501s25.167 104.5 40.5 158.5l141 516h177l145 -521c41.333 -146 65.333 -248.333 72 -307
c0.666992 17.333 6.33398 77.5 17.001 180.5s26.667 249.167 48 438.5l70 663h170l-187 -1462h-190l-168 580c-26.667 92 -48.667 186 -66 282c-10.667 -58.667 -21.334 -111.167 -32.001 -157.5s-21.667 -88.5 -33 -126.5l-156 -578h-190l-203 1462h170z" />
    <glyph glyph-name="X" unicode="X" 
d="M506 764l-422 698h199l331 -559l334 559h191l-422 -692l457 -770h-211l-355 635l-366 -635h-189z" />
    <glyph glyph-name="Y" unicode="Y" 
d="M33 1462h203l376 -739l381 739h201l-487 -893v-569h-187v559z" />
    <glyph glyph-name="Z" unicode="Z" 
d="M1124 0h-1022v145l793 1151h-772v166h981v-145l-793 -1151h813v-166z" />
    <glyph glyph-name="bracketleft" unicode="[" 
d="M940 1462v-149h-346v-1487h346v-150h-528v1786h528z" />
    <glyph glyph-name="backslash" unicode="\" 
d="M389 1462l627 -1462h-178l-627 1462h178z" />
    <glyph glyph-name="bracketright" unicode="]" 
d="M817 1462v-1786h-528v150h346v1487h-346v149h528z" />
    <glyph glyph-name="asciicircum" unicode="^" 
d="M535 1473h102l481 -924h-162l-368 735l-318 -735h-159z" />
    <glyph glyph-name="underscore" unicode="_" 
d="M1243 -324h-1259v140h1259v-140z" />
    <glyph glyph-name="grave" unicode="`" 
d="M637 1569c56.667 -116 114.667 -216.333 174 -301v-27h-121c-56 48 -106.333 97 -151 147s-85 103.333 -121 160v21h219z" />
    <glyph glyph-name="a" unicode="a" 
d="M135 307c0 220 170 336 510 348l203 7v69c0 157.333 -81.333 236 -244 236c-100.667 0 -210 -27.333 -328 -82l-63 137c131.333 64 259 96 383 96c76 0 141 -7 195 -21s98.5 -36 133.5 -66s60.667 -68 77 -114s24.5 -101 24.5 -165v-752h-131l-37 152h-8
c-26 -32.667 -52 -60 -78 -82s-53.5 -39.667 -82.5 -53s-60.333 -22.833 -94 -28.5s-71.167 -8.5 -112.5 -8.5c-54 0 -102.5 7.33301 -145.5 22s-79.5 36 -109.5 64s-53 62.167 -69 102.5s-24 86.5 -24 138.5zM324 305c0 -118.667 66.668 -178 200.001 -178
c49.333 0 93.833 7 133.5 21s73.5 34.167 101.5 60.5s49.5 58.833 64.5 97.5s22.5 82.667 22.5 132v99l-162 -7c-65.333 -2.66699 -120.833 -9 -166.5 -19s-82.834 -24.167 -111.501 -42.5s-49.5 -41 -62.5 -68s-19.5 -58.833 -19.5 -95.5z" />
    <glyph glyph-name="b" unicode="b" 
d="M340 1556l0.000976562 -376c0 -28 -0.666992 -60.5 -2 -97.5s-3.33301 -79.833 -6 -128.5h8c71.333 109.333 178.666 164 321.999 164c81.333 0 149.5 -16.333 204.5 -49s99.167 -75.834 132.5 -129.501s57.166 -114.334 71.499 -182.001s21.5 -136.5 21.5 -206.5
c0 -46 -3.16699 -92.167 -9.5 -138.5s-16.5 -90.666 -30.5 -132.999s-32 -81.666 -54 -117.999s-49 -68 -81 -95s-69 -48.167 -111 -63.5s-90 -23 -144 -23c-137.333 0 -244.666 53 -321.999 159h-12l-37 -139h-133v1556h182zM410.001 228c46 -64.667 119.667 -97 221 -97
c181.333 0 272 140.667 272 422c0 276 -91.333 414 -274 414c-103.333 0 -177.333 -31.333 -222 -94s-67 -170 -67 -322c0 -76.667 6 -141.667 18 -195s29.333 -96 52 -128z" />
    <glyph glyph-name="c" unicode="c" 
d="M725 1118c116 0 228.001 -19.6689 336.001 -59.002l-62 -158c-100 38 -189.333 57 -268 57c-247.333 0 -371 -137.667 -371 -413c0 -270.667 120.333 -406 361 -406c102 0 209 20.667 321 62v-160c-86 -40.667 -195.667 -61 -329 -61c-86 0 -162.5 12.333 -229.5 37
s-123.5 60.834 -169.5 108.501s-81.167 106.5 -105.5 176.5s-36.5 150.333 -36.5 241c0 94 12.333 176.667 37 248s60.667 131.333 108 180s105.166 85.334 173.499 110.001s146.5 37 234.5 37z" />
    <glyph glyph-name="d" unicode="d" 
d="M252 968c77.333 100 182.332 150 314.999 150c138 0 245.333 -53.333 322 -160h12c-8 86 -12 140 -12 162v436h182v-1556h-147l-27 147h-8c-75.333 -111.333 -182.666 -167 -321.999 -167c-132.667 0 -237.667 50 -315 150c-76.667 98.667 -115 237.667 -115 417
c0 182 38.333 322.333 115 421zM599.999 131c50.667 0 93.998 7.17188 129.998 21.5049s65.5 36.666 88.5 66.999s40.167 69.166 51.5 116.499s17.666 104 18.999 170v41c0 36 -1.16699 71.167 -3.5 105.5s-7.16602 67.166 -14.499 98.499s-17.666 60.166 -30.999 86.499
s-30.666 49.166 -51.999 68.499s-47.5 34.333 -78.5 45s-68.167 16 -111.5 16c-181.333 0 -272 -140.667 -272 -422c0 -276 91.333 -414 274 -414z" />
    <glyph glyph-name="e" unicode="e" 
d="M269 963c90 103.333 210.665 154.999 361.998 154.999c74 0 139.833 -12.167 197.5 -36.5s106.334 -58.166 146.001 -101.499s69.834 -95 90.501 -155s31 -126 31 -198v-113h-774c5.33301 -250 120 -375 344 -375c132.667 0 256 25.333 370 76v-160
c-110.667 -50 -232 -75 -364 -75c-85.333 0 -161.5 13.5 -228.5 40.5s-123.5 65.167 -169.5 114.5s-81 108.5 -105 177.5s-36 145.167 -36 228.5c0 178 45.333 318.667 136 422zM898.998 661.999c0 203.333 -90.668 305 -272.001 305
c-183.333 0 -283.666 -101.667 -300.999 -305h573z" />
    <glyph glyph-name="f" unicode="f" 
d="M473 1098l0.00195312 101.999c0 64 7.16699 119.167 21.5 165.5s37.166 84.5 68.499 114.5s71.5 52 120.5 66s108.5 21 178.5 21c82.667 0 166.667 -11.667 252 -35l-41 -143c-66 18.667 -135 28 -207 28c-40 0 -73.333 -3.83301 -100 -11.5s-48.334 -20 -65.001 -37
s-28.5 -39.167 -35.5 -66.5s-10.5 -60.666 -10.5 -99.999v-104h389v-137h-389v-961h-182v961h-317v137h317z" />
    <glyph glyph-name="g" unicode="g" 
d="M102 -186c0 141.333 80.001 231.332 240.001 269.999c-64 31.333 -96 82.666 -96 153.999c0 75.333 44.333 139.333 133 192c-30 12 -56.667 28.5 -80 49.5s-43.333 45.167 -60 72.5s-29.334 57 -38.001 89s-13 64.667 -13 98c0 123.333 35 217.333 105 282
s171.667 97 305 97c54 0 104 -6.66699 150 -20h378v-113l-196 -27c43.333 -57.333 65 -128.333 65 -213c0 -60 -10.5 -112.167 -31.5 -156.5s-49.667 -81 -86 -110s-79 -50.5 -128 -64.5s-101.5 -21 -157.5 -21c-36 0 -64.667 2 -86 6c-66.667 -36.667 -100 -81 -100 -133
c0 -56 53.667 -84 161 -84h187c118 0 207.167 -25.167 267.5 -75.5s90.5 -124.166 90.5 -221.499c0 -251.333 -188.333 -377 -565 -377c-145.333 0 -255.833 26.833 -331.5 80.5s-113.5 128.834 -113.5 225.501zM274.001 -180.001c0 -116 90.333 -173.999 271 -173.999
c263.333 0 395 74.333 395 223c0 57.333 -16.667 96.666 -50 117.999c-32.667 20.667 -98.667 31 -198 31h-188c-153.333 0 -230 -66 -230 -198zM367.001 745c0 -151.333 75.667 -227 227 -227c148.667 0 223 76.667 223 230c0 159.333 -75 239 -225 239
s-225 -80.667 -225 -242z" />
    <glyph glyph-name="h" unicode="h" 
d="M160 1556h182v-462l-8 -144h10c69.333 112 181.333 168 336 168c259.333 0 389 -133.667 389 -401v-717h-182v707c0 173.333 -79.333 260 -238 260c-204.667 0 -307 -132.667 -307 -398v-569h-182v1556z" />
    <glyph glyph-name="i" unicode="i" 
d="M272 1098h451v-774c0 -130 64.333 -195 193 -195c75.333 0 146.333 7 213 21v-138c-65.333 -21.333 -140.333 -32 -225 -32c-242 0 -363 114.667 -363 344v630h-269v144zM506 1436c0 19.333 3.33496 37.166 10.002 53.499s15.667 30.5 27 42.5s24.666 21.333 39.999 28
s32 10 50 10s34.667 -3.33301 50 -10s28.666 -16 39.999 -28s20.166 -26.167 26.499 -42.5s9.5 -34.166 9.5 -53.499c0 -18.667 -3.83301 -36.334 -11.5 -53.001s-17.667 -31 -30 -43s-26 -21.5 -41 -28.5s-29.5 -10.5 -43.5 -10.5c-18 0 -34.667 3.5 -50 10.5
s-28.666 16.5 -39.999 28.5s-20.333 26.333 -27 43s-10 34.334 -10 53.001z" />
    <glyph glyph-name="j" unicode="j" 
d="M135 -457l0.00292969 154.002c89.333 -26 185.666 -39 288.999 -39c78.667 0 139.667 18.667 183 56s65 90.333 65 159v1081h-420v144h602v-1215c0 -60 -9.66699 -113.333 -29 -160s-47.333 -85.834 -84 -117.501s-81.834 -55.834 -135.501 -72.501
s-114.834 -25 -183.501 -25c-106 0 -201.667 11.667 -287 35zM743.003 1570c18 0 34.667 -3.33301 50 -10s28.666 -16 39.999 -28s20.333 -26.167 27 -42.5s10 -34.166 10 -53.499c0 -18.667 -3.33301 -36.334 -10 -53.001s-15.667 -31 -27 -43s-24.666 -21.5 -39.999 -28.5
s-32 -10.5 -50 -10.5s-34.667 3.5 -50 10.5s-28.666 16.5 -39.999 28.5s-20.166 26.333 -26.499 43s-9.5 34.334 -9.5 53.001c0 19.333 3.16699 37.166 9.5 53.499s15.166 30.5 26.499 42.5s24.666 21.333 39.999 28s32 10 50 10z" />
    <glyph glyph-name="k" unicode="k" 
d="M215 0v1556h180v-714l-16 -289h4l135 152l395 393h222l-494 -475l522 -623h-213l-426 504l-129 -82v-422h-180z" />
    <glyph glyph-name="l" unicode="l" 
d="M264 1556h451v-1232c0 -130 64.333 -195 193 -195c75.333 0 146.333 7 213 21v-138c-65.333 -21.333 -140.333 -32 -225 -32c-242 0 -363 114.667 -363 344v1088h-269v144z" />
    <glyph glyph-name="m" unicode="m" 
d="M219 1098l27 -147.999h10c45.333 112 112.333 168 201 168c108.667 0 179.667 -60.667 213 -182h6c51.333 121.333 124.333 182 219 182c42.667 0 79.334 -7.33301 110.001 -22s56 -38.167 76 -70.5s34.667 -73.833 44 -124.5s14 -112 14 -184v-717h-162v707
c0 49.333 -2.16699 90.5 -6.5 123.5s-11 59.667 -20 80s-20.833 34.833 -35.5 43.5s-32.334 13 -53.001 13c-28.667 0 -53.5 -6.66699 -74.5 -20s-38.333 -34.333 -52 -63s-23.667 -65.834 -30 -111.501s-9.5 -101.167 -9.5 -166.5v-606h-161v707
c0 173.333 -41.667 260 -125 260c-56 0 -96 -26.333 -120 -79c-24 -54 -36 -160.333 -36 -319v-569h-162v1098h127z" />
    <glyph glyph-name="n" unicode="n" 
d="M160 1098h147l27 -148h10c69.333 112 181.333 168 336 168c259.333 0 389 -133.667 389 -401v-717h-182v707c0 173.333 -79.333 260 -238 260c-204.667 0 -307 -132.667 -307 -398v-569h-182v1098z" />
    <glyph glyph-name="o" unicode="o" 
d="M251 966c91.333 101.333 213.003 152.001 365.003 152.001c144.667 0 263.667 -51.667 357 -155c92.667 -102.667 139 -240 139 -412c0 -78.667 -10.333 -152.667 -31 -222s-51.834 -129.833 -93.501 -181.5s-93.834 -92.5 -156.501 -122.5s-136.334 -45 -221.001 -45
c-142.667 0 -261 52 -355 156c-93.333 103.333 -140 241.666 -140 414.999c0 176 45.333 314.333 136 415zM303.003 551.001c0 -280 103.667 -420 311 -420c206.667 0 310 140 310 420c0 277.333 -104 416 -312 416c-206 0 -309 -138.667 -309 -416z" />
    <glyph glyph-name="p" unicode="p" 
d="M305 1098l27.001 -148h8c73.333 112 180.666 168 321.999 168c81.333 0 149.5 -16.333 204.5 -49s99.167 -75.834 132.5 -129.501s57.166 -114.334 71.499 -182.001s21.5 -136.5 21.5 -206.5c0 -46 -3.16699 -92.167 -9.5 -138.5s-16.5 -90.666 -30.5 -132.999
s-32 -81.666 -54 -117.999s-49 -68 -81 -95s-69 -48.167 -111 -63.5s-90 -23 -144 -23c-137.333 0 -244.666 53 -321.999 159h-12c8 -86 12 -140 12 -162v-469h-182v1590h147zM340.001 551c0 -76.667 5.99902 -141.669 17.999 -195.002s29.333 -96 52 -128
c46 -64.667 119.667 -97 221 -97c181.333 0 272 140.667 272 422c0 276 -91.333 414 -274 414c-50.667 0 -94 -7.16699 -130 -21.5s-65.5 -36.666 -88.5 -66.999s-40.167 -69.166 -51.5 -116.499s-17.666 -104 -18.999 -170v-41z" />
    <glyph glyph-name="q" unicode="q" 
d="M252 968c77.333 100 182.332 150 314.999 150c138 0 245.333 -56 322 -168h8l27 148h147v-1590h-182v469c0 27.333 4 84 12 170h-12c-75.333 -111.333 -182.666 -167 -321.999 -167c-132.667 0 -237.667 50 -315 150c-76.667 98.667 -115 237.667 -115 417
c0 182 38.333 322.333 115 421zM599.999 131c50.667 0 93.998 7.17188 129.998 21.5049s65.5 36.666 88.5 66.999s40.167 69.166 51.5 116.499s17.666 104 18.999 170v41c0 36 -1.16699 71.167 -3.5 105.5s-7.16602 67.166 -14.499 98.499s-17.666 60.166 -30.999 86.499
s-30.666 49.166 -51.999 68.499s-47.5 34.333 -78.5 45s-68.167 16 -111.5 16c-181.333 0 -272 -140.667 -272 -422c0 -276 91.333 -414 274 -414z" />
    <glyph glyph-name="r" unicode="r" 
d="M264 1098l148 0.000976562l22 -201h8c25.333 40 51.333 74 78 102s55 50.833 85 68.5s62.667 30.5 98 38.5s74 12 116 12c79.333 0 159.333 -15 240 -45l-49 -166c-82 30 -156.667 45 -224 45c-110.667 0 -195 -30.333 -253 -91s-87 -150.334 -87 -269.001v-592h-182
v1098z" />
    <glyph glyph-name="s" unicode="s" 
d="M203 215c132 -57.333 255.333 -86 370 -86c183.333 0 275 54 275 162c0 38 -16.333 71 -49 99c-16.667 14 -43.5 29.5 -80.5 46.5s-85.5 36.833 -145.5 59.5c-78 30 -141.167 58 -189.5 84s-82.833 51.333 -103.5 76c-40.667 48.667 -61 105.667 -61 171
c0 45.333 9.5 86 28.5 122s46.5 66.5 82.5 91.5s80 44.167 132 57.5s111 20 177 20c129.333 0 252.333 -24.667 369 -74l-60 -149c-120.667 48 -227 72 -319 72c-157.333 0 -236 -44.333 -236 -133c0 -40.667 17 -73 51 -97c16.667 -11.333 44 -25.666 82 -42.999
s88 -37 150 -59c142 -51.333 235.667 -101.666 281 -150.999c46 -50 69 -111 69 -183c0 -50 -10 -94.833 -30 -134.5s-49 -73.334 -87 -101.001s-84.833 -48.834 -140.5 -63.501s-119.167 -22 -190.5 -22c-164.667 0 -289.667 23 -375 69v166z" />
    <glyph glyph-name="t" unicode="t" 
d="M139 961v137h267v364h182v-364h438v-137h-438v-637c0 -130 64 -195 192 -195c62 0 142 7 240 21v-138c-92.667 -21.333 -176.667 -32 -252 -32c-241.333 0 -362 114.667 -362 344v637h-267z" />
    <glyph glyph-name="u" unicode="u" 
d="M160 381v717h182v-707c0 -173.333 78.667 -260 236 -260c54 0 100.333 7.33301 139 22s70.667 38 96 70s44 73.167 56 123.5s18 110.833 18 181.5v570h182v-1098h-147l-27 147h-10c-70 -111.333 -181.333 -167 -334 -167c-260.667 0 -391 133.667 -391 401z" />
    <glyph glyph-name="v" unicode="v" 
d="M270 1098l240.001 -652c55.333 -151.333 88.666 -259.666 99.999 -324.999h6c2.66699 14.667 12.167 48.667 28.5 102s40.5 127.666 72.5 222.999l239 652h189l-416 -1098h-231l-416 1098h188z" />
    <glyph glyph-name="w" unicode="w" 
d="M158 1098l98 -542.999c11.333 -62.667 21.833 -126.167 31.5 -190.5s18.167 -131.833 25.5 -202.5h6l32.5 182c11 58.667 22.833 117.334 35.5 176.001l133 578h193l127 -578c14 -64.667 26.667 -126.834 38 -186.501s21 -116.834 29 -171.501h6
c21.333 161.333 41.333 292.333 60 393l102 543h158l-225 -1098h-195l-131 596l-68 330h-6l-65 -334l-135 -592h-189l-223 1098h162z" />
    <glyph glyph-name="x" unicode="x" 
d="M510 563l-393 535h207l290 -410l291 410h207l-395 -535l413 -563h-206l-310 436l-311 -436h-207z" />
    <glyph glyph-name="y" unicode="y" 
d="M270 1098l262.002 -654.001c28 -68.667 49.167 -127 63.5 -175s22.833 -86.333 25.5 -115h6c7.33301 38 18.666 81 33.999 129s34 102.333 56 163l239 652h189l-475 -1241c-22 -58.667 -46 -109.5 -72 -152.5s-54 -79.5 -84 -109.5c-58 -58 -140 -87 -246 -87
c-51.333 0 -107.333 5.66699 -168 17v145c41.333 -8 86.666 -12 135.999 -12c34.667 0 64.5 3.83301 89.5 11.5s47 19 66 34s35.5 33.833 49.5 56.5s27.333 49.334 40 80.001l58 150l-457 1108h188z" />
    <glyph glyph-name="z" unicode="z" 
d="M1044 0h-862v125l660 836h-627v137h811v-146l-647 -815h665v-137z" />
    <glyph glyph-name="braceleft" unicode="{" 
d="M225 492v154.998c225.333 0 338 63 338 189v333c0 191.333 146 289 438 293v-149c-48 -0.666992 -88.333 -4.16699 -121 -10.5s-59 -16 -79 -29s-34.333 -29.167 -43 -48.5s-13 -42.666 -13 -69.999v-332c0 -138 -77.667 -220.667 -233 -248v-12
c155.333 -27.333 233 -110 233 -248v-331c0 -27.333 4.33301 -50.666 13 -69.999s23 -35.5 43 -48.5s46.333 -22.667 79 -29s73 -9.83301 121 -10.5v-150c-292 4 -438 101.667 -438 293v334c0 126 -112.667 189 -338 189z" />
    <glyph glyph-name="bar" unicode="|" 
d="M539 1556h149v-2048h-149v2048z" />
    <glyph glyph-name="braceright" unicode="}" 
d="M227 1462c292.667 -4 439 -101.668 439 -293.001v-333c0 -126 112.667 -189 338 -189v-155c-225.333 0 -338 -63 -338 -189v-334c0 -191.333 -146.333 -289 -439 -293v150c48 0 88.333 3.16699 121 9.5s59 16 79 29s34.333 29.333 43 49s13 43.167 13 70.5v331
c0 138.667 78 221.334 234 248.001v12c-156 27.333 -234 110 -234 248v332c0 27.333 -4.33301 50.833 -13 70.5s-23 36 -43 49s-46.333 22.667 -79 29s-73 9.5 -121 9.5v149z" />
    <glyph glyph-name="asciitilde" unicode="~" 
d="M152 586v162c66 72 148.333 108 247 108c34 0 71.333 -5.33301 112 -16s86 -26.334 136 -47.001c90 -37.333 157 -56 201 -56c72.667 0 148.334 40.333 227.001 121v-162c-66 -72 -148.667 -108 -248 -108c-34 0 -71.167 5.33301 -111.5 16s-85.5 26.334 -135.5 47.001
c-90 37.333 -157 56 -201 56c-72.667 0 -148.334 -40.333 -227.001 -121z" />
    <glyph glyph-name="uni00A0" unicode="&#xa0;" 
 />
    <glyph glyph-name="exclamdown" unicode="&#xa1;" 
d="M502 -373l51 1049h121l51 -1049h-223zM614 1118c84.667 0 127 -46.333 127 -139s-42.333 -139 -127 -139s-127 46.333 -127 139s42.333 139 127 139z" />
    <glyph glyph-name="cent" unicode="&#xa2;" 
d="M172 743c0 329.333 144.667 518.667 434 568v172h137v-164c104.667 -2 210.667 -21.667 318 -59l-62 -158c-100 38 -189.333 57 -268 57c-247.333 0 -371 -138 -371 -414c0 -270 120.333 -405 361 -405c104.667 0 211.667 20.333 321 61v-159
c-84 -39.333 -183.667 -60 -299 -62v-200h-137v206c-289.333 46 -434 231.667 -434 557z" />
    <glyph glyph-name="sterling" unicode="&#xa3;" 
d="M119 0l-0.000976562 154c133.333 33.333 200 128 200 284v213h-198v137h198v324c0 59.333 10 112 30 158s47.833 84.667 83.5 116s77.834 55 126.501 71s101.334 24 158.001 24c127.333 0 242.666 -26.667 345.999 -80l-66 -144c-94 48 -184.667 72 -272 72
c-148.667 0 -223 -82 -223 -246v-295h377v-137h-377v-211c0 -130.667 -46.667 -222 -140 -274h748v-166h-991z" />
    <glyph glyph-name="currency" unicode="&#xa4;" 
d="M272 1163l127 -128.998c67.333 45.333 139 68 215 68c74.667 0 145.667 -22.667 213 -68l129 129l99 -96l-129 -129c44.667 -66.667 67 -138.334 67 -215.001c0 -80.667 -22.333 -152.334 -67 -215.001l127 -127l-97 -96l-129 127c-66 -44 -137 -66 -213 -66
c-78 0 -149.667 22.667 -215 68l-127 -127l-96 96l127 127c-43.333 63.333 -65 134.333 -65 213c0 74.667 21.667 145.667 65 213l-129 129zM375 723.002c0 -32.667 6.16699 -63.666 18.5 -92.999s29.333 -54.833 51 -76.5s47 -38.834 76 -51.501s60.167 -19 93.5 -19
s64.833 6.16699 94.5 18.5s55.5 29.333 77.5 51s39.5 47 52.5 76s19.5 60.5 19.5 94.5s-6.33301 65.833 -19 95.5s-30 55.5 -52 77.5s-47.833 39.333 -77.5 52s-61.5 19 -95.5 19s-65.5 -6.5 -94.5 -19.5s-54.333 -30.5 -76 -52.5s-38.5 -47.833 -50.5 -77.5
s-18 -61.167 -18 -94.5z" />
    <glyph glyph-name="yen" unicode="&#xa5;" 
d="M270 1462l342 -739l346 739h191l-385 -768h240v-137h-302v-158h302v-137h-302v-262h-178v262h-301v137h301v158h-301v137h234l-379 768h192z" />
    <glyph glyph-name="brokenbar" unicode="&#xa6;" 
d="M688 289v-781h-149v781h149zM539 776v780h149v-780h-149z" />
    <glyph glyph-name="section" unicode="&#xa7;" 
d="M244 213c111.333 -54.667 219.001 -82.0029 323.001 -82.0029c160 0 240 47 240 141c0 38 -14.333 70.333 -43 97c-28.667 27.333 -93.667 61.333 -195 102c-132 56.667 -216.333 109.667 -253 159c-37.333 51.333 -56 111 -56 179c0 119.333 53.333 205.333 160 258
c-106.667 52.667 -160 131.334 -160 236.001c0 80 34.667 144 104 192s161.666 72 276.999 72c108.667 0 217.334 -24 326.001 -72l-56 -139c-101.333 44.667 -193.333 67 -276 67c-134 0 -201 -38.667 -201 -116c0 -18 4.33301 -34.667 13 -50s21 -29.666 37 -42.999
s40.167 -28.166 72.5 -44.499s73.5 -34.833 123.5 -55.5c104.667 -41.333 181.667 -87.833 231 -139.5s74 -115.167 74 -190.5c0 -121.333 -48.333 -211.333 -145 -270c96.667 -52.667 145 -127.667 145 -225c0 -46 -9.5 -87.5 -28.5 -124.5s-46.333 -68.333 -82 -94
s-79.334 -45.5 -131.001 -59.5s-110.5 -21 -176.5 -21c-136 0 -243.667 21.667 -323 65v158zM471.001 704.997c19.333 -18.667 46.167 -37.501 80.5 -56.501s76.5 -39.167 126.5 -60.5l35 -15c76 51.333 114 113 114 185c0 30 -6.33301 56.667 -19 80s-31 44.833 -55 64.5
s-53.333 37.834 -88 54.501s-74 33 -118 49c-88.667 -32 -133 -90.333 -133 -175c0 -46.667 19 -88.667 57 -126z" />
    <glyph glyph-name="dieresis" unicode="&#xa8;" 
d="M801 1517c16 0 31 -3.16699 45 -9.5s26.333 -15 37 -26s19 -23.833 25 -38.5s9 -30.667 9 -48s-3 -33.5 -9 -48.5s-14.333 -28 -25 -39s-23 -19.667 -37 -26s-29 -9.5 -45 -9.5s-31 3.16699 -45 9.5s-26.333 15 -37 26s-19 24 -25 39s-9 31.167 -9 48.5s3 33.333 9 48
s14.333 27.5 25 38.5s23 19.667 37 26s29 9.5 45 9.5zM426 1517c16 0 31 -3.16699 45 -9.5s26.333 -15 37 -26s19 -23.833 25 -38.5s9 -30.667 9 -48s-3 -33.5 -9 -48.5s-14.333 -28 -25 -39s-23 -19.667 -37 -26s-29 -9.5 -45 -9.5s-31 3.16699 -45 9.5s-26.333 15 -37 26
s-19 24 -25 39s-9 31.167 -9 48.5s3 33.333 9 48s14.333 27.5 25 38.5s23 19.667 37 26s29 9.5 45 9.5z" />
    <glyph glyph-name="copyright" unicode="&#xa9;" 
d="M6 731c0 64.667 4.99902 128.166 14.999 190.499s25.333 121.333 46 177s47.167 107 79.5 154s71 87.5 116 121.5s96.667 60.667 155 80s123.833 29 196.5 29c190.667 0 340 -68 448 -204c107.333 -135.333 161 -318 161 -548s-54 -412.667 -162 -548
s-257 -203 -447 -203c-72.667 0 -138 9.5 -196 28.5s-109.667 45.667 -155 80s-84.166 74.833 -116.499 121.5s-58.833 97.834 -79.5 153.501s-36 114.667 -46 177s-15 125.833 -15 190.5zM613.999 87.999c62.667 0 118.334 8.33398 167.001 25.001
s91.5 39.834 128.5 69.501s68.5 64.667 94.5 105s47.167 84.333 63.5 132s28.166 98 35.499 151s11 106.5 11 160.5c0 82 -8.5 161.5 -25.5 238.5s-45 145.5 -84 205.5s-90.333 108.167 -154 144.5s-142.5 54.5 -236.5 54.5c-62 0 -117.5 -8.33301 -166.5 -25
s-92 -39.834 -129 -69.501s-68.333 -64.667 -94 -105s-46.667 -84.333 -63 -132s-28.166 -98 -35.499 -151s-11 -106.5 -11 -160.5s3.66699 -107.5 11 -160.5s19.166 -103.333 35.499 -151s37.333 -91.667 63 -132s57 -75.333 94 -105s80 -52.834 129 -69.501
s104.5 -25 166.5 -25zM247.999 733c0 65.333 8.66699 125.668 26 181.001s43.166 103.333 77.499 144s77.166 72.5 128.499 95.5s111 34.5 179 34.5c82.667 0 167.334 -20.667 254.001 -62l-61 -127c-72.667 36 -137 54 -193 54c-80.667 0 -142.667 -28.5 -186 -85.5
s-65 -135.833 -65 -236.5c0 -215.333 83.667 -323 251 -323c62.667 0 134.334 15 215.001 45v-131c-74 -33.333 -147.667 -50 -221 -50c-70 0 -130.5 11.833 -181.5 35.5s-93 56.167 -126 97.5s-57.5 90.166 -73.5 146.499s-24 116.833 -24 181.5z" />
    <glyph glyph-name="ordfeminine" unicode="&#xaa;" 
d="M276 989c0 39.333 6.83301 72.667 20.5 100s35.167 50 64.5 68s66.666 31.5 111.999 40.5s100 14.5 164 16.5l125 5v10c0 88.667 -50.667 133 -152 133c-74 0 -155.667 -17 -245 -51l-41 110c89.333 38.667 187.333 58 294 58c194 0 291 -79.333 291 -238v-444h-110
l-33 118c-69.333 -87.333 -158.666 -131 -267.999 -131c-148 0 -222 68.333 -222 205zM532 897.001c35.333 0 67.167 4.83301 95.5 14.5s52.5 23.167 72.5 40.5s35.333 38.5 46 63.5s16 52.5 16 82.5v20l-100 -2c-38 -0.666992 -71.5 -3.16699 -100.5 -7.5
s-53.5 -11.333 -73.5 -21s-35 -22.667 -45 -39s-15 -36.833 -15 -61.5c0 -60 34.667 -90 104 -90z" />
    <glyph glyph-name="guillemotleft" unicode="&#xab;" 
d="M197 553l309 414l117 -78l-238 -348l238 -348l-117 -78l-309 411v27zM604 553l309 414l117 -78l-237 -348l237 -348l-117 -78l-309 411v27z" />
    <glyph glyph-name="logicalnot" unicode="&#xac;" 
d="M1075 797v-535h-149v385h-774v150h923z" />
    <glyph glyph-name="uni00AD" unicode="&#xad;" 
d="M285 465v168h659v-168h-659z" />
    <glyph glyph-name="registered" unicode="&#xae;" 
d="M614 1483c190.667 0 339.999 -68.001 447.999 -204.001c107.333 -135.333 161 -318 161 -548s-54 -412.667 -162 -548s-257 -203 -447 -203c-72.667 0 -138 9.5 -196 28.5s-109.667 45.667 -155 80s-84.166 74.833 -116.499 121.5s-58.833 97.834 -79.5 153.501
s-36 114.667 -46 177s-15 125.833 -15 190.5s5 128.167 15 190.5s25.333 121.333 46 177s47.167 107 79.5 154s71 87.5 116 121.5s96.667 60.667 155 80s123.833 29 196.5 29zM613.999 87.999c62.667 0 118.334 8.33398 167.001 25.001s91.5 39.834 128.5 69.501
s68.5 64.667 94.5 105s47.167 84.333 63.5 132s28.166 98 35.499 151s11 106.5 11 160.5c0 82 -8.5 161.5 -25.5 238.5s-45 145.5 -84 205.5s-90.333 108.167 -154 144.5s-142.5 54.5 -236.5 54.5c-62 0 -117.5 -8.33301 -166.5 -25s-92 -39.834 -129 -69.501
s-68.333 -64.667 -94 -105s-46.667 -84.333 -63 -132s-28.166 -98 -35.499 -151s-11 -106.5 -11 -160.5s3.66699 -107.5 11 -160.5s19.166 -103.333 35.499 -151s37.333 -91.667 63 -132s57 -75.333 94 -105s80 -52.834 129 -69.501s104.5 -25 166.5 -25zM347.999 1178h234
c216.667 0 325 -88.333 325 -265c0 -108 -53 -185.667 -159 -233l237 -395h-178l-207 352h-94v-352h-158v893zM505.999 768h72c113.333 0 170 47 170 141c0 49.333 -14 83.833 -42 103.5s-71.667 29.5 -131 29.5h-69v-274z" />
    <glyph glyph-name="macron" unicode="&#xaf;" 
d="M1249 1556h-1269v140h1269v-140z" />
    <glyph glyph-name="degree" unicode="&#xb0;" 
d="M614 1483c43.333 0 84.166 -8.33398 122.499 -25.001s71.833 -39.167 100.5 -67.5s51.334 -61.666 68.001 -99.999s25 -79.5 25 -123.5c0 -43.333 -8.33301 -84 -25 -122s-39.334 -71.167 -68.001 -99.5s-62.167 -50.666 -100.5 -66.999s-79.166 -24.5 -122.499 -24.5
s-84.166 8.16699 -122.499 24.5s-71.666 38.666 -99.999 66.999s-50.833 61.5 -67.5 99.5s-25 78.667 -25 122s8.33301 84.166 25 122.499s39.167 71.833 67.5 100.5s61.666 51.334 99.999 68.001s79.166 25 122.499 25zM422 1167c0 -26.667 4.99902 -51.5 14.999 -74.5
s23.667 -43 41 -60s37.666 -30.5 60.999 -40.5s48.333 -15 75 -15c26 0 50.833 5 74.5 15s44.167 23.5 61.5 40.5s31.166 37 41.499 60s15.5 47.833 15.5 74.5s-5 51.834 -15 75.501s-23.667 44.334 -41 62.001s-37.666 31.667 -60.999 42s-48.666 15.5 -75.999 15.5
c-26.667 0 -51.667 -5.16699 -75 -15.5s-43.666 -24.333 -60.999 -42s-31 -38.334 -41 -62.001s-15 -48.834 -15 -75.501z" />
    <glyph glyph-name="plusminus" unicode="&#xb1;" 
d="M539 797v389h149v-389h387v-150h-387v-385h-149v385h-387v150h387zM152 150h923v-150h-923v150z" />
    <glyph glyph-name="twosuperior" unicode="&#xb2;" 
d="M535 973c38 40 68.501 73.834 91.501 101.501s39.833 50.167 50.5 67.5c20 33.333 30 69 30 107c0 76.667 -37 115 -111 115c-54.667 0 -109.334 -25.333 -164.001 -76l-78 86c76.667 68.667 159.334 103 248.001 103c78.667 0 139.667 -19.667 183 -59
s65 -94.333 65 -165c0 -44 -11.667 -88.667 -35 -134c-22.667 -44.667 -77.334 -110.334 -164.001 -197.001l-135 -136h363v-114h-531v102z" />
    <glyph glyph-name="threesuperior" unicode="&#xb3;" 
d="M342 705l0.000976562 124c73.333 -43.333 141 -65 203 -65c99.333 0 149 45.667 149 137c0 83.333 -49 125 -147 125h-72v104h70c82 0 123 42.333 123 127c0 74 -32.333 111 -97 111c-48.667 0 -102.334 -23.333 -161.001 -70l-66 86c74 62 153.333 93 238 93
c36 0 68.667 -4.66699 98 -14s54.333 -22.833 75 -40.5s36.5 -39 47.5 -64s16.5 -53.167 16.5 -84.5c0 -92.667 -49.667 -155.667 -149 -189c117.333 -26 176 -88 176 -186c0 -78.667 -24.333 -139 -73 -181s-120.667 -63 -216 -63c-86 0 -157.667 16.667 -215 50z" />
    <glyph glyph-name="acute" unicode="&#xb4;" 
d="M418 1241v27.002c63.333 92 121.333 192.333 174 301h219v-21c-38 -58.667 -79.333 -113.334 -124 -164.001s-94 -98.334 -148 -143.001h-121z" />
    <glyph glyph-name="uni00B5" unicode="&#xb5;" 
d="M180 -492l0.000976562 1590h182v-707c0 -173.333 72.667 -260 218 -260c49.333 0 92 7.16699 128 21.5s65.667 37.333 89 69s40.666 72.667 51.999 123s17 111.5 17 183.5v570h183v-1098h-148l-27 147h-10c-64 -111.333 -162.333 -167 -295 -167
c-93.333 0 -164.333 29.333 -213 88c4 -102 6 -182 6 -240v-320h-182z" />
    <glyph glyph-name="paragraph" unicode="&#xb6;" 
d="M516 1556h563.002v-1816h-121v1657h-206v-1657h-121v819c-40.667 -12 -89.334 -18 -146.001 -18c-279.333 0 -419 167 -419 501c0 172.667 36.167 301.5 108.5 386.5s186.166 127.5 341.499 127.5z" />
    <glyph glyph-name="periodcentered" unicode="&#xb7;" 
d="M487 723c0 92.667 42.333 139 127 139s127 -46.333 127 -139s-42.333 -139 -127 -139s-127 46.333 -127 139z" />
    <glyph glyph-name="cedilla" unicode="&#xb8;" 
d="M428 -375c22 -4 48.667 -6 80 -6c100.667 0 151 30.667 151 92c0 49.333 -57.333 87 -172 113l91 176h120l-57 -115c106.667 -24.667 160 -82 160 -172c0 -136.667 -97 -205 -291 -205c-22.667 0 -50 3 -82 9v108z" />
    <glyph glyph-name="onesuperior" unicode="&#xb9;" 
d="M367 1309l219 150.999h135v-788h-146v465c0 46.667 3 113.334 9 200.001c-27.333 -29.333 -52 -51 -74 -65l-70 -51z" />
    <glyph glyph-name="ordmasculine" unicode="&#xba;" 
d="M616 1479c52 0 98.502 -8.50098 139.502 -25.501s75.833 -40.667 104.5 -71s50.5 -66.666 65.5 -108.999s22.5 -89.166 22.5 -140.499c0 -52 -7.5 -99.5 -22.5 -142.5s-36.833 -79.833 -65.5 -110.5s-63.834 -54.334 -105.501 -71.001s-89.167 -25 -142.5 -25
c-52 0 -98.333 8.83301 -139 26.5s-75.334 42 -104.001 73s-50.5 67.833 -65.5 110.5s-22.5 89 -22.5 139c0 54 7.66699 102.333 23 145s37.5 79 66.5 109s64.167 52.833 105.5 68.5s88 23.5 140 23.5zM614.002 902.999c120.667 0 181 76.667 181 230
c0 150 -60.333 225 -181 225c-121.333 0 -182 -75 -182 -225c0 -153.333 60.667 -230 182 -230z" />
    <glyph glyph-name="guillemotright" unicode="&#xbb;" 
d="M1030 526l-309 -411l-117 78l238 348l-238 348l117 78l309 -414v-27zM623 526l-310 -411l-116 78l237 348l-237 348l116 78l310 -414v-27z" />
    <glyph glyph-name="onequarter" unicode="&#xbc;" 
d="M22 1309l219 150.999h135v-788h-146v465c0 46.667 3 113.334 9 200.001c-27.333 -29.333 -52 -51 -74 -65l-70 -51zM1057 1462l-729 -1462h-158l729 1462h158zM606 272.999l377 523h141v-508h84v-113h-84v-174h-143v174h-375v98zM981 287.999l-0.00195312 176.001
c0 54.667 2 112 6 172c-13.333 -24.667 -26.666 -47.834 -39.999 -69.501s-26.666 -42.167 -39.999 -61.5l-156 -217h230z" />
    <glyph glyph-name="onehalf" unicode="&#xbd;" 
d="M3 1309l219 150.999h135v-788h-146v465c0 46.667 3 113.334 9 200.001c-27.333 -29.333 -52 -51 -74 -65l-70 -51zM992 1462l-729 -1462h-158l729 1462h158zM881 301.999c38 40 68.501 73.834 91.501 101.501s39.833 50.167 50.5 67.5c20 33.333 30 69 30 107
c0 76.667 -37 115 -111 115c-54.667 0 -109.334 -25.333 -164.001 -76l-78 86c76.667 68.667 159.334 103 248.001 103c78.667 0 139.667 -19.667 183 -59s65 -94.333 65 -165c0 -44 -11.667 -88.667 -35 -134c-22.667 -44.667 -77.334 -110.334 -164.001 -197.001
l-135 -136h363v-114h-531v102z" />
    <glyph glyph-name="threequarters" unicode="&#xbe;" 
d="M21 705l0.000976562 124c73.333 -43.333 141 -65 203 -65c99.333 0 149 45.667 149 137c0 83.333 -49 125 -147 125h-72v104h70c82 0 123 42.333 123 127c0 74 -32.333 111 -97 111c-48.667 0 -102.334 -23.333 -161.001 -70l-66 86c74 62 153.333 93 238 93
c36 0 68.667 -4.66699 98 -14s54.333 -22.833 75 -40.5s36.5 -39 47.5 -64s16.5 -53.167 16.5 -84.5c0 -92.667 -49.667 -155.667 -149 -189c117.333 -26 176 -88 176 -186c0 -78.667 -24.333 -139 -73 -181s-120.667 -63 -216 -63c-86 0 -157.667 16.667 -215 50z
M1110 1462l-729 -1462h-158l729 1462h158zM627.001 273l377 523h141v-508h84v-113h-84v-174h-143v174h-375v98zM1002 288l-0.00195312 176.001c0 54.667 2 112 6 172c-13.333 -24.667 -26.666 -47.834 -39.999 -69.501s-26.666 -42.167 -39.999 -61.5l-156 -217h230z" />
    <glyph glyph-name="questiondown" unicode="&#xbf;" 
d="M418 373c40 30 72.668 56.667 98.001 80s43.333 43.666 54 60.999c21.333 35.333 32 83 32 143v19h160v-37c0 -43.333 -4.33301 -81.5 -13 -114.5s-21.667 -63 -39 -90s-38.833 -52.167 -64.5 -75.5s-55.834 -47.333 -90.501 -72
c-85.333 -63.333 -142.333 -115 -171 -155c-28 -38.667 -42 -91.667 -42 -159c0 -31.333 6.33301 -59.666 19 -84.999s31.167 -47 55.5 -65s53.833 -31.833 88.5 -41.5s74 -14.5 118 -14.5c120.667 0 244 30 370 90l62 -144c-143.333 -70.667 -284 -106 -422 -106
c-144.667 0 -258.334 32.333 -341.001 97s-124 151.667 -124 261c0 50.667 5.83301 95 17.5 133s28.334 72.5 50.001 103.5s48 60.167 79 87.5s65.5 55.333 103.5 84zM674.001 1118c84.667 0 127 -46.333 127 -139s-42.333 -139 -127 -139s-127 46.333 -127 139
s42.333 139 127 139z" />
    <glyph glyph-name="Agrave" unicode="&#xc0;" 
d="M516 1468h195l485 -1468h-192l-144 453h-491l-146 -453h-190zM422 618h385l-133 424c-13.333 42 -25.166 81.667 -35.499 119s-19.166 73 -26.499 107c-6.66699 -34 -13.834 -66 -21.501 -96s-15.834 -59 -24.501 -87zM560 1907c56.667 -116 114.667 -216.333 174 -301
v-27h-121c-56 48 -106.333 97 -151 147s-85 103.333 -121 160v21h219z" />
    <glyph glyph-name="Aacute" unicode="&#xc1;" 
d="M516 1468h195l485 -1468h-192l-144 453h-491l-146 -453h-190zM422 618h385l-133 424c-13.333 42 -25.166 81.667 -35.499 119s-19.166 73 -26.499 107c-6.66699 -34 -13.834 -66 -21.501 -96s-15.834 -59 -24.501 -87zM520 1579v27.002
c63.333 92 121.333 192.333 174 301h219v-21c-38 -58.667 -79.333 -113.334 -124 -164.001s-94 -98.334 -148 -143.001h-121z" />
    <glyph glyph-name="Acircumflex" unicode="&#xc2;" 
d="M516 1468h195l485 -1468h-192l-144 453h-491l-146 -453h-190zM422 618h385l-133 424c-13.333 42 -25.166 81.667 -35.499 119s-19.166 73 -26.499 107c-6.66699 -34 -13.834 -66 -21.501 -96s-15.834 -59 -24.501 -87zM283 1579l-0.000976562 27l27.5 31l31.5 36
c48 52 86.167 97.333 114.5 136s48.833 71.334 61.5 98.001h193c12.667 -26.667 33.667 -59.334 63 -98.001s67 -84 113 -136l59 -67v-27h-121c-28 18.667 -59.5 43.334 -94.5 74.001s-73.833 68 -116.5 112c-44.667 -46 -84.667 -84.333 -120 -115
s-65.666 -54.334 -90.999 -71.001h-120z" />
    <glyph glyph-name="Atilde" unicode="&#xc3;" 
d="M516 1468h195l485 -1468h-192l-144 453h-491l-146 -453h-190zM422 618h385l-133 424c-13.333 42 -25.166 81.667 -35.499 119s-19.166 73 -26.499 107c-6.66699 -34 -13.834 -66 -21.501 -96s-15.834 -59 -24.501 -87zM253 1579
c17.333 176 87.6689 263.999 211.002 263.999c38 0 91.667 -18.667 161 -56s114.666 -56 135.999 -56c54 0 89.333 38 106 114h105c-18 -176 -88.333 -264 -211 -264c-19.333 0 -41.833 4.83301 -67.5 14.5s-55.5 23.834 -89.5 42.501c-67.333 37.333 -114 56 -140 56
c-54.667 0 -90.334 -38.333 -107.001 -115h-104z" />
    <glyph glyph-name="Adieresis" unicode="&#xc4;" 
d="M516 1468h195l485 -1468h-192l-144 453h-491l-146 -453h-190zM422 618h385l-133 424c-13.333 42 -25.166 81.667 -35.499 119s-19.166 73 -26.499 107c-6.66699 -34 -13.834 -66 -21.501 -96s-15.834 -59 -24.501 -87zM801 1855c16 0 31 -3.16699 45 -9.5
s26.333 -15 37 -26s19 -23.833 25 -38.5s9 -30.667 9 -48s-3 -33.5 -9 -48.5s-14.333 -28 -25 -39s-23 -19.667 -37 -26s-29 -9.5 -45 -9.5s-31 3.16699 -45 9.5s-26.333 15 -37 26s-19 24 -25 39s-9 31.167 -9 48.5s3 33.333 9 48s14.333 27.5 25 38.5s23 19.667 37 26
s29 9.5 45 9.5zM426 1855c16 0 31 -3.16699 45 -9.5s26.333 -15 37 -26s19 -23.833 25 -38.5s9 -30.667 9 -48s-3 -33.5 -9 -48.5s-14.333 -28 -25 -39s-23 -19.667 -37 -26s-29 -9.5 -45 -9.5s-31 3.16699 -45 9.5s-26.333 15 -37 26s-19 24 -25 39s-9 31.167 -9 48.5
s3 33.333 9 48s14.333 27.5 25 38.5s23 19.667 37 26s29 9.5 45 9.5z" />
    <glyph glyph-name="Aring" unicode="&#xc5;" 
d="M516 1468h195l485 -1468h-192l-144 453h-491l-146 -453h-190zM422 618h385l-133 424c-13.333 42 -25.166 81.667 -35.499 119s-19.166 73 -26.499 107c-6.66699 -34 -13.834 -66 -21.501 -96s-15.834 -59 -24.501 -87zM610 1796c32 0 61.999 -4.83496 89.999 -14.502
s52.333 -23.667 73 -42s37 -40.666 49 -66.999s18 -56.166 18 -89.499c0 -32.667 -5.5 -62.334 -16.5 -89.001s-26.667 -49.5 -47 -68.5s-44.666 -33.667 -72.999 -44s-59.5 -15.5 -93.5 -15.5s-64.667 5 -92 15s-50.833 24.333 -70.5 43s-34.667 41.334 -45 68.001
s-15.5 56.334 -15.5 89.001c0 33.333 5.16699 63.166 15.5 89.499s25.333 48.833 45 67.5s43.167 33 70.5 43s58 15 92 15zM497.999 1581c0 -75.333 37.333 -113 112 -113c34 0 61.333 9.83301 82 29.5s31 47.5 31 83.5s-10.333 63.833 -31 83.5s-48 29.5 -82 29.5
c-32.667 0 -59.5 -9.83301 -80.5 -29.5s-31.5 -47.5 -31.5 -83.5z" />
    <glyph glyph-name="AE" unicode="&#xc6;" 
d="M0 0l338 1462h872v-164h-477v-452h438v-162h-438v-520h477v-164h-653v453h-289l-96 -453h-172zM557 618v680h-106l-146 -680h252z" />
    <glyph glyph-name="Ccedilla" unicode="&#xc7;" 
d="M797 1483c146 0 273.668 -28.668 383.001 -86.001l-78 -156c-102.667 52 -204.334 78 -305.001 78c-84 0 -155.833 -16.667 -215.5 -50s-108.334 -77.5 -146.001 -132.5s-65.334 -117.667 -83.001 -188s-26.5 -142.833 -26.5 -217.5
c0 -195.333 39.333 -342.166 118 -440.499s196.334 -147.5 353.001 -147.5c90 0 199 19.333 327 58v-162c-100 -39.333 -219.333 -59 -358 -59c-76.667 0 -145.667 8.83301 -207 26.5s-115.666 42.667 -162.999 75s-87.833 71.333 -121.5 117
s-61.334 96.334 -83.001 152.001s-37.5 115.834 -47.5 180.501s-15 132 -15 202c0 105.333 13.667 203.666 41 294.999s68.833 170.666 124.5 237.999s125.334 120.333 209.001 159s181.5 58 293.5 58zM508.001 -375.001c22 -4 48.667 -6 80 -6c100.667 0 151 30.667 151 92
c0 49.333 -57.333 87 -172 113l91 176h120l-57 -115c106.667 -24.667 160 -82 160 -172c0 -136.667 -97 -205 -291 -205c-22.667 0 -50 3 -82 9v108z" />
    <glyph glyph-name="Egrave" unicode="&#xc8;" 
d="M1059 1462v-164h-656v-452h617v-162h-617v-520h656v-164h-842v1462h842zM564 1907c56.667 -116 114.667 -216.333 174 -301v-27h-121c-56 48 -106.333 97 -151 147s-85 103.333 -121 160v21h219z" />
    <glyph glyph-name="Eacute" unicode="&#xc9;" 
d="M1059 1462v-164h-656v-452h617v-162h-617v-520h656v-164h-842v1462h842zM481 1579v27.002c63.333 92 121.333 192.333 174 301h219v-21c-38 -58.667 -79.333 -113.334 -124 -164.001s-94 -98.334 -148 -143.001h-121z" />
    <glyph glyph-name="Ecircumflex" unicode="&#xca;" 
d="M1059 1462v-164h-656v-452h617v-162h-617v-520h656v-164h-842v1462h842zM318 1579l-0.000976562 27l27.5 31l31.5 36c48 52 86.167 97.333 114.5 136s48.833 71.334 61.5 98.001h193c12.667 -26.667 33.667 -59.334 63 -98.001s67 -84 113 -136l59 -67v-27h-121
c-28 18.667 -59.5 43.334 -94.5 74.001s-73.833 68 -116.5 112c-44.667 -46 -84.667 -84.333 -120 -115s-65.666 -54.334 -90.999 -71.001h-120z" />
    <glyph glyph-name="Edieresis" unicode="&#xcb;" 
d="M1059 1462v-164h-656v-452h617v-162h-617v-520h656v-164h-842v1462h842zM826 1855c16 0 31 -3.16699 45 -9.5s26.333 -15 37 -26s19 -23.833 25 -38.5s9 -30.667 9 -48s-3 -33.5 -9 -48.5s-14.333 -28 -25 -39s-23 -19.667 -37 -26s-29 -9.5 -45 -9.5
s-31 3.16699 -45 9.5s-26.333 15 -37 26s-19 24 -25 39s-9 31.167 -9 48.5s3 33.333 9 48s14.333 27.5 25 38.5s23 19.667 37 26s29 9.5 45 9.5zM451 1855c16 0 31 -3.16699 45 -9.5s26.333 -15 37 -26s19 -23.833 25 -38.5s9 -30.667 9 -48s-3 -33.5 -9 -48.5
s-14.333 -28 -25 -39s-23 -19.667 -37 -26s-29 -9.5 -45 -9.5s-31 3.16699 -45 9.5s-26.333 15 -37 26s-19 24 -25 39s-9 31.167 -9 48.5s3 33.333 9 48s14.333 27.5 25 38.5s23 19.667 37 26s29 9.5 45 9.5z" />
    <glyph glyph-name="Igrave" unicode="&#xcc;" 
d="M225 1462h776v-143h-294v-1176h294v-143h-776v143h295v1176h-295v143zM529 1907c56.667 -116 114.667 -216.333 174 -301v-27h-121c-56 48 -106.333 97 -151 147s-85 103.333 -121 160v21h219z" />
    <glyph glyph-name="Iacute" unicode="&#xcd;" 
d="M225 1462h776v-143h-294v-1176h294v-143h-776v143h295v1176h-295v143zM537 1579v27.002c63.333 92 121.333 192.333 174 301h219v-21c-38 -58.667 -79.333 -113.334 -124 -164.001s-94 -98.334 -148 -143.001h-121z" />
    <glyph glyph-name="Icircumflex" unicode="&#xce;" 
d="M225 1462h776v-143h-294v-1176h294v-143h-776v143h295v1176h-295v143zM283 1579l-0.000976562 27l27.5 31l31.5 36c48 52 86.167 97.333 114.5 136s48.833 71.334 61.5 98.001h193c12.667 -26.667 33.667 -59.334 63 -98.001s67 -84 113 -136l59 -67v-27h-121
c-28 18.667 -59.5 43.334 -94.5 74.001s-73.833 68 -116.5 112c-44.667 -46 -84.667 -84.333 -120 -115s-65.666 -54.334 -90.999 -71.001h-120z" />
    <glyph glyph-name="Idieresis" unicode="&#xcf;" 
d="M225 1462h776v-143h-294v-1176h294v-143h-776v143h295v1176h-295v143zM803 1855c16 0 31 -3.16699 45 -9.5s26.333 -15 37 -26s19 -23.833 25 -38.5s9 -30.667 9 -48s-3 -33.5 -9 -48.5s-14.333 -28 -25 -39s-23 -19.667 -37 -26s-29 -9.5 -45 -9.5s-31 3.16699 -45 9.5
s-26.333 15 -37 26s-19 24 -25 39s-9 31.167 -9 48.5s3 33.333 9 48s14.333 27.5 25 38.5s23 19.667 37 26s29 9.5 45 9.5zM428 1855c16 0 31 -3.16699 45 -9.5s26.333 -15 37 -26s19 -23.833 25 -38.5s9 -30.667 9 -48s-3 -33.5 -9 -48.5s-14.333 -28 -25 -39
s-23 -19.667 -37 -26s-29 -9.5 -45 -9.5s-31 3.16699 -45 9.5s-26.333 15 -37 26s-19 24 -25 39s-9 31.167 -9 48.5s3 33.333 9 48s14.333 27.5 25 38.5s23 19.667 37 26s29 9.5 45 9.5z" />
    <glyph glyph-name="Eth" unicode="&#xd0;" 
d="M135 821l-0.000976562 641h342c111.333 0 208.833 -17.167 292.5 -51.5s153.5 -83 209.5 -146s98 -138.5 126 -226.5s42 -185.667 42 -293c0 -120 -15.5 -226.333 -46.5 -319s-76.5 -170.5 -136.5 -233.5s-134.167 -110.833 -222.5 -143.5s-190.166 -49 -305.499 -49
h-301v659h-135v162h135zM701.999 821v-162h-380v-499h96c354.667 0 532 193 532 579c0 376 -164.333 564 -493 564h-135v-482h380z" />
    <glyph glyph-name="Ntilde" unicode="&#xd1;" 
d="M135 1462h213l578 -1204h6c-4.66699 102.667 -8.16699 187.167 -10.5 253.5s-3.5 116.5 -3.5 150.5v800h174v-1462h-215l-580 1210h-8c12 -184.667 18 -323.667 18 -417v-793h-172v1462zM258 1579c17.333 176 87.6689 263.999 211.002 263.999
c38 0 91.667 -18.667 161 -56s114.666 -56 135.999 -56c54 0 89.333 38 106 114h105c-18 -176 -88.333 -264 -211 -264c-19.333 0 -41.833 4.83301 -67.5 14.5s-55.5 23.834 -89.5 42.501c-67.333 37.333 -114 56 -140 56c-54.667 0 -90.334 -38.333 -107.001 -115h-104z
" />
    <glyph glyph-name="Ograve" unicode="&#xd2;" 
d="M84 735c0 500 177.999 750.001 533.999 750.001c85.333 0 160.833 -16.667 226.5 -50s121 -82 166 -146s79 -142.667 102 -236s34.5 -200 34.5 -320c0 -58.667 -3.33301 -118 -10 -178s-18 -117.833 -34 -173.5s-37.167 -107.834 -63.5 -156.501
s-59.166 -91.167 -98.499 -127.5s-85.833 -65 -139.5 -86s-115.5 -31.5 -185.5 -31.5c-354.667 0 -532 251.667 -532 755zM615.999 143.001c115.333 0 199.833 48.333 253.5 145s80.5 245 80.5 445c0 202 -27.167 350.5 -81.5 445.5s-137.833 142.5 -250.5 142.5
c-224.667 0 -337 -196 -337 -588c0 -393.333 111.667 -590 335 -590zM555.999 1907c56.667 -116 114.667 -216.333 174 -301v-27h-121c-56 48 -106.333 97 -151 147s-85 103.333 -121 160v21h219z" />
    <glyph glyph-name="Oacute" unicode="&#xd3;" 
d="M84 735c0 500 177.999 750.001 533.999 750.001c85.333 0 160.833 -16.667 226.5 -50s121 -82 166 -146s79 -142.667 102 -236s34.5 -200 34.5 -320c0 -58.667 -3.33301 -118 -10 -178s-18 -117.833 -34 -173.5s-37.167 -107.834 -63.5 -156.501
s-59.166 -91.167 -98.499 -127.5s-85.833 -65 -139.5 -86s-115.5 -31.5 -185.5 -31.5c-354.667 0 -532 251.667 -532 755zM615.999 143.001c115.333 0 199.833 48.333 253.5 145s80.5 245 80.5 445c0 202 -27.167 350.5 -81.5 445.5s-137.833 142.5 -250.5 142.5
c-224.667 0 -337 -196 -337 -588c0 -393.333 111.667 -590 335 -590zM507.999 1579v27.002c63.333 92 121.333 192.333 174 301h219v-21c-38 -58.667 -79.333 -113.334 -124 -164.001s-94 -98.334 -148 -143.001h-121z" />
    <glyph glyph-name="Ocircumflex" unicode="&#xd4;" 
d="M84 735c0 500 177.999 750.001 533.999 750.001c85.333 0 160.833 -16.667 226.5 -50s121 -82 166 -146s79 -142.667 102 -236s34.5 -200 34.5 -320c0 -58.667 -3.33301 -118 -10 -178s-18 -117.833 -34 -173.5s-37.167 -107.834 -63.5 -156.501
s-59.166 -91.167 -98.499 -127.5s-85.833 -65 -139.5 -86s-115.5 -31.5 -185.5 -31.5c-354.667 0 -532 251.667 -532 755zM615.999 143.001c115.333 0 199.833 48.333 253.5 145s80.5 245 80.5 445c0 202 -27.167 350.5 -81.5 445.5s-137.833 142.5 -250.5 142.5
c-224.667 0 -337 -196 -337 -588c0 -393.333 111.667 -590 335 -590zM282.999 1579l-0.000976562 27l27.5 31l31.5 36c48 52 86.167 97.333 114.5 136s48.833 71.334 61.5 98.001h193c12.667 -26.667 33.667 -59.334 63 -98.001s67 -84 113 -136l59 -67v-27h-121
c-28 18.667 -59.5 43.334 -94.5 74.001s-73.833 68 -116.5 112c-44.667 -46 -84.667 -84.333 -120 -115s-65.666 -54.334 -90.999 -71.001h-120z" />
    <glyph glyph-name="Otilde" unicode="&#xd5;" 
d="M84 735c0 500 177.999 750.001 533.999 750.001c85.333 0 160.833 -16.667 226.5 -50s121 -82 166 -146s79 -142.667 102 -236s34.5 -200 34.5 -320c0 -58.667 -3.33301 -118 -10 -178s-18 -117.833 -34 -173.5s-37.167 -107.834 -63.5 -156.501
s-59.166 -91.167 -98.499 -127.5s-85.833 -65 -139.5 -86s-115.5 -31.5 -185.5 -31.5c-354.667 0 -532 251.667 -532 755zM615.999 143.001c115.333 0 199.833 48.333 253.5 145s80.5 245 80.5 445c0 202 -27.167 350.5 -81.5 445.5s-137.833 142.5 -250.5 142.5
c-224.667 0 -337 -196 -337 -588c0 -393.333 111.667 -590 335 -590zM261.999 1579c17.333 176 87.6689 263.999 211.002 263.999c38 0 91.667 -18.667 161 -56s114.666 -56 135.999 -56c54 0 89.333 38 106 114h105c-18 -176 -88.333 -264 -211 -264
c-19.333 0 -41.833 4.83301 -67.5 14.5s-55.5 23.834 -89.5 42.501c-67.333 37.333 -114 56 -140 56c-54.667 0 -90.334 -38.333 -107.001 -115h-104z" />
    <glyph glyph-name="Odieresis" unicode="&#xd6;" 
d="M84 735c0 500 177.999 750.001 533.999 750.001c85.333 0 160.833 -16.667 226.5 -50s121 -82 166 -146s79 -142.667 102 -236s34.5 -200 34.5 -320c0 -58.667 -3.33301 -118 -10 -178s-18 -117.833 -34 -173.5s-37.167 -107.834 -63.5 -156.501
s-59.166 -91.167 -98.499 -127.5s-85.833 -65 -139.5 -86s-115.5 -31.5 -185.5 -31.5c-354.667 0 -532 251.667 -532 755zM615.999 143.001c115.333 0 199.833 48.333 253.5 145s80.5 245 80.5 445c0 202 -27.167 350.5 -81.5 445.5s-137.833 142.5 -250.5 142.5
c-224.667 0 -337 -196 -337 -588c0 -393.333 111.667 -590 335 -590zM802.999 1855c16 0 31 -3.16699 45 -9.5s26.333 -15 37 -26s19 -23.833 25 -38.5s9 -30.667 9 -48s-3 -33.5 -9 -48.5s-14.333 -28 -25 -39s-23 -19.667 -37 -26s-29 -9.5 -45 -9.5s-31 3.16699 -45 9.5
s-26.333 15 -37 26s-19 24 -25 39s-9 31.167 -9 48.5s3 33.333 9 48s14.333 27.5 25 38.5s23 19.667 37 26s29 9.5 45 9.5zM427.999 1855c16 0 31 -3.16699 45 -9.5s26.333 -15 37 -26s19 -23.833 25 -38.5s9 -30.667 9 -48s-3 -33.5 -9 -48.5s-14.333 -28 -25 -39
s-23 -19.667 -37 -26s-29 -9.5 -45 -9.5s-31 3.16699 -45 9.5s-26.333 15 -37 26s-19 24 -25 39s-9 31.167 -9 48.5s3 33.333 9 48s14.333 27.5 25 38.5s23 19.667 37 26s29 9.5 45 9.5z" />
    <glyph glyph-name="multiply" unicode="&#xd7;" 
d="M508 723l-318 319l105 105l317 -318l322 318l104 -103l-321 -321l319 -320l-102 -102l-322 317l-317 -315l-102 103z" />
    <glyph glyph-name="Oslash" unicode="&#xd8;" 
d="M80 2l120.999 197.001c-78 123.333 -117 302 -117 536c0 500 178 750 534 750c124 0 227.333 -35 310 -105l92 152l137 -78l-125 -201c76.667 -124.667 115 -298 115 -520c0 -58.667 -3.33301 -118 -10 -178s-18 -117.833 -34 -173.5s-37.167 -107.834 -63.5 -156.501
s-59.166 -91.167 -98.499 -127.5s-85.833 -65 -139.5 -86s-115.5 -31.5 -185.5 -31.5c-126 0 -228.333 31.333 -307 94l-92 -150zM318.999 391.001l515 836c-52.667 62.667 -124.667 94 -216 94c-224.667 0 -337 -196 -337 -588c0 -138 12.667 -252 38 -342z
M402.999 229.001c53.333 -57.333 124.333 -86 213 -86c115.333 0 199.833 48.333 253.5 145s80.5 245 80.5 445c0 136.667 -11.667 246 -35 328z" />
    <glyph glyph-name="Ugrave" unicode="&#xd9;" 
d="M125 520v942h186v-932c0 -258 102.333 -387 307 -387c196.667 0 296.667 129.667 300 389v932h186v-948c0 -173.333 -42 -306 -126 -398s-207.333 -138 -370 -138c-322 0 -483 180 -483 540zM568 1907c56.667 -116 114.667 -216.333 174 -301v-27h-121
c-56 48 -106.333 97 -151 147s-85 103.333 -121 160v21h219z" />
    <glyph glyph-name="Uacute" unicode="&#xda;" 
d="M125 520v942h186v-932c0 -258 102.333 -387 307 -387c196.667 0 296.667 129.667 300 389v932h186v-948c0 -173.333 -42 -306 -126 -398s-207.333 -138 -370 -138c-322 0 -483 180 -483 540zM494 1579v27.002c63.333 92 121.333 192.333 174 301h219v-21
c-38 -58.667 -79.333 -113.334 -124 -164.001s-94 -98.334 -148 -143.001h-121z" />
    <glyph glyph-name="Ucircumflex" unicode="&#xdb;" 
d="M125 520v942h186v-932c0 -258 102.333 -387 307 -387c196.667 0 296.667 129.667 300 389v932h186v-948c0 -173.333 -42 -306 -126 -398s-207.333 -138 -370 -138c-322 0 -483 180 -483 540zM283 1579l-0.000976562 27l27.5 31l31.5 36c48 52 86.167 97.333 114.5 136
s48.833 71.334 61.5 98.001h193c12.667 -26.667 33.667 -59.334 63 -98.001s67 -84 113 -136l59 -67v-27h-121c-28 18.667 -59.5 43.334 -94.5 74.001s-73.833 68 -116.5 112c-44.667 -46 -84.667 -84.333 -120 -115s-65.666 -54.334 -90.999 -71.001h-120z" />
    <glyph glyph-name="Udieresis" unicode="&#xdc;" 
d="M125 520v942h186v-932c0 -258 102.333 -387 307 -387c196.667 0 296.667 129.667 300 389v932h186v-948c0 -173.333 -42 -306 -126 -398s-207.333 -138 -370 -138c-322 0 -483 180 -483 540zM803 1855c16 0 31 -3.16699 45 -9.5s26.333 -15 37 -26s19 -23.833 25 -38.5
s9 -30.667 9 -48s-3 -33.5 -9 -48.5s-14.333 -28 -25 -39s-23 -19.667 -37 -26s-29 -9.5 -45 -9.5s-31 3.16699 -45 9.5s-26.333 15 -37 26s-19 24 -25 39s-9 31.167 -9 48.5s3 33.333 9 48s14.333 27.5 25 38.5s23 19.667 37 26s29 9.5 45 9.5zM428 1855
c16 0 31 -3.16699 45 -9.5s26.333 -15 37 -26s19 -23.833 25 -38.5s9 -30.667 9 -48s-3 -33.5 -9 -48.5s-14.333 -28 -25 -39s-23 -19.667 -37 -26s-29 -9.5 -45 -9.5s-31 3.16699 -45 9.5s-26.333 15 -37 26s-19 24 -25 39s-9 31.167 -9 48.5s3 33.333 9 48
s14.333 27.5 25 38.5s23 19.667 37 26s29 9.5 45 9.5z" />
    <glyph glyph-name="Yacute" unicode="&#xdd;" 
d="M33 1462h203l376 -739l381 739h201l-487 -893v-569h-187v559zM494 1579v27.002c63.333 92 121.333 192.333 174 301h219v-21c-38 -58.667 -79.333 -113.334 -124 -164.001s-94 -98.334 -148 -143.001h-121z" />
    <glyph glyph-name="Thorn" unicode="&#xde;" 
d="M362 1462v-251.999h218c342.667 0 514 -142.667 514 -428c0 -72.667 -11.667 -137.834 -35 -195.501s-57.833 -106.5 -103.5 -146.5s-102.167 -70.5 -169.5 -91.5s-145 -31.5 -233 -31.5h-191v-317h-186v1462h186zM532 475.001c66 0 122.331 5.83203 168.998 17.499
s84.834 29.834 114.501 54.501s51.334 55.667 65.001 93s20.5 81.333 20.5 132c0 186 -112.667 279 -338 279h-201v-576h170z" />
    <glyph glyph-name="germandbls" unicode="&#xdf;" 
d="M164 1200c0 244.667 141.334 367.002 424.001 367.002c64.667 0 122.5 -6.83301 173.5 -20.5s94 -33.5 129 -59.5s61.833 -58 80.5 -96s28 -81.667 28 -131c0 -88 -44.333 -171 -133 -249c-28 -24.667 -50.667 -45.834 -68 -63.501l-40 -41.5
c-16.667 -18.667 -25 -40 -25 -64c0 -24.667 9.66699 -47.667 29 -69c9.33301 -10 26.666 -24.333 51.999 -43s58.333 -41.334 99 -68.001c34 -22 65.5 -44.5 94.5 -67.5s54.167 -48.167 75.5 -75.5s38 -57.666 50 -90.999s18 -71.666 18 -114.999
c0 -110 -32.833 -193 -98.5 -249s-160.5 -84 -284.5 -84c-121.333 0 -217.666 23 -288.999 69v166c95.333 -57.333 187.666 -86 276.999 -86c142 0 213 58 213 174c0 54 -15 98 -45 132c-15.333 17.333 -35 35 -59 53s-52.333 37.667 -85 59
c-85.333 54.667 -143 101 -173 139c-33.333 41.333 -50 90.666 -50 147.999c0 78 43 152.333 129 223c86 71.333 129 136.666 129 195.999c0 109.333 -75.667 164 -227 164c-161.333 0 -242 -71.667 -242 -215v-1202h-182v1200z" />
    <glyph glyph-name="agrave" unicode="&#xe0;" 
d="M135 307c0 220 170 336 510 348l203 7v69c0 157.333 -81.333 236 -244 236c-100.667 0 -210 -27.333 -328 -82l-63 137c131.333 64 259 96 383 96c76 0 141 -7 195 -21s98.5 -36 133.5 -66s60.667 -68 77 -114s24.5 -101 24.5 -165v-752h-131l-37 152h-8
c-26 -32.667 -52 -60 -78 -82s-53.5 -39.667 -82.5 -53s-60.333 -22.833 -94 -28.5s-71.167 -8.5 -112.5 -8.5c-54 0 -102.5 7.33301 -145.5 22s-79.5 36 -109.5 64s-53 62.167 -69 102.5s-24 86.5 -24 138.5zM324 305c0 -118.667 66.668 -178 200.001 -178
c49.333 0 93.833 7 133.5 21s73.5 34.167 101.5 60.5s49.5 58.833 64.5 97.5s22.5 82.667 22.5 132v99l-162 -7c-65.333 -2.66699 -120.833 -9 -166.5 -19s-82.834 -24.167 -111.501 -42.5s-49.5 -41 -62.5 -68s-19.5 -58.833 -19.5 -95.5zM552.001 1569
c56.667 -116 114.667 -216.333 174 -301v-27h-121c-56 48 -106.333 97 -151 147s-85 103.333 -121 160v21h219z" />
    <glyph glyph-name="aacute" unicode="&#xe1;" 
d="M135 307c0 220 170 336 510 348l203 7v69c0 157.333 -81.333 236 -244 236c-100.667 0 -210 -27.333 -328 -82l-63 137c131.333 64 259 96 383 96c76 0 141 -7 195 -21s98.5 -36 133.5 -66s60.667 -68 77 -114s24.5 -101 24.5 -165v-752h-131l-37 152h-8
c-26 -32.667 -52 -60 -78 -82s-53.5 -39.667 -82.5 -53s-60.333 -22.833 -94 -28.5s-71.167 -8.5 -112.5 -8.5c-54 0 -102.5 7.33301 -145.5 22s-79.5 36 -109.5 64s-53 62.167 -69 102.5s-24 86.5 -24 138.5zM324 305c0 -118.667 66.668 -178 200.001 -178
c49.333 0 93.833 7 133.5 21s73.5 34.167 101.5 60.5s49.5 58.833 64.5 97.5s22.5 82.667 22.5 132v99l-162 -7c-65.333 -2.66699 -120.833 -9 -166.5 -19s-82.834 -24.167 -111.501 -42.5s-49.5 -41 -62.5 -68s-19.5 -58.833 -19.5 -95.5zM502.001 1241v27.002
c63.333 92 121.333 192.333 174 301h219v-21c-38 -58.667 -79.333 -113.334 -124 -164.001s-94 -98.334 -148 -143.001h-121z" />
    <glyph glyph-name="acircumflex" unicode="&#xe2;" 
d="M135 307c0 220 170 336 510 348l203 7v69c0 157.333 -81.333 236 -244 236c-100.667 0 -210 -27.333 -328 -82l-63 137c131.333 64 259 96 383 96c76 0 141 -7 195 -21s98.5 -36 133.5 -66s60.667 -68 77 -114s24.5 -101 24.5 -165v-752h-131l-37 152h-8
c-26 -32.667 -52 -60 -78 -82s-53.5 -39.667 -82.5 -53s-60.333 -22.833 -94 -28.5s-71.167 -8.5 -112.5 -8.5c-54 0 -102.5 7.33301 -145.5 22s-79.5 36 -109.5 64s-53 62.167 -69 102.5s-24 86.5 -24 138.5zM324 305c0 -118.667 66.668 -178 200.001 -178
c49.333 0 93.833 7 133.5 21s73.5 34.167 101.5 60.5s49.5 58.833 64.5 97.5s22.5 82.667 22.5 132v99l-162 -7c-65.333 -2.66699 -120.833 -9 -166.5 -19s-82.834 -24.167 -111.501 -42.5s-49.5 -41 -62.5 -68s-19.5 -58.833 -19.5 -95.5zM291.001 1241l-0.000976562 27
l27.5 31l31.5 36c48 52 86.167 97.333 114.5 136s48.833 71.334 61.5 98.001h193c12.667 -26.667 33.667 -59.334 63 -98.001s67 -84 113 -136l59 -67v-27h-121c-28 18.667 -59.5 43.334 -94.5 74.001s-73.833 68 -116.5 112c-44.667 -46 -84.667 -84.333 -120 -115
s-65.666 -54.334 -90.999 -71.001h-120z" />
    <glyph glyph-name="atilde" unicode="&#xe3;" 
d="M135 307c0 220 170 336 510 348l203 7v69c0 157.333 -81.333 236 -244 236c-100.667 0 -210 -27.333 -328 -82l-63 137c131.333 64 259 96 383 96c76 0 141 -7 195 -21s98.5 -36 133.5 -66s60.667 -68 77 -114s24.5 -101 24.5 -165v-752h-131l-37 152h-8
c-26 -32.667 -52 -60 -78 -82s-53.5 -39.667 -82.5 -53s-60.333 -22.833 -94 -28.5s-71.167 -8.5 -112.5 -8.5c-54 0 -102.5 7.33301 -145.5 22s-79.5 36 -109.5 64s-53 62.167 -69 102.5s-24 86.5 -24 138.5zM324 305c0 -118.667 66.668 -178 200.001 -178
c49.333 0 93.833 7 133.5 21s73.5 34.167 101.5 60.5s49.5 58.833 64.5 97.5s22.5 82.667 22.5 132v99l-162 -7c-65.333 -2.66699 -120.833 -9 -166.5 -19s-82.834 -24.167 -111.501 -42.5s-49.5 -41 -62.5 -68s-19.5 -58.833 -19.5 -95.5zM264.001 1241
c17.333 176 87.6689 263.999 211.002 263.999c38 0 91.667 -18.667 161 -56s114.666 -56 135.999 -56c54 0 89.333 38 106 114h105c-18 -176 -88.333 -264 -211 -264c-19.333 0 -41.833 4.83301 -67.5 14.5s-55.5 23.834 -89.5 42.501c-67.333 37.333 -114 56 -140 56
c-54.667 0 -90.334 -38.333 -107.001 -115h-104z" />
    <glyph glyph-name="adieresis" unicode="&#xe4;" 
d="M135 307c0 220 170 336 510 348l203 7v69c0 157.333 -81.333 236 -244 236c-100.667 0 -210 -27.333 -328 -82l-63 137c131.333 64 259 96 383 96c76 0 141 -7 195 -21s98.5 -36 133.5 -66s60.667 -68 77 -114s24.5 -101 24.5 -165v-752h-131l-37 152h-8
c-26 -32.667 -52 -60 -78 -82s-53.5 -39.667 -82.5 -53s-60.333 -22.833 -94 -28.5s-71.167 -8.5 -112.5 -8.5c-54 0 -102.5 7.33301 -145.5 22s-79.5 36 -109.5 64s-53 62.167 -69 102.5s-24 86.5 -24 138.5zM324 305c0 -118.667 66.668 -178 200.001 -178
c49.333 0 93.833 7 133.5 21s73.5 34.167 101.5 60.5s49.5 58.833 64.5 97.5s22.5 82.667 22.5 132v99l-162 -7c-65.333 -2.66699 -120.833 -9 -166.5 -19s-82.834 -24.167 -111.501 -42.5s-49.5 -41 -62.5 -68s-19.5 -58.833 -19.5 -95.5zM813.001 1517
c16 0 31 -3.16699 45 -9.5s26.333 -15 37 -26s19 -23.833 25 -38.5s9 -30.667 9 -48s-3 -33.5 -9 -48.5s-14.333 -28 -25 -39s-23 -19.667 -37 -26s-29 -9.5 -45 -9.5s-31 3.16699 -45 9.5s-26.333 15 -37 26s-19 24 -25 39s-9 31.167 -9 48.5s3 33.333 9 48
s14.333 27.5 25 38.5s23 19.667 37 26s29 9.5 45 9.5zM438.001 1517c16 0 31 -3.16699 45 -9.5s26.333 -15 37 -26s19 -23.833 25 -38.5s9 -30.667 9 -48s-3 -33.5 -9 -48.5s-14.333 -28 -25 -39s-23 -19.667 -37 -26s-29 -9.5 -45 -9.5s-31 3.16699 -45 9.5
s-26.333 15 -37 26s-19 24 -25 39s-9 31.167 -9 48.5s3 33.333 9 48s14.333 27.5 25 38.5s23 19.667 37 26s29 9.5 45 9.5z" />
    <glyph glyph-name="aring" unicode="&#xe5;" 
d="M135 307c0 220 170 336 510 348l203 7v69c0 157.333 -81.333 236 -244 236c-100.667 0 -210 -27.333 -328 -82l-63 137c131.333 64 259 96 383 96c76 0 141 -7 195 -21s98.5 -36 133.5 -66s60.667 -68 77 -114s24.5 -101 24.5 -165v-752h-131l-37 152h-8
c-26 -32.667 -52 -60 -78 -82s-53.5 -39.667 -82.5 -53s-60.333 -22.833 -94 -28.5s-71.167 -8.5 -112.5 -8.5c-54 0 -102.5 7.33301 -145.5 22s-79.5 36 -109.5 64s-53 62.167 -69 102.5s-24 86.5 -24 138.5zM324 305c0 -118.667 66.668 -178 200.001 -178
c49.333 0 93.833 7 133.5 21s73.5 34.167 101.5 60.5s49.5 58.833 64.5 97.5s22.5 82.667 22.5 132v99l-162 -7c-65.333 -2.66699 -120.833 -9 -166.5 -19s-82.834 -24.167 -111.501 -42.5s-49.5 -41 -62.5 -68s-19.5 -58.833 -19.5 -95.5zM609.001 1671
c32 0 61.999 -4.83496 89.999 -14.502s52.333 -23.667 73 -42s37 -40.666 49 -66.999s18 -56.166 18 -89.499c0 -32.667 -5.5 -62.334 -16.5 -89.001s-26.667 -49.5 -47 -68.5s-44.666 -33.667 -72.999 -44s-59.5 -15.5 -93.5 -15.5s-64.667 5 -92 15
s-50.833 24.333 -70.5 43s-34.667 41.334 -45 68.001s-15.5 56.334 -15.5 89.001c0 33.333 5.16699 63.166 15.5 89.499s25.333 48.833 45 67.5s43.167 33 70.5 43s58 15 92 15zM497 1456c0 -75.333 37.333 -113 112 -113c34 0 61.333 9.83301 82 29.5s31 47.5 31 83.5
s-10.333 63.833 -31 83.5s-48 29.5 -82 29.5c-32.667 0 -59.5 -9.83301 -80.5 -29.5s-31.5 -47.5 -31.5 -83.5z" />
    <glyph glyph-name="ae" unicode="&#xe6;" 
d="M45 307c0 222 109.331 337.999 327.998 347.999l149 7v69c0 157.333 -46.333 236 -139 236c-72 0 -142.333 -27.333 -211 -82l-57 137c87.333 64 179.333 96 276 96c125.333 0 207.333 -59.333 246 -178c52 118.667 132 178 240 178c92 0 166.333 -45 223 -135
c57.333 -91.333 86 -210 86 -356v-113h-496c2 -128 24.333 -222.5 67 -283.5s99 -91.5 169 -91.5c74.667 0 152.334 25.333 233.001 76v-162c-70.667 -48.667 -151 -73 -241 -73c-148 0 -253.333 76.333 -316 229c-70 -152.667 -170.333 -229 -301 -229
c-38 0 -72.833 7.5 -104.5 22.5s-58.667 36.5 -81 64.5s-39.666 62.333 -51.999 103s-18.5 86.334 -18.5 137.001zM214.998 304.999c0 -56.667 10.666 -100.502 31.999 -131.502s50.333 -46.5 87 -46.5c27.333 0 52.333 7 75 21s42.334 34.333 59.001 61
s29.5 59.334 38.5 98.001s13.5 82.334 13.5 131.001v99l-88 -7c-144.667 -12 -217 -87 -217 -225zM1010 661.997c0 47.333 -3.5 89.667 -10.5 127s-17 69.333 -30 96s-28.833 47 -47.5 61s-40 21 -64 21c-46 0 -83.833 -25.5 -113.5 -76.5s-46.5 -127.167 -50.5 -228.5h316z
" />
    <glyph glyph-name="ccedilla" unicode="&#xe7;" 
d="M725 1118c116 0 228.001 -19.6689 336.001 -59.002l-62 -158c-100 38 -189.333 57 -268 57c-247.333 0 -371 -137.667 -371 -413c0 -270.667 120.333 -406 361 -406c102 0 209 20.667 321 62v-160c-86 -40.667 -195.667 -61 -329 -61c-86 0 -162.5 12.333 -229.5 37
s-123.5 60.834 -169.5 108.501s-81.167 106.5 -105.5 176.5s-36.5 150.333 -36.5 241c0 94 12.333 176.667 37 248s60.667 131.333 108 180s105.166 85.334 173.499 110.001s146.5 37 234.5 37zM477.001 -375.002c22 -4 48.667 -6 80 -6c100.667 0 151 30.667 151 92
c0 49.333 -57.333 87 -172 113l91 176h120l-57 -115c106.667 -24.667 160 -82 160 -172c0 -136.667 -97 -205 -291 -205c-22.667 0 -50 3 -82 9v108z" />
    <glyph glyph-name="egrave" unicode="&#xe8;" 
d="M269 963c90 103.333 210.665 154.999 361.998 154.999c74 0 139.833 -12.167 197.5 -36.5s106.334 -58.166 146.001 -101.499s69.834 -95 90.501 -155s31 -126 31 -198v-113h-774c5.33301 -250 120 -375 344 -375c132.667 0 256 25.333 370 76v-160
c-110.667 -50 -232 -75 -364 -75c-85.333 0 -161.5 13.5 -228.5 40.5s-123.5 65.167 -169.5 114.5s-81 108.5 -105 177.5s-36 145.167 -36 228.5c0 178 45.333 318.667 136 422zM898.998 661.999c0 203.333 -90.668 305 -272.001 305
c-183.333 0 -283.666 -101.667 -300.999 -305h573zM592.997 1569c56.667 -116 114.667 -216.333 174 -301v-27h-121c-56 48 -106.333 97 -151 147s-85 103.333 -121 160v21h219z" />
    <glyph glyph-name="eacute" unicode="&#xe9;" 
d="M269 963c90 103.333 210.665 154.999 361.998 154.999c74 0 139.833 -12.167 197.5 -36.5s106.334 -58.166 146.001 -101.499s69.834 -95 90.501 -155s31 -126 31 -198v-113h-774c5.33301 -250 120 -375 344 -375c132.667 0 256 25.333 370 76v-160
c-110.667 -50 -232 -75 -364 -75c-85.333 0 -161.5 13.5 -228.5 40.5s-123.5 65.167 -169.5 114.5s-81 108.5 -105 177.5s-36 145.167 -36 228.5c0 178 45.333 318.667 136 422zM898.998 661.999c0 203.333 -90.668 305 -272.001 305
c-183.333 0 -283.666 -101.667 -300.999 -305h573zM499.997 1241v27.002c63.333 92 121.333 192.333 174 301h219v-21c-38 -58.667 -79.333 -113.334 -124 -164.001s-94 -98.334 -148 -143.001h-121z" />
    <glyph glyph-name="ecircumflex" unicode="&#xea;" 
d="M269 963c90 103.333 210.665 154.999 361.998 154.999c74 0 139.833 -12.167 197.5 -36.5s106.334 -58.166 146.001 -101.499s69.834 -95 90.501 -155s31 -126 31 -198v-113h-774c5.33301 -250 120 -375 344 -375c132.667 0 256 25.333 370 76v-160
c-110.667 -50 -232 -75 -364 -75c-85.333 0 -161.5 13.5 -228.5 40.5s-123.5 65.167 -169.5 114.5s-81 108.5 -105 177.5s-36 145.167 -36 228.5c0 178 45.333 318.667 136 422zM898.998 661.999c0 203.333 -90.668 305 -272.001 305
c-183.333 0 -283.666 -101.667 -300.999 -305h573zM298.997 1241l-0.000976562 27l27.5 31l31.5 36c48 52 86.167 97.333 114.5 136s48.833 71.334 61.5 98.001h193c12.667 -26.667 33.667 -59.334 63 -98.001s67 -84 113 -136l59 -67v-27h-121
c-28 18.667 -59.5 43.334 -94.5 74.001s-73.833 68 -116.5 112c-44.667 -46 -84.667 -84.333 -120 -115s-65.666 -54.334 -90.999 -71.001h-120z" />
    <glyph glyph-name="edieresis" unicode="&#xeb;" 
d="M269 963c90 103.333 210.665 154.999 361.998 154.999c74 0 139.833 -12.167 197.5 -36.5s106.334 -58.166 146.001 -101.499s69.834 -95 90.501 -155s31 -126 31 -198v-113h-774c5.33301 -250 120 -375 344 -375c132.667 0 256 25.333 370 76v-160
c-110.667 -50 -232 -75 -364 -75c-85.333 0 -161.5 13.5 -228.5 40.5s-123.5 65.167 -169.5 114.5s-81 108.5 -105 177.5s-36 145.167 -36 228.5c0 178 45.333 318.667 136 422zM898.998 661.999c0 203.333 -90.668 305 -272.001 305
c-183.333 0 -283.666 -101.667 -300.999 -305h573zM818.997 1517c16 0 31 -3.16699 45 -9.5s26.333 -15 37 -26s19 -23.833 25 -38.5s9 -30.667 9 -48s-3 -33.5 -9 -48.5s-14.333 -28 -25 -39s-23 -19.667 -37 -26s-29 -9.5 -45 -9.5s-31 3.16699 -45 9.5s-26.333 15 -37 26
s-19 24 -25 39s-9 31.167 -9 48.5s3 33.333 9 48s14.333 27.5 25 38.5s23 19.667 37 26s29 9.5 45 9.5zM443.997 1517c16 0 31 -3.16699 45 -9.5s26.333 -15 37 -26s19 -23.833 25 -38.5s9 -30.667 9 -48s-3 -33.5 -9 -48.5s-14.333 -28 -25 -39s-23 -19.667 -37 -26
s-29 -9.5 -45 -9.5s-31 3.16699 -45 9.5s-26.333 15 -37 26s-19 24 -25 39s-9 31.167 -9 48.5s3 33.333 9 48s14.333 27.5 25 38.5s23 19.667 37 26s29 9.5 45 9.5z" />
    <glyph glyph-name="igrave" unicode="&#xec;" 
d="M272 1098h451v-774c0 -130 64.333 -195 193 -195c75.333 0 146.333 7 213 21v-138c-65.333 -21.333 -140.333 -32 -225 -32c-242 0 -363 114.667 -363 344v630h-269v144zM552 1569c56.667 -116 114.667 -216.333 174 -301v-27h-121c-56 48 -106.333 97 -151 147
s-85 103.333 -121 160v21h219z" />
    <glyph glyph-name="iacute" unicode="&#xed;" 
d="M272 1098h451v-774c0 -130 64.333 -195 193 -195c75.333 0 146.333 7 213 21v-138c-65.333 -21.333 -140.333 -32 -225 -32c-242 0 -363 114.667 -363 344v630h-269v144zM531 1241v27.002c63.333 92 121.333 192.333 174 301h219v-21
c-38 -58.667 -79.333 -113.334 -124 -164.001s-94 -98.334 -148 -143.001h-121z" />
    <glyph glyph-name="icircumflex" unicode="&#xee;" 
d="M272 1098h451v-774c0 -130 64.333 -195 193 -195c75.333 0 146.333 7 213 21v-138c-65.333 -21.333 -140.333 -32 -225 -32c-242 0 -363 114.667 -363 344v630h-269v144zM283 1241l-0.000976562 27l27.5 31l31.5 36c48 52 86.167 97.333 114.5 136
s48.833 71.334 61.5 98.001h193c12.667 -26.667 33.667 -59.334 63 -98.001s67 -84 113 -136l59 -67v-27h-121c-28 18.667 -59.5 43.334 -94.5 74.001s-73.833 68 -116.5 112c-44.667 -46 -84.667 -84.333 -120 -115s-65.666 -54.334 -90.999 -71.001h-120z" />
    <glyph glyph-name="idieresis" unicode="&#xef;" 
d="M272 1098h451v-774c0 -130 64.333 -195 193 -195c75.333 0 146.333 7 213 21v-138c-65.333 -21.333 -140.333 -32 -225 -32c-242 0 -363 114.667 -363 344v630h-269v144zM801 1517c16 0 31 -3.16699 45 -9.5s26.333 -15 37 -26s19 -23.833 25 -38.5s9 -30.667 9 -48
s-3 -33.5 -9 -48.5s-14.333 -28 -25 -39s-23 -19.667 -37 -26s-29 -9.5 -45 -9.5s-31 3.16699 -45 9.5s-26.333 15 -37 26s-19 24 -25 39s-9 31.167 -9 48.5s3 33.333 9 48s14.333 27.5 25 38.5s23 19.667 37 26s29 9.5 45 9.5zM426 1517c16 0 31 -3.16699 45 -9.5
s26.333 -15 37 -26s19 -23.833 25 -38.5s9 -30.667 9 -48s-3 -33.5 -9 -48.5s-14.333 -28 -25 -39s-23 -19.667 -37 -26s-29 -9.5 -45 -9.5s-31 3.16699 -45 9.5s-26.333 15 -37 26s-19 24 -25 39s-9 31.167 -9 48.5s3 33.333 9 48s14.333 27.5 25 38.5s23 19.667 37 26
s29 9.5 45 9.5z" />
    <glyph glyph-name="eth" unicode="&#xf0;" 
d="M135 477c0 72.667 9.50195 139.337 28.502 200.004s47.333 112.667 85 156s85 77.166 142 101.499s123.5 36.5 199.5 36.5c140 0 239.667 -39.667 299 -119l8 4c-39.333 151.333 -120 281.666 -242 390.999l-256 -153l-73 114l217 131l-95 62.5
c-28.667 18.333 -54.334 33.833 -77.001 46.5l69 123c48 -23.333 92.5 -47.5 133.5 -72.5s78.5 -50.167 112.5 -75.5l227 138l74 -113l-194 -117c200.667 -194 301 -446.667 301 -758c0 -77.333 -8.83301 -151.833 -26.5 -223.5s-45.834 -134.834 -84.501 -189.501
s-88.5 -98.334 -149.5 -131.001s-134.833 -49 -221.5 -49c-74.667 0 -141.5 12.167 -200.5 36.5s-109 58.5 -150 102.5s-72.333 96.5 -94 157.5s-32.5 127.833 -32.5 200.5zM616.002 131.003c102.667 0 176.5 33.167 221.5 99.5s67.5 164.833 67.5 295.5
c0 44 -6.83301 84.333 -20.5 121s-33 68 -58 94s-55.5 46.167 -91.5 60.5s-76.333 21.5 -121 21.5c-190.667 0 -286 -117.333 -286 -352c0 -226.667 96 -340 288 -340z" />
    <glyph glyph-name="ntilde" unicode="&#xf1;" 
d="M160 1098h147l27 -148h10c69.333 112 181.333 168 336 168c259.333 0 389 -133.667 389 -401v-717h-182v707c0 173.333 -79.333 260 -238 260c-204.667 0 -307 -132.667 -307 -398v-569h-182v1098zM260 1241c17.333 176 87.6689 263.999 211.002 263.999
c38 0 91.667 -18.667 161 -56s114.666 -56 135.999 -56c54 0 89.333 38 106 114h105c-18 -176 -88.333 -264 -211 -264c-19.333 0 -41.833 4.83301 -67.5 14.5s-55.5 23.834 -89.5 42.501c-67.333 37.333 -114 56 -140 56c-54.667 0 -90.334 -38.333 -107.001 -115h-104z
" />
    <glyph glyph-name="ograve" unicode="&#xf2;" 
d="M251 966c91.333 101.333 213.003 152.001 365.003 152.001c144.667 0 263.667 -51.667 357 -155c92.667 -102.667 139 -240 139 -412c0 -78.667 -10.333 -152.667 -31 -222s-51.834 -129.833 -93.501 -181.5s-93.834 -92.5 -156.501 -122.5s-136.334 -45 -221.001 -45
c-142.667 0 -261 52 -355 156c-93.333 103.333 -140 241.666 -140 414.999c0 176 45.333 314.333 136 415zM303.003 551.001c0 -280 103.667 -420 311 -420c206.667 0 310 140 310 420c0 277.333 -104 416 -312 416c-206 0 -309 -138.667 -309 -416zM597.003 1569
c56.667 -116 114.667 -216.333 174 -301v-27h-121c-56 48 -106.333 97 -151 147s-85 103.333 -121 160v21h219z" />
    <glyph glyph-name="oacute" unicode="&#xf3;" 
d="M251 966c91.333 101.333 213.003 152.001 365.003 152.001c144.667 0 263.667 -51.667 357 -155c92.667 -102.667 139 -240 139 -412c0 -78.667 -10.333 -152.667 -31 -222s-51.834 -129.833 -93.501 -181.5s-93.834 -92.5 -156.501 -122.5s-136.334 -45 -221.001 -45
c-142.667 0 -261 52 -355 156c-93.333 103.333 -140 241.666 -140 414.999c0 176 45.333 314.333 136 415zM303.003 551.001c0 -280 103.667 -420 311 -420c206.667 0 310 140 310 420c0 277.333 -104 416 -312 416c-206 0 -309 -138.667 -309 -416zM498.003 1241v27.002
c63.333 92 121.333 192.333 174 301h219v-21c-38 -58.667 -79.333 -113.334 -124 -164.001s-94 -98.334 -148 -143.001h-121z" />
    <glyph glyph-name="ocircumflex" unicode="&#xf4;" 
d="M251 966c91.333 101.333 213.003 152.001 365.003 152.001c144.667 0 263.667 -51.667 357 -155c92.667 -102.667 139 -240 139 -412c0 -78.667 -10.333 -152.667 -31 -222s-51.834 -129.833 -93.501 -181.5s-93.834 -92.5 -156.501 -122.5s-136.334 -45 -221.001 -45
c-142.667 0 -261 52 -355 156c-93.333 103.333 -140 241.666 -140 414.999c0 176 45.333 314.333 136 415zM303.003 551.001c0 -280 103.667 -420 311 -420c206.667 0 310 140 310 420c0 277.333 -104 416 -312 416c-206 0 -309 -138.667 -309 -416zM278.003 1241
l-0.000976562 27l27.5 31l31.5 36c48 52 86.167 97.333 114.5 136s48.833 71.334 61.5 98.001h193c12.667 -26.667 33.667 -59.334 63 -98.001s67 -84 113 -136l59 -67v-27h-121c-28 18.667 -59.5 43.334 -94.5 74.001s-73.833 68 -116.5 112
c-44.667 -46 -84.667 -84.333 -120 -115s-65.666 -54.334 -90.999 -71.001h-120z" />
    <glyph glyph-name="otilde" unicode="&#xf5;" 
d="M251 966c91.333 101.333 213.003 152.001 365.003 152.001c144.667 0 263.667 -51.667 357 -155c92.667 -102.667 139 -240 139 -412c0 -78.667 -10.333 -152.667 -31 -222s-51.834 -129.833 -93.501 -181.5s-93.834 -92.5 -156.501 -122.5s-136.334 -45 -221.001 -45
c-142.667 0 -261 52 -355 156c-93.333 103.333 -140 241.666 -140 414.999c0 176 45.333 314.333 136 415zM303.003 551.001c0 -280 103.667 -420 311 -420c206.667 0 310 140 310 420c0 277.333 -104 416 -312 416c-206 0 -309 -138.667 -309 -416zM254.003 1241
c17.333 176 87.6689 263.999 211.002 263.999c38 0 91.667 -18.667 161 -56s114.666 -56 135.999 -56c54 0 89.333 38 106 114h105c-18 -176 -88.333 -264 -211 -264c-19.333 0 -41.833 4.83301 -67.5 14.5s-55.5 23.834 -89.5 42.501c-67.333 37.333 -114 56 -140 56
c-54.667 0 -90.334 -38.333 -107.001 -115h-104z" />
    <glyph glyph-name="odieresis" unicode="&#xf6;" 
d="M251 966c91.333 101.333 213.003 152.001 365.003 152.001c144.667 0 263.667 -51.667 357 -155c92.667 -102.667 139 -240 139 -412c0 -78.667 -10.333 -152.667 -31 -222s-51.834 -129.833 -93.501 -181.5s-93.834 -92.5 -156.501 -122.5s-136.334 -45 -221.001 -45
c-142.667 0 -261 52 -355 156c-93.333 103.333 -140 241.666 -140 414.999c0 176 45.333 314.333 136 415zM303.003 551.001c0 -280 103.667 -420 311 -420c206.667 0 310 140 310 420c0 277.333 -104 416 -312 416c-206 0 -309 -138.667 -309 -416zM794.003 1517
c16 0 31 -3.16699 45 -9.5s26.333 -15 37 -26s19 -23.833 25 -38.5s9 -30.667 9 -48s-3 -33.5 -9 -48.5s-14.333 -28 -25 -39s-23 -19.667 -37 -26s-29 -9.5 -45 -9.5s-31 3.16699 -45 9.5s-26.333 15 -37 26s-19 24 -25 39s-9 31.167 -9 48.5s3 33.333 9 48
s14.333 27.5 25 38.5s23 19.667 37 26s29 9.5 45 9.5zM419.003 1517c16 0 31 -3.16699 45 -9.5s26.333 -15 37 -26s19 -23.833 25 -38.5s9 -30.667 9 -48s-3 -33.5 -9 -48.5s-14.333 -28 -25 -39s-23 -19.667 -37 -26s-29 -9.5 -45 -9.5s-31 3.16699 -45 9.5
s-26.333 15 -37 26s-19 24 -25 39s-9 31.167 -9 48.5s3 33.333 9 48s14.333 27.5 25 38.5s23 19.667 37 26s29 9.5 45 9.5z" />
    <glyph glyph-name="divide" unicode="&#xf7;" 
d="M152 797h923v-150h-923v150zM612 498c76.667 0 115 -41.667 115 -125s-38.333 -125 -115 -125c-76 0 -114 41.667 -114 125s38 125 114 125zM612 1196c76.667 0 115 -41.667 115 -125s-38.333 -125 -115 -125c-76 0 -114 41.667 -114 125s38 125 114 125z" />
    <glyph glyph-name="oslash" unicode="&#xf8;" 
d="M115 551c0 80 10 154.664 30 223.997s50.5 129.333 91.5 180s93 90.5 156 119.5s137.5 43.5 223.5 43.5c85.333 0 164 -19 236 -57l76 119l131 -84l-84 -131c91.333 -105.333 137 -243.333 137 -414c0 -80.667 -10 -155.667 -30 -225s-50.5 -129.666 -91.5 -180.999
s-93 -91.666 -156 -120.999s-137.833 -44 -224.5 -44c-86 0 -163.667 17.667 -233 53l-76 -119l-131 84l84 131c-92.667 104.667 -139 245.334 -139 422.001zM303 550.997c0 -120 17.666 -211.667 52.999 -275l406 656c-45.333 23.333 -97.333 35 -156 35
c-107.333 0 -184.666 -34.5 -231.999 -103.5s-71 -173.167 -71 -312.5zM466.999 163.997c41.333 -22 92.668 -33 154.001 -33c107.333 0 184.666 35.167 231.999 105.5s71 175.166 71 314.499c0 110.667 -17.333 199.334 -52 266.001z" />
    <glyph glyph-name="ugrave" unicode="&#xf9;" 
d="M160 381v717h182v-707c0 -173.333 78.667 -260 236 -260c54 0 100.333 7.33301 139 22s70.667 38 96 70s44 73.167 56 123.5s18 110.833 18 181.5v570h182v-1098h-147l-27 147h-10c-70 -111.333 -181.333 -167 -334 -167c-260.667 0 -391 133.667 -391 401zM560 1569
c56.667 -116 114.667 -216.333 174 -301v-27h-121c-56 48 -106.333 97 -151 147s-85 103.333 -121 160v21h219z" />
    <glyph glyph-name="uacute" unicode="&#xfa;" 
d="M160 381v717h182v-707c0 -173.333 78.667 -260 236 -260c54 0 100.333 7.33301 139 22s70.667 38 96 70s44 73.167 56 123.5s18 110.833 18 181.5v570h182v-1098h-147l-27 147h-10c-70 -111.333 -181.333 -167 -334 -167c-260.667 0 -391 133.667 -391 401zM500 1241
v27.002c63.333 92 121.333 192.333 174 301h219v-21c-38 -58.667 -79.333 -113.334 -124 -164.001s-94 -98.334 -148 -143.001h-121z" />
    <glyph glyph-name="ucircumflex" unicode="&#xfb;" 
d="M160 381v717h182v-707c0 -173.333 78.667 -260 236 -260c54 0 100.333 7.33301 139 22s70.667 38 96 70s44 73.167 56 123.5s18 110.833 18 181.5v570h182v-1098h-147l-27 147h-10c-70 -111.333 -181.333 -167 -334 -167c-260.667 0 -391 133.667 -391 401zM291 1241
l-0.000976562 27l27.5 31l31.5 36c48 52 86.167 97.333 114.5 136s48.833 71.334 61.5 98.001h193c12.667 -26.667 33.667 -59.334 63 -98.001s67 -84 113 -136l59 -67v-27h-121c-28 18.667 -59.5 43.334 -94.5 74.001s-73.833 68 -116.5 112
c-44.667 -46 -84.667 -84.333 -120 -115s-65.666 -54.334 -90.999 -71.001h-120z" />
    <glyph glyph-name="udieresis" unicode="&#xfc;" 
d="M160 381v717h182v-707c0 -173.333 78.667 -260 236 -260c54 0 100.333 7.33301 139 22s70.667 38 96 70s44 73.167 56 123.5s18 110.833 18 181.5v570h182v-1098h-147l-27 147h-10c-70 -111.333 -181.333 -167 -334 -167c-260.667 0 -391 133.667 -391 401zM803 1517
c16 0 31 -3.16699 45 -9.5s26.333 -15 37 -26s19 -23.833 25 -38.5s9 -30.667 9 -48s-3 -33.5 -9 -48.5s-14.333 -28 -25 -39s-23 -19.667 -37 -26s-29 -9.5 -45 -9.5s-31 3.16699 -45 9.5s-26.333 15 -37 26s-19 24 -25 39s-9 31.167 -9 48.5s3 33.333 9 48
s14.333 27.5 25 38.5s23 19.667 37 26s29 9.5 45 9.5zM428 1517c16 0 31 -3.16699 45 -9.5s26.333 -15 37 -26s19 -23.833 25 -38.5s9 -30.667 9 -48s-3 -33.5 -9 -48.5s-14.333 -28 -25 -39s-23 -19.667 -37 -26s-29 -9.5 -45 -9.5s-31 3.16699 -45 9.5s-26.333 15 -37 26
s-19 24 -25 39s-9 31.167 -9 48.5s3 33.333 9 48s14.333 27.5 25 38.5s23 19.667 37 26s29 9.5 45 9.5z" />
    <glyph glyph-name="yacute" unicode="&#xfd;" 
d="M270 1098l262.002 -654.001c28 -68.667 49.167 -127 63.5 -175s22.833 -86.333 25.5 -115h6c7.33301 38 18.666 81 33.999 129s34 102.333 56 163l239 652h189l-475 -1241c-22 -58.667 -46 -109.5 -72 -152.5s-54 -79.5 -84 -109.5c-58 -58 -140 -87 -246 -87
c-51.333 0 -107.333 5.66699 -168 17v145c41.333 -8 86.666 -12 135.999 -12c34.667 0 64.5 3.83301 89.5 11.5s47 19 66 34s35.5 33.833 49.5 56.5s27.333 49.334 40 80.001l58 150l-457 1108h188zM494.002 1241v27.002c63.333 92 121.333 192.333 174 301h219v-21
c-38 -58.667 -79.333 -113.334 -124 -164.001s-94 -98.334 -148 -143.001h-121z" />
    <glyph glyph-name="thorn" unicode="&#xfe;" 
d="M158 -492l0.000976562 2048h182v-458l-8 -148h8c73.333 112 180.666 168 321.999 168c81.333 0 149.5 -16.333 204.5 -49s99.167 -75.834 132.5 -129.501s57.166 -114.334 71.499 -182.001s21.5 -136.5 21.5 -206.5c0 -46 -3.16699 -92.167 -9.5 -138.5
s-16.5 -90.666 -30.5 -132.999s-32 -81.666 -54 -117.999s-49 -68 -81 -95s-69 -48.167 -111 -63.5s-90 -23 -144 -23c-137.333 0 -244.666 53 -321.999 159h-12c8 -86 12 -140 12 -162v-469h-182zM340.001 551c0 -76.667 5.99902 -141.669 17.999 -195.002
s29.333 -96 52 -128c46 -64.667 119.667 -97 221 -97c181.333 0 272 140.667 272 422c0 276 -91.333 414 -274 414c-50.667 0 -94 -7.16699 -130 -21.5s-65.5 -36.666 -88.5 -66.999s-40.167 -69.166 -51.5 -116.499s-17.666 -104 -18.999 -170v-41z" />
    <glyph glyph-name="ydieresis" unicode="&#xff;" 
d="M270 1098l262.002 -654.001c28 -68.667 49.167 -127 63.5 -175s22.833 -86.333 25.5 -115h6c7.33301 38 18.666 81 33.999 129s34 102.333 56 163l239 652h189l-475 -1241c-22 -58.667 -46 -109.5 -72 -152.5s-54 -79.5 -84 -109.5c-58 -58 -140 -87 -246 -87
c-51.333 0 -107.333 5.66699 -168 17v145c41.333 -8 86.666 -12 135.999 -12c34.667 0 64.5 3.83301 89.5 11.5s47 19 66 34s35.5 33.833 49.5 56.5s27.333 49.334 40 80.001l58 150l-457 1108h188zM809.002 1517c16 0 31 -3.16699 45 -9.5s26.333 -15 37 -26
s19 -23.833 25 -38.5s9 -30.667 9 -48s-3 -33.5 -9 -48.5s-14.333 -28 -25 -39s-23 -19.667 -37 -26s-29 -9.5 -45 -9.5s-31 3.16699 -45 9.5s-26.333 15 -37 26s-19 24 -25 39s-9 31.167 -9 48.5s3 33.333 9 48s14.333 27.5 25 38.5s23 19.667 37 26s29 9.5 45 9.5z
M434.002 1517c16 0 31 -3.16699 45 -9.5s26.333 -15 37 -26s19 -23.833 25 -38.5s9 -30.667 9 -48s-3 -33.5 -9 -48.5s-14.333 -28 -25 -39s-23 -19.667 -37 -26s-29 -9.5 -45 -9.5s-31 3.16699 -45 9.5s-26.333 15 -37 26s-19 24 -25 39s-9 31.167 -9 48.5s3 33.333 9 48
s14.333 27.5 25 38.5s23 19.667 37 26s29 9.5 45 9.5z" />
    <glyph glyph-name="Amacron" unicode="&#x100;" 
d="M516 1468h195l485 -1468h-192l-144 453h-491l-146 -453h-190zM422 618h385l-133 424c-13.333 42 -25.166 81.667 -35.499 119s-19.166 73 -26.499 107c-6.66699 -34 -13.834 -66 -21.501 -96s-15.834 -59 -24.501 -87zM326 1729h575v-150h-575v150z" />
    <glyph glyph-name="amacron" unicode="&#x101;" 
d="M135 307c0 220 170 336 510 348l203 7v69c0 157.333 -81.333 236 -244 236c-100.667 0 -210 -27.333 -328 -82l-63 137c131.333 64 259 96 383 96c76 0 141 -7 195 -21s98.5 -36 133.5 -66s60.667 -68 77 -114s24.5 -101 24.5 -165v-752h-131l-37 152h-8
c-26 -32.667 -52 -60 -78 -82s-53.5 -39.667 -82.5 -53s-60.333 -22.833 -94 -28.5s-71.167 -8.5 -112.5 -8.5c-54 0 -102.5 7.33301 -145.5 22s-79.5 36 -109.5 64s-53 62.167 -69 102.5s-24 86.5 -24 138.5zM324 305c0 -118.667 66.668 -178 200.001 -178
c49.333 0 93.833 7 133.5 21s73.5 34.167 101.5 60.5s49.5 58.833 64.5 97.5s22.5 82.667 22.5 132v99l-162 -7c-65.333 -2.66699 -120.833 -9 -166.5 -19s-82.834 -24.167 -111.501 -42.5s-49.5 -41 -62.5 -68s-19.5 -58.833 -19.5 -95.5zM317.001 1391h575v-150h-575v150z
" />
    <glyph glyph-name="Abreve" unicode="&#x102;" 
d="M516 1468h195l485 -1468h-192l-144 453h-491l-146 -453h-190zM422 618h385l-133 424c-13.333 42 -25.166 81.667 -35.499 119s-19.166 73 -26.499 107c-6.66699 -34 -13.834 -66 -21.501 -96s-15.834 -59 -24.501 -87zM419 1856c3.33301 -30 10.167 -53.333 20.5 -70
s23.666 -29 39.999 -37s35.5 -13 57.5 -15s46 -3 72 -3c120 0 183.667 41.667 191 125h112c-2.66699 -42 -11.667 -80.167 -27 -114.5s-36 -63.5 -62 -87.5s-57.167 -42.5 -93.5 -55.5s-77.166 -19.5 -122.499 -19.5c-187.333 0 -286.333 92.333 -297 277h109z" />
    <glyph glyph-name="abreve" unicode="&#x103;" 
d="M135 307c0 220 170 336 510 348l203 7v69c0 157.333 -81.333 236 -244 236c-100.667 0 -210 -27.333 -328 -82l-63 137c131.333 64 259 96 383 96c76 0 141 -7 195 -21s98.5 -36 133.5 -66s60.667 -68 77 -114s24.5 -101 24.5 -165v-752h-131l-37 152h-8
c-26 -32.667 -52 -60 -78 -82s-53.5 -39.667 -82.5 -53s-60.333 -22.833 -94 -28.5s-71.167 -8.5 -112.5 -8.5c-54 0 -102.5 7.33301 -145.5 22s-79.5 36 -109.5 64s-53 62.167 -69 102.5s-24 86.5 -24 138.5zM324 305c0 -118.667 66.668 -178 200.001 -178
c49.333 0 93.833 7 133.5 21s73.5 34.167 101.5 60.5s49.5 58.833 64.5 97.5s22.5 82.667 22.5 132v99l-162 -7c-65.333 -2.66699 -120.833 -9 -166.5 -19s-82.834 -24.167 -111.501 -42.5s-49.5 -41 -62.5 -68s-19.5 -58.833 -19.5 -95.5zM411.001 1518
c3.33301 -30 10.167 -53.333 20.5 -70s23.666 -29 39.999 -37s35.5 -13 57.5 -15s46 -3 72 -3c120 0 183.667 41.667 191 125h112c-2.66699 -42 -11.667 -80.167 -27 -114.5s-36 -63.5 -62 -87.5s-57.167 -42.5 -93.5 -55.5s-77.166 -19.5 -122.499 -19.5
c-187.333 0 -286.333 92.333 -297 277h109z" />
    <glyph glyph-name="Aogonek" unicode="&#x104;" 
d="M516 1468h195l485 -1468h-192l-144 453h-491l-146 -453h-190zM422 618h385l-133 424c-13.333 42 -25.166 81.667 -35.499 119s-19.166 73 -26.499 107c-6.66699 -34 -13.834 -66 -21.501 -96s-15.834 -59 -24.501 -87zM813 -252c0 96 63.333 179.999 190 251.999h131
c-113.333 -83.333 -170 -162.666 -170 -237.999c0 -64 42.333 -96 127 -96c44 0 85 5 123 15v-113c-52 -15.333 -104 -23 -156 -23c-80.667 0 -141.667 18.167 -183 54.5s-62 85.833 -62 148.5z" />
    <glyph glyph-name="aogonek" unicode="&#x105;" 
d="M135 307c0 220 170 336 510 348l203 7v69c0 157.333 -81.333 236 -244 236c-100.667 0 -210 -27.333 -328 -82l-63 137c131.333 64 259 96 383 96c76 0 141 -7 195 -21s98.5 -36 133.5 -66s60.667 -68 77 -114s24.5 -101 24.5 -165v-752h-131l-37 152h-8
c-26 -32.667 -52 -60 -78 -82s-53.5 -39.667 -82.5 -53s-60.333 -22.833 -94 -28.5s-71.167 -8.5 -112.5 -8.5c-54 0 -102.5 7.33301 -145.5 22s-79.5 36 -109.5 64s-53 62.167 -69 102.5s-24 86.5 -24 138.5zM324 305c0 -118.667 66.668 -178 200.001 -178
c49.333 0 93.833 7 133.5 21s73.5 34.167 101.5 60.5s49.5 58.833 64.5 97.5s22.5 82.667 22.5 132v99l-162 -7c-65.333 -2.66699 -120.833 -9 -166.5 -19s-82.834 -24.167 -111.501 -42.5s-49.5 -41 -62.5 -68s-19.5 -58.833 -19.5 -95.5zM705.001 -252
c0 96 63.333 179.999 190 251.999h131c-113.333 -83.333 -170 -162.666 -170 -237.999c0 -64 42.333 -96 127 -96c44 0 85 5 123 15v-113c-52 -15.333 -104 -23 -156 -23c-80.667 0 -141.667 18.167 -183 54.5s-62 85.833 -62 148.5z" />
    <glyph glyph-name="Cacute" unicode="&#x106;" 
d="M797 1483c146 0 273.668 -28.668 383.001 -86.001l-78 -156c-102.667 52 -204.334 78 -305.001 78c-84 0 -155.833 -16.667 -215.5 -50s-108.334 -77.5 -146.001 -132.5s-65.334 -117.667 -83.001 -188s-26.5 -142.833 -26.5 -217.5
c0 -195.333 39.333 -342.166 118 -440.499s196.334 -147.5 353.001 -147.5c90 0 199 19.333 327 58v-162c-100 -39.333 -219.333 -59 -358 -59c-76.667 0 -145.667 8.83301 -207 26.5s-115.666 42.667 -162.999 75s-87.833 71.333 -121.5 117
s-61.334 96.334 -83.001 152.001s-37.5 115.834 -47.5 180.501s-15 132 -15 202c0 105.333 13.667 203.666 41 294.999s68.833 170.666 124.5 237.999s125.334 120.333 209.001 159s181.5 58 293.5 58zM660.001 1579v27.002c63.333 92 121.333 192.333 174 301h219v-21
c-38 -58.667 -79.333 -113.334 -124 -164.001s-94 -98.334 -148 -143.001h-121z" />
    <glyph glyph-name="cacute" unicode="&#x107;" 
d="M725 1118c116 0 228.001 -19.6689 336.001 -59.002l-62 -158c-100 38 -189.333 57 -268 57c-247.333 0 -371 -137.667 -371 -413c0 -270.667 120.333 -406 361 -406c102 0 209 20.667 321 62v-160c-86 -40.667 -195.667 -61 -329 -61c-86 0 -162.5 12.333 -229.5 37
s-123.5 60.834 -169.5 108.501s-81.167 106.5 -105.5 176.5s-36.5 150.333 -36.5 241c0 94 12.333 176.667 37 248s60.667 131.333 108 180s105.166 85.334 173.499 110.001s146.5 37 234.5 37zM578.001 1241v27.002c63.333 92 121.333 192.333 174 301h219v-21
c-38 -58.667 -79.333 -113.334 -124 -164.001s-94 -98.334 -148 -143.001h-121z" />
    <glyph glyph-name="Ccircumflex" unicode="&#x108;" 
d="M797 1483c146 0 273.668 -28.668 383.001 -86.001l-78 -156c-102.667 52 -204.334 78 -305.001 78c-84 0 -155.833 -16.667 -215.5 -50s-108.334 -77.5 -146.001 -132.5s-65.334 -117.667 -83.001 -188s-26.5 -142.833 -26.5 -217.5
c0 -195.333 39.333 -342.166 118 -440.499s196.334 -147.5 353.001 -147.5c90 0 199 19.333 327 58v-162c-100 -39.333 -219.333 -59 -358 -59c-76.667 0 -145.667 8.83301 -207 26.5s-115.666 42.667 -162.999 75s-87.833 71.333 -121.5 117
s-61.334 96.334 -83.001 152.001s-37.5 115.834 -47.5 180.501s-15 132 -15 202c0 105.333 13.667 203.666 41 294.999s68.833 170.666 124.5 237.999s125.334 120.333 209.001 159s181.5 58 293.5 58zM443.001 1579l-0.000976562 27l27.5 31l31.5 36
c48 52 86.167 97.333 114.5 136s48.833 71.334 61.5 98.001h193c12.667 -26.667 33.667 -59.334 63 -98.001s67 -84 113 -136l59 -67v-27h-121c-28 18.667 -59.5 43.334 -94.5 74.001s-73.833 68 -116.5 112c-44.667 -46 -84.667 -84.333 -120 -115
s-65.666 -54.334 -90.999 -71.001h-120z" />
    <glyph glyph-name="ccircumflex" unicode="&#x109;" 
d="M725 1118c116 0 228.001 -19.6689 336.001 -59.002l-62 -158c-100 38 -189.333 57 -268 57c-247.333 0 -371 -137.667 -371 -413c0 -270.667 120.333 -406 361 -406c102 0 209 20.667 321 62v-160c-86 -40.667 -195.667 -61 -329 -61c-86 0 -162.5 12.333 -229.5 37
s-123.5 60.834 -169.5 108.501s-81.167 106.5 -105.5 176.5s-36.5 150.333 -36.5 241c0 94 12.333 176.667 37 248s60.667 131.333 108 180s105.166 85.334 173.499 110.001s146.5 37 234.5 37zM367.001 1241l-0.000976562 27l27.5 31l31.5 36
c48 52 86.167 97.333 114.5 136s48.833 71.334 61.5 98.001h193c12.667 -26.667 33.667 -59.334 63 -98.001s67 -84 113 -136l59 -67v-27h-121c-28 18.667 -59.5 43.334 -94.5 74.001s-73.833 68 -116.5 112c-44.667 -46 -84.667 -84.333 -120 -115
s-65.666 -54.334 -90.999 -71.001h-120z" />
    <glyph glyph-name="Cdotaccent" unicode="&#x10a;" 
d="M797 1483c146 0 273.668 -28.668 383.001 -86.001l-78 -156c-102.667 52 -204.334 78 -305.001 78c-84 0 -155.833 -16.667 -215.5 -50s-108.334 -77.5 -146.001 -132.5s-65.334 -117.667 -83.001 -188s-26.5 -142.833 -26.5 -217.5
c0 -195.333 39.333 -342.166 118 -440.499s196.334 -147.5 353.001 -147.5c90 0 199 19.333 327 58v-162c-100 -39.333 -219.333 -59 -358 -59c-76.667 0 -145.667 8.83301 -207 26.5s-115.666 42.667 -162.999 75s-87.833 71.333 -121.5 117
s-61.334 96.334 -83.001 152.001s-37.5 115.834 -47.5 180.501s-15 132 -15 202c0 105.333 13.667 203.666 41 294.999s68.833 170.666 124.5 237.999s125.334 120.333 209.001 159s181.5 58 293.5 58zM652.001 1733c0 19.333 3.16699 37.166 9.5 53.499
s15.166 30.5 26.499 42.5s24.666 21.333 39.999 28s32 10 50 10s34.667 -3.33301 50 -10s28.666 -16 39.999 -28s20.333 -26.167 27 -42.5s10 -34.166 10 -53.499c0 -18.667 -3.33301 -36.334 -10 -53.001s-15.667 -31 -27 -43s-24.666 -21.5 -39.999 -28.5
s-32 -10.5 -50 -10.5s-34.667 3.5 -50 10.5s-28.666 16.5 -39.999 28.5s-20.166 26.333 -26.499 43s-9.5 34.334 -9.5 53.001z" />
    <glyph glyph-name="cdotaccent" unicode="&#x10b;" 
d="M725 1118c116 0 228.001 -19.6689 336.001 -59.002l-62 -158c-100 38 -189.333 57 -268 57c-247.333 0 -371 -137.667 -371 -413c0 -270.667 120.333 -406 361 -406c102 0 209 20.667 321 62v-160c-86 -40.667 -195.667 -61 -329 -61c-86 0 -162.5 12.333 -229.5 37
s-123.5 60.834 -169.5 108.501s-81.167 106.5 -105.5 176.5s-36.5 150.333 -36.5 241c0 94 12.333 176.667 37 248s60.667 131.333 108 180s105.166 85.334 173.499 110.001s146.5 37 234.5 37zM572.001 1395c0 19.333 3.16699 37.166 9.5 53.499s15.166 30.5 26.499 42.5
s24.666 21.333 39.999 28s32 10 50 10s34.667 -3.33301 50 -10s28.666 -16 39.999 -28s20.333 -26.167 27 -42.5s10 -34.166 10 -53.499c0 -18.667 -3.33301 -36.334 -10 -53.001s-15.667 -31 -27 -43s-24.666 -21.5 -39.999 -28.5s-32 -10.5 -50 -10.5
s-34.667 3.5 -50 10.5s-28.666 16.5 -39.999 28.5s-20.166 26.333 -26.499 43s-9.5 34.334 -9.5 53.001z" />
    <glyph glyph-name="Ccaron" unicode="&#x10c;" 
d="M797 1483c146 0 273.668 -28.668 383.001 -86.001l-78 -156c-102.667 52 -204.334 78 -305.001 78c-84 0 -155.833 -16.667 -215.5 -50s-108.334 -77.5 -146.001 -132.5s-65.334 -117.667 -83.001 -188s-26.5 -142.833 -26.5 -217.5
c0 -195.333 39.333 -342.166 118 -440.499s196.334 -147.5 353.001 -147.5c90 0 199 19.333 327 58v-162c-100 -39.333 -219.333 -59 -358 -59c-76.667 0 -145.667 8.83301 -207 26.5s-115.666 42.667 -162.999 75s-87.833 71.333 -121.5 117
s-61.334 96.334 -83.001 152.001s-37.5 115.834 -47.5 180.501s-15 132 -15 202c0 105.333 13.667 203.666 41 294.999s68.833 170.666 124.5 237.999s125.334 120.333 209.001 159s181.5 58 293.5 58zM557.001 1907c54.667 -36 125.001 -98.332 211.001 -186.999
c81.333 85.333 151.666 147.666 210.999 186.999h121v-27l-27.5 -31l-31.5 -36c-48 -52 -86.5 -97.667 -115.5 -137s-49.167 -71.666 -60.5 -96.999h-193c-11.333 25.333 -31.5 57.166 -60.5 95.499s-67.5 84.5 -115.5 138.5l-59 67v27h120z" />
    <glyph glyph-name="ccaron" unicode="&#x10d;" 
d="M725 1118c116 0 228.001 -19.6689 336.001 -59.002l-62 -158c-100 38 -189.333 57 -268 57c-247.333 0 -371 -137.667 -371 -413c0 -270.667 120.333 -406 361 -406c102 0 209 20.667 321 62v-160c-86 -40.667 -195.667 -61 -329 -61c-86 0 -162.5 12.333 -229.5 37
s-123.5 60.834 -169.5 108.501s-81.167 106.5 -105.5 176.5s-36.5 150.333 -36.5 241c0 94 12.333 176.667 37 248s60.667 131.333 108 180s105.166 85.334 173.499 110.001s146.5 37 234.5 37zM495.001 1569c54.667 -36 125.001 -98.332 211.001 -186.999
c81.333 85.333 151.666 147.666 210.999 186.999h121v-27l-27.5 -31l-31.5 -36c-48 -52 -86.5 -97.667 -115.5 -137s-49.167 -71.666 -60.5 -96.999h-193c-11.333 25.333 -31.5 57.166 -60.5 95.499s-67.5 84.5 -115.5 138.5l-59 67v27h120z" />
    <glyph glyph-name="Dcaron" unicode="&#x10e;" 
d="M135 0l-0.000976562 1462h342c111.333 0 208.833 -17.167 292.5 -51.5s153.5 -83 209.5 -146s98 -138.5 126 -226.5s42 -185.667 42 -293c0 -120 -15.5 -226.333 -46.5 -319s-76.5 -170.5 -136.5 -233.5s-134.167 -110.833 -222.5 -143.5s-190.166 -49 -305.499 -49h-301
zM417.999 160c354.667 0 532 193 532 579c0 376 -164.333 564 -493 564h-135v-1143h96zM393.999 1907c54.667 -36 125.001 -98.332 211.001 -186.999c81.333 85.333 151.666 147.666 210.999 186.999h121v-27l-27.5 -31l-31.5 -36c-48 -52 -86.5 -97.667 -115.5 -137
s-49.167 -71.666 -60.5 -96.999h-193c-11.333 25.333 -31.5 57.166 -60.5 95.499s-67.5 84.5 -115.5 138.5l-59 67v27h120z" />
    <glyph glyph-name="dcaron" unicode="&#x10f;" 
d="M194 968c77.333 100 182.332 150 314.999 150c138 0 245.333 -53.333 322 -160h12c-8 86 -12 140 -12 162v436h182v-1556h-147l-27 147h-8c-75.333 -111.333 -182.666 -167 -321.999 -167c-132.667 0 -237.667 50 -315 150c-76.667 98.667 -115 237.667 -115 417
c0 182 38.333 322.333 115 421zM541.999 131c50.667 0 93.998 7.17188 129.998 21.5049s65.5 36.666 88.5 66.999s40.167 69.166 51.5 116.499s17.666 104 18.999 170v41c0 36 -1.16699 71.167 -3.5 105.5s-7.16602 67.166 -14.499 98.499s-17.666 60.166 -30.999 86.499
s-30.666 49.166 -51.999 68.499s-47.5 34.333 -78.5 45s-68.167 16 -111.5 16c-181.333 0 -272 -140.667 -272 -422c0 -276 91.333 -414 274 -414zM1074 1255l25.999 107.001c8.66699 38.667 15.834 74.167 21.501 106.5s10.167 61.5 13.5 87.5h180v-20
c0 -4.66699 -3.66699 -16.334 -11 -35.001l-31 -78c-14 -34 -29.5 -66.833 -46.5 -98.5s-35.833 -63.5 -56.5 -95.5h-96v26z" />
    <glyph glyph-name="Dcroat" unicode="&#x110;" 
d="M135 821l-0.000976562 641h342c111.333 0 208.833 -17.167 292.5 -51.5s153.5 -83 209.5 -146s98 -138.5 126 -226.5s42 -185.667 42 -293c0 -120 -15.5 -226.333 -46.5 -319s-76.5 -170.5 -136.5 -233.5s-134.167 -110.833 -222.5 -143.5s-190.166 -49 -305.499 -49
h-301v659h-135v162h135zM701.999 821v-162h-380v-499h96c354.667 0 532 193 532 579c0 376 -164.333 564 -493 564h-135v-482h380z" />
    <glyph glyph-name="dcroat" unicode="&#x111;" 
d="M137 526c0 174 38.333 309.333 115 406s181.667 145 315 145c138.667 0 246 -53 322 -159h12c-8 84 -12 137.667 -12 161v158h-379v137h379v182h182v-182h156v-137h-156v-1237h-147l-27 147h-8c-75.333 -111.333 -182.666 -167 -321.999 -167
c-78.667 0 -145.334 15.333 -200.001 46s-99 71.5 -133 122.5s-58.667 109.333 -74 175s-23 133.167 -23 202.5zM600 131c50 0 93.0039 6.66699 129.004 20s65.667 34.333 89 63s40.666 65.5 51.999 110.5s17.666 99.167 18.999 162.5v39c0 72 -5.66699 133.333 -17 184
s-28.833 92 -52.5 124s-53.834 55.333 -90.501 70s-80.334 22 -131.001 22c-181.333 0 -272 -134 -272 -402c0 -262 91.333 -393 274 -393z" />
    <glyph glyph-name="Emacron" unicode="&#x112;" 
d="M1059 1462v-164h-656v-452h617v-162h-617v-520h656v-164h-842v1462h842zM336 1729h575v-150h-575v150z" />
    <glyph glyph-name="emacron" unicode="&#x113;" 
d="M269 963c90 103.333 210.665 154.999 361.998 154.999c74 0 139.833 -12.167 197.5 -36.5s106.334 -58.166 146.001 -101.499s69.834 -95 90.501 -155s31 -126 31 -198v-113h-774c5.33301 -250 120 -375 344 -375c132.667 0 256 25.333 370 76v-160
c-110.667 -50 -232 -75 -364 -75c-85.333 0 -161.5 13.5 -228.5 40.5s-123.5 65.167 -169.5 114.5s-81 108.5 -105 177.5s-36 145.167 -36 228.5c0 178 45.333 318.667 136 422zM898.998 661.999c0 203.333 -90.668 305 -272.001 305
c-183.333 0 -283.666 -101.667 -300.999 -305h573zM345.997 1391h575v-150h-575v150z" />
    <glyph glyph-name="Ebreve" unicode="&#x114;" 
d="M1059 1462v-164h-656v-452h617v-162h-617v-520h656v-164h-842v1462h842zM451 1856c3.33301 -30 10.167 -53.333 20.5 -70s23.666 -29 39.999 -37s35.5 -13 57.5 -15s46 -3 72 -3c120 0 183.667 41.667 191 125h112c-2.66699 -42 -11.667 -80.167 -27 -114.5
s-36 -63.5 -62 -87.5s-57.167 -42.5 -93.5 -55.5s-77.166 -19.5 -122.499 -19.5c-187.333 0 -286.333 92.333 -297 277h109z" />
    <glyph glyph-name="ebreve" unicode="&#x115;" 
d="M269 963c90 103.333 210.665 154.999 361.998 154.999c74 0 139.833 -12.167 197.5 -36.5s106.334 -58.166 146.001 -101.499s69.834 -95 90.501 -155s31 -126 31 -198v-113h-774c5.33301 -250 120 -375 344 -375c132.667 0 256 25.333 370 76v-160
c-110.667 -50 -232 -75 -364 -75c-85.333 0 -161.5 13.5 -228.5 40.5s-123.5 65.167 -169.5 114.5s-81 108.5 -105 177.5s-36 145.167 -36 228.5c0 178 45.333 318.667 136 422zM898.998 661.999c0 203.333 -90.668 305 -272.001 305
c-183.333 0 -283.666 -101.667 -300.999 -305h573zM437.997 1518c3.33301 -30 10.167 -53.333 20.5 -70s23.666 -29 39.999 -37s35.5 -13 57.5 -15s46 -3 72 -3c120 0 183.667 41.667 191 125h112c-2.66699 -42 -11.667 -80.167 -27 -114.5s-36 -63.5 -62 -87.5
s-57.167 -42.5 -93.5 -55.5s-77.166 -19.5 -122.499 -19.5c-187.333 0 -286.333 92.333 -297 277h109z" />
    <glyph glyph-name="Edotaccent" unicode="&#x116;" 
d="M1059 1462v-164h-656v-452h617v-162h-617v-520h656v-164h-842v1462h842zM523 1704c0 19.333 3.16699 37.166 9.5 53.499s15.166 30.5 26.499 42.5s24.666 21.333 39.999 28s32 10 50 10s34.667 -3.33301 50 -10s28.666 -16 39.999 -28s20.333 -26.167 27 -42.5
s10 -34.166 10 -53.499c0 -18.667 -3.33301 -36.334 -10 -53.001s-15.667 -31 -27 -43s-24.666 -21.5 -39.999 -28.5s-32 -10.5 -50 -10.5s-34.667 3.5 -50 10.5s-28.666 16.5 -39.999 28.5s-20.166 26.333 -26.499 43s-9.5 34.334 -9.5 53.001z" />
    <glyph glyph-name="edotaccent" unicode="&#x117;" 
d="M269 963c90 103.333 210.665 154.999 361.998 154.999c74 0 139.833 -12.167 197.5 -36.5s106.334 -58.166 146.001 -101.499s69.834 -95 90.501 -155s31 -126 31 -198v-113h-774c5.33301 -250 120 -375 344 -375c132.667 0 256 25.333 370 76v-160
c-110.667 -50 -232 -75 -364 -75c-85.333 0 -161.5 13.5 -228.5 40.5s-123.5 65.167 -169.5 114.5s-81 108.5 -105 177.5s-36 145.167 -36 228.5c0 178 45.333 318.667 136 422zM898.998 661.999c0 203.333 -90.668 305 -272.001 305
c-183.333 0 -283.666 -101.667 -300.999 -305h573zM510.997 1395c0 19.333 3.16699 37.166 9.5 53.499s15.166 30.5 26.499 42.5s24.666 21.333 39.999 28s32 10 50 10s34.667 -3.33301 50 -10s28.666 -16 39.999 -28s20.333 -26.167 27 -42.5s10 -34.166 10 -53.499
c0 -18.667 -3.33301 -36.334 -10 -53.001s-15.667 -31 -27 -43s-24.666 -21.5 -39.999 -28.5s-32 -10.5 -50 -10.5s-34.667 3.5 -50 10.5s-28.666 16.5 -39.999 28.5s-20.166 26.333 -26.499 43s-9.5 34.334 -9.5 53.001z" />
    <glyph glyph-name="Eogonek" unicode="&#x118;" 
d="M1059 1462v-164h-656v-452h617v-162h-617v-520h656v-164h-842v1462h842zM619 -252c0 96 63.333 179.999 190 251.999h131c-113.333 -83.333 -170 -162.666 -170 -237.999c0 -64 42.333 -96 127 -96c44 0 85 5 123 15v-113c-52 -15.333 -104 -23 -156 -23
c-80.667 0 -141.667 18.167 -183 54.5s-62 85.833 -62 148.5z" />
    <glyph glyph-name="eogonek" unicode="&#x119;" 
d="M269 963c90 103.333 210.665 154.999 361.998 154.999c74 0 139.833 -12.167 197.5 -36.5s106.334 -58.166 146.001 -101.499s69.834 -95 90.501 -155s31 -126 31 -198v-113h-774c5.33301 -250 120 -375 344 -375c132.667 0 256 25.333 370 76v-160
c-110.667 -50 -232 -75 -364 -75c-85.333 0 -161.5 13.5 -228.5 40.5s-123.5 65.167 -169.5 114.5s-81 108.5 -105 177.5s-36 145.167 -36 228.5c0 178 45.333 318.667 136 422zM898.998 661.999c0 203.333 -90.668 305 -272.001 305
c-183.333 0 -283.666 -101.667 -300.999 -305h573zM640.997 -221.001c0 96 63.333 179.999 190 251.999h131c-113.333 -83.333 -170 -162.666 -170 -237.999c0 -64 42.333 -96 127 -96c44 0 85 5 123 15v-113c-52 -15.333 -104 -23 -156 -23
c-80.667 0 -141.667 18.167 -183 54.5s-62 85.833 -62 148.5z" />
    <glyph glyph-name="Ecaron" unicode="&#x11a;" 
d="M1059 1462v-164h-656v-452h617v-162h-617v-520h656v-164h-842v1462h842zM438 1907c54.667 -36 125.001 -98.332 211.001 -186.999c81.333 85.333 151.666 147.666 210.999 186.999h121v-27l-27.5 -31l-31.5 -36c-48 -52 -86.5 -97.667 -115.5 -137
s-49.167 -71.666 -60.5 -96.999h-193c-11.333 25.333 -31.5 57.166 -60.5 95.499s-67.5 84.5 -115.5 138.5l-59 67v27h120z" />
    <glyph glyph-name="ecaron" unicode="&#x11b;" 
d="M269 963c90 103.333 210.665 154.999 361.998 154.999c74 0 139.833 -12.167 197.5 -36.5s106.334 -58.166 146.001 -101.499s69.834 -95 90.501 -155s31 -126 31 -198v-113h-774c5.33301 -250 120 -375 344 -375c132.667 0 256 25.333 370 76v-160
c-110.667 -50 -232 -75 -364 -75c-85.333 0 -161.5 13.5 -228.5 40.5s-123.5 65.167 -169.5 114.5s-81 108.5 -105 177.5s-36 145.167 -36 228.5c0 178 45.333 318.667 136 422zM898.998 661.999c0 203.333 -90.668 305 -272.001 305
c-183.333 0 -283.666 -101.667 -300.999 -305h573zM427.997 1569c54.667 -36 125.001 -98.332 211.001 -186.999c81.333 85.333 151.666 147.666 210.999 186.999h121v-27l-27.5 -31l-31.5 -36c-48 -52 -86.5 -97.667 -115.5 -137s-49.167 -71.666 -60.5 -96.999h-193
c-11.333 25.333 -31.5 57.166 -60.5 95.499s-67.5 84.5 -115.5 138.5l-59 67v27h120z" />
    <glyph glyph-name="Gcircumflex" unicode="&#x11c;" 
d="M117 733c0 235.333 54 419.001 162 551.001c108.667 132.667 257.334 199 446.001 199c127.333 0 242.666 -28.667 345.999 -86l-72 -162c-96.667 56 -190 84 -280 84c-53.333 0 -100.5 -8.33301 -141.5 -25s-76.5 -39.5 -106.5 -68.5s-55.167 -62.833 -75.5 -101.5
s-36.5 -79.834 -48.5 -123.501s-20.667 -88.5 -26 -134.5s-8 -91 -8 -135c0 -392 131.333 -588 394 -588c61.333 0 128.666 9.66699 201.999 29v436h-237v164h422v-717c-130 -50 -270 -75 -420 -75c-173.333 0 -309.666 66.667 -408.999 200
c-98.667 132.667 -148 317 -148 553zM363 1579l-0.000976562 27l27.5 31l31.5 36c48 52 86.167 97.333 114.5 136s48.833 71.334 61.5 98.001h193c12.667 -26.667 33.667 -59.334 63 -98.001s67 -84 113 -136l59 -67v-27h-121c-28 18.667 -59.5 43.334 -94.5 74.001
s-73.833 68 -116.5 112c-44.667 -46 -84.667 -84.333 -120 -115s-65.666 -54.334 -90.999 -71.001h-120z" />
    <glyph glyph-name="gcircumflex" unicode="&#x11d;" 
d="M102 -186c0 141.333 80.001 231.332 240.001 269.999c-64 31.333 -96 82.666 -96 153.999c0 75.333 44.333 139.333 133 192c-30 12 -56.667 28.5 -80 49.5s-43.333 45.167 -60 72.5s-29.334 57 -38.001 89s-13 64.667 -13 98c0 123.333 35 217.333 105 282
s171.667 97 305 97c54 0 104 -6.66699 150 -20h378v-113l-196 -27c43.333 -57.333 65 -128.333 65 -213c0 -60 -10.5 -112.167 -31.5 -156.5s-49.667 -81 -86 -110s-79 -50.5 -128 -64.5s-101.5 -21 -157.5 -21c-36 0 -64.667 2 -86 6c-66.667 -36.667 -100 -81 -100 -133
c0 -56 53.667 -84 161 -84h187c118 0 207.167 -25.167 267.5 -75.5s90.5 -124.166 90.5 -221.499c0 -251.333 -188.333 -377 -565 -377c-145.333 0 -255.833 26.833 -331.5 80.5s-113.5 128.834 -113.5 225.501zM274.001 -180.001c0 -116 90.333 -173.999 271 -173.999
c263.333 0 395 74.333 395 223c0 57.333 -16.667 96.666 -50 117.999c-32.667 20.667 -98.667 31 -198 31h-188c-153.333 0 -230 -66 -230 -198zM367.001 745c0 -151.333 75.667 -227 227 -227c148.667 0 223 76.667 223 230c0 159.333 -75 239 -225 239
s-225 -80.667 -225 -242zM274.001 1241l-0.000976562 27l27.5 31l31.5 36c48 52 86.167 97.333 114.5 136s48.833 71.334 61.5 98.001h193c12.667 -26.667 33.667 -59.334 63 -98.001s67 -84 113 -136l59 -67v-27h-121c-28 18.667 -59.5 43.334 -94.5 74.001
s-73.833 68 -116.5 112c-44.667 -46 -84.667 -84.333 -120 -115s-65.666 -54.334 -90.999 -71.001h-120z" />
    <glyph glyph-name="Gbreve" unicode="&#x11e;" 
d="M117 733c0 235.333 54 419.001 162 551.001c108.667 132.667 257.334 199 446.001 199c127.333 0 242.666 -28.667 345.999 -86l-72 -162c-96.667 56 -190 84 -280 84c-53.333 0 -100.5 -8.33301 -141.5 -25s-76.5 -39.5 -106.5 -68.5s-55.167 -62.833 -75.5 -101.5
s-36.5 -79.834 -48.5 -123.501s-20.667 -88.5 -26 -134.5s-8 -91 -8 -135c0 -392 131.333 -588 394 -588c61.333 0 128.666 9.66699 201.999 29v436h-237v164h422v-717c-130 -50 -270 -75 -420 -75c-173.333 0 -309.666 66.667 -408.999 200
c-98.667 132.667 -148 317 -148 553zM520 1856c3.33301 -30 10.167 -53.333 20.5 -70s23.666 -29 39.999 -37s35.5 -13 57.5 -15s46 -3 72 -3c120 0 183.667 41.667 191 125h112c-2.66699 -42 -11.667 -80.167 -27 -114.5s-36 -63.5 -62 -87.5s-57.167 -42.5 -93.5 -55.5
s-77.166 -19.5 -122.499 -19.5c-187.333 0 -286.333 92.333 -297 277h109z" />
    <glyph glyph-name="gbreve" unicode="&#x11f;" 
d="M102 -186c0 141.333 80.001 231.332 240.001 269.999c-64 31.333 -96 82.666 -96 153.999c0 75.333 44.333 139.333 133 192c-30 12 -56.667 28.5 -80 49.5s-43.333 45.167 -60 72.5s-29.334 57 -38.001 89s-13 64.667 -13 98c0 123.333 35 217.333 105 282
s171.667 97 305 97c54 0 104 -6.66699 150 -20h378v-113l-196 -27c43.333 -57.333 65 -128.333 65 -213c0 -60 -10.5 -112.167 -31.5 -156.5s-49.667 -81 -86 -110s-79 -50.5 -128 -64.5s-101.5 -21 -157.5 -21c-36 0 -64.667 2 -86 6c-66.667 -36.667 -100 -81 -100 -133
c0 -56 53.667 -84 161 -84h187c118 0 207.167 -25.167 267.5 -75.5s90.5 -124.166 90.5 -221.499c0 -251.333 -188.333 -377 -565 -377c-145.333 0 -255.833 26.833 -331.5 80.5s-113.5 128.834 -113.5 225.501zM274.001 -180.001c0 -116 90.333 -173.999 271 -173.999
c263.333 0 395 74.333 395 223c0 57.333 -16.667 96.666 -50 117.999c-32.667 20.667 -98.667 31 -198 31h-188c-153.333 0 -230 -66 -230 -198zM367.001 745c0 -151.333 75.667 -227 227 -227c148.667 0 223 76.667 223 230c0 159.333 -75 239 -225 239
s-225 -80.667 -225 -242zM409.001 1518c3.33301 -30 10.167 -53.333 20.5 -70s23.666 -29 39.999 -37s35.5 -13 57.5 -15s46 -3 72 -3c120 0 183.667 41.667 191 125h112c-2.66699 -42 -11.667 -80.167 -27 -114.5s-36 -63.5 -62 -87.5s-57.167 -42.5 -93.5 -55.5
s-77.166 -19.5 -122.499 -19.5c-187.333 0 -286.333 92.333 -297 277h109z" />
    <glyph glyph-name="Gdotaccent" unicode="&#x120;" 
d="M117 733c0 235.333 54 419.001 162 551.001c108.667 132.667 257.334 199 446.001 199c127.333 0 242.666 -28.667 345.999 -86l-72 -162c-96.667 56 -190 84 -280 84c-53.333 0 -100.5 -8.33301 -141.5 -25s-76.5 -39.5 -106.5 -68.5s-55.167 -62.833 -75.5 -101.5
s-36.5 -79.834 -48.5 -123.501s-20.667 -88.5 -26 -134.5s-8 -91 -8 -135c0 -392 131.333 -588 394 -588c61.333 0 128.666 9.66699 201.999 29v436h-237v164h422v-717c-130 -50 -270 -75 -420 -75c-173.333 0 -309.666 66.667 -408.999 200
c-98.667 132.667 -148 317 -148 553zM597 1733c0 19.333 3.16699 37.166 9.5 53.499s15.166 30.5 26.499 42.5s24.666 21.333 39.999 28s32 10 50 10s34.667 -3.33301 50 -10s28.666 -16 39.999 -28s20.333 -26.167 27 -42.5s10 -34.166 10 -53.499
c0 -18.667 -3.33301 -36.334 -10 -53.001s-15.667 -31 -27 -43s-24.666 -21.5 -39.999 -28.5s-32 -10.5 -50 -10.5s-34.667 3.5 -50 10.5s-28.666 16.5 -39.999 28.5s-20.166 26.333 -26.499 43s-9.5 34.334 -9.5 53.001z" />
    <glyph glyph-name="gdotaccent" unicode="&#x121;" 
d="M102 -186c0 141.333 80.001 231.332 240.001 269.999c-64 31.333 -96 82.666 -96 153.999c0 75.333 44.333 139.333 133 192c-30 12 -56.667 28.5 -80 49.5s-43.333 45.167 -60 72.5s-29.334 57 -38.001 89s-13 64.667 -13 98c0 123.333 35 217.333 105 282
s171.667 97 305 97c54 0 104 -6.66699 150 -20h378v-113l-196 -27c43.333 -57.333 65 -128.333 65 -213c0 -60 -10.5 -112.167 -31.5 -156.5s-49.667 -81 -86 -110s-79 -50.5 -128 -64.5s-101.5 -21 -157.5 -21c-36 0 -64.667 2 -86 6c-66.667 -36.667 -100 -81 -100 -133
c0 -56 53.667 -84 161 -84h187c118 0 207.167 -25.167 267.5 -75.5s90.5 -124.166 90.5 -221.499c0 -251.333 -188.333 -377 -565 -377c-145.333 0 -255.833 26.833 -331.5 80.5s-113.5 128.834 -113.5 225.501zM274.001 -180.001c0 -116 90.333 -173.999 271 -173.999
c263.333 0 395 74.333 395 223c0 57.333 -16.667 96.666 -50 117.999c-32.667 20.667 -98.667 31 -198 31h-188c-153.333 0 -230 -66 -230 -198zM367.001 745c0 -151.333 75.667 -227 227 -227c148.667 0 223 76.667 223 230c0 159.333 -75 239 -225 239
s-225 -80.667 -225 -242zM487.001 1395c0 19.333 3.16699 37.166 9.5 53.499s15.166 30.5 26.499 42.5s24.666 21.333 39.999 28s32 10 50 10s34.667 -3.33301 50 -10s28.666 -16 39.999 -28s20.333 -26.167 27 -42.5s10 -34.166 10 -53.499
c0 -18.667 -3.33301 -36.334 -10 -53.001s-15.667 -31 -27 -43s-24.666 -21.5 -39.999 -28.5s-32 -10.5 -50 -10.5s-34.667 3.5 -50 10.5s-28.666 16.5 -39.999 28.5s-20.166 26.333 -26.499 43s-9.5 34.334 -9.5 53.001z" />
    <glyph glyph-name="uni0122" unicode="&#x122;" 
d="M117 733c0 235.333 54 419.001 162 551.001c108.667 132.667 257.334 199 446.001 199c127.333 0 242.666 -28.667 345.999 -86l-72 -162c-96.667 56 -190 84 -280 84c-53.333 0 -100.5 -8.33301 -141.5 -25s-76.5 -39.5 -106.5 -68.5s-55.167 -62.833 -75.5 -101.5
s-36.5 -79.834 -48.5 -123.501s-20.667 -88.5 -26 -134.5s-8 -91 -8 -135c0 -392 131.333 -588 394 -588c61.333 0 128.666 9.66699 201.999 29v436h-237v164h422v-717c-130 -50 -270 -75 -420 -75c-173.333 0 -309.666 66.667 -408.999 200
c-98.667 132.667 -148 317 -148 553zM540 -452.999v27c40.667 92.667 68.667 193 84 301h178v-20c0 -14.667 -16 -56 -48 -124s-70.333 -129.333 -115 -184h-99z" />
    <glyph glyph-name="uni0123" unicode="&#x123;" 
d="M102 -186c0 141.333 80.001 231.332 240.001 269.999c-64 31.333 -96 82.666 -96 153.999c0 75.333 44.333 139.333 133 192c-30 12 -56.667 28.5 -80 49.5s-43.333 45.167 -60 72.5s-29.334 57 -38.001 89s-13 64.667 -13 98c0 123.333 35 217.333 105 282
s171.667 97 305 97c54 0 104 -6.66699 150 -20h378v-113l-196 -27c43.333 -57.333 65 -128.333 65 -213c0 -60 -10.5 -112.167 -31.5 -156.5s-49.667 -81 -86 -110s-79 -50.5 -128 -64.5s-101.5 -21 -157.5 -21c-36 0 -64.667 2 -86 6c-66.667 -36.667 -100 -81 -100 -133
c0 -56 53.667 -84 161 -84h187c118 0 207.167 -25.167 267.5 -75.5s90.5 -124.166 90.5 -221.499c0 -251.333 -188.333 -377 -565 -377c-145.333 0 -255.833 26.833 -331.5 80.5s-113.5 128.834 -113.5 225.501zM274.001 -180.001c0 -116 90.333 -173.999 271 -173.999
c263.333 0 395 74.333 395 223c0 57.333 -16.667 96.666 -50 117.999c-32.667 20.667 -98.667 31 -198 31h-188c-153.333 0 -230 -66 -230 -198zM367.001 745c0 -151.333 75.667 -227 227 -227c148.667 0 223 76.667 223 230c0 159.333 -75 239 -225 239
s-225 -80.667 -225 -242zM528.001 1241l0.000976562 21.001c0 11.333 15.333 50.666 46 117.999c15.333 34.667 33 67.667 53 99s41.667 61.333 65 90h98v-27c-21.333 -52 -38.833 -103 -52.5 -153s-23.834 -99.333 -30.501 -148h-179z" />
    <glyph glyph-name="Hcircumflex" unicode="&#x124;" 
d="M135 1462h187v-616h585v616h187v-1462h-187v682h-585v-682h-187v1462zM283 1579l-0.000976562 27l27.5 31l31.5 36c48 52 86.167 97.333 114.5 136s48.833 71.334 61.5 98.001h193c12.667 -26.667 33.667 -59.334 63 -98.001s67 -84 113 -136l59 -67v-27h-121
c-28 18.667 -59.5 43.334 -94.5 74.001s-73.833 68 -116.5 112c-44.667 -46 -84.667 -84.333 -120 -115s-65.666 -54.334 -90.999 -71.001h-120z" />
    <glyph glyph-name="hcircumflex" unicode="&#x125;" 
d="M160 1556h182v-462l-8 -144h10c69.333 112 181.333 168 336 168c259.333 0 389 -133.667 389 -401v-717h-182v707c0 173.333 -79.333 260 -238 260c-204.667 0 -307 -132.667 -307 -398v-569h-182v1556zM297 1634l-0.000976562 27l27.5 31l31.5 36
c48 52 86.167 97.333 114.5 136s48.833 71.334 61.5 98.001h193c12.667 -26.667 33.667 -59.334 63 -98.001s67 -84 113 -136l59 -67v-27h-121c-28 18.667 -59.5 43.334 -94.5 74.001s-73.833 68 -116.5 112c-44.667 -46 -84.667 -84.333 -120 -115
s-65.666 -54.334 -90.999 -71.001h-120z" />
    <glyph glyph-name="Hbar" unicode="&#x126;" 
d="M135 1219v243h187v-243h585v243h187v-243h135v-150h-135v-1069h-187v682h-585v-682h-187v1069h-135v150h135zM322 1069v-223h585v223h-585z" />
    <glyph glyph-name="hbar" unicode="&#x127;" 
d="M160 1374v181.999h184v-182h418v-137h-420v-184l-10 -144h10c72 112 187.333 168 346 168c128 0 223.5 -31.833 286.5 -95.5s94.5 -165.5 94.5 -305.5v-676h-182v666c0 173.333 -78.667 260 -236 260c-54 0 -100.5 -7.5 -139.5 -22.5s-71 -38.667 -96 -71
s-43.5 -73.666 -55.5 -123.999s-18 -110.5 -18 -180.5v-528h-182v1237h-156v137h156z" />
    <glyph glyph-name="Itilde" unicode="&#x128;" 
d="M225 1462h776v-143h-294v-1176h294v-143h-776v143h295v1176h-295v143zM254 1579c17.333 176 87.6689 263.999 211.002 263.999c38 0 91.667 -18.667 161 -56s114.666 -56 135.999 -56c54 0 89.333 38 106 114h105c-18 -176 -88.333 -264 -211 -264
c-19.333 0 -41.833 4.83301 -67.5 14.5s-55.5 23.834 -89.5 42.501c-67.333 37.333 -114 56 -140 56c-54.667 0 -90.334 -38.333 -107.001 -115h-104z" />
    <glyph glyph-name="itilde" unicode="&#x129;" 
d="M272 1098h451v-774c0 -130 64.333 -195 193 -195c75.333 0 146.333 7 213 21v-138c-65.333 -21.333 -140.333 -32 -225 -32c-242 0 -363 114.667 -363 344v630h-269v144zM251 1241c17.333 176 87.6689 263.999 211.002 263.999c38 0 91.667 -18.667 161 -56
s114.666 -56 135.999 -56c54 0 89.333 38 106 114h105c-18 -176 -88.333 -264 -211 -264c-19.333 0 -41.833 4.83301 -67.5 14.5s-55.5 23.834 -89.5 42.501c-67.333 37.333 -114 56 -140 56c-54.667 0 -90.334 -38.333 -107.001 -115h-104z" />
    <glyph glyph-name="Imacron" unicode="&#x12a;" 
d="M225 1462h776v-143h-294v-1176h294v-143h-776v143h295v1176h-295v143zM328 1729h575v-150h-575v150z" />
    <glyph glyph-name="imacron" unicode="&#x12b;" 
d="M272 1098h451v-774c0 -130 64.333 -195 193 -195c75.333 0 146.333 7 213 21v-138c-65.333 -21.333 -140.333 -32 -225 -32c-242 0 -363 114.667 -363 344v630h-269v144zM326 1391h575v-150h-575v150z" />
    <glyph glyph-name="Ibreve" unicode="&#x12c;" 
d="M225 1462h776v-143h-294v-1176h294v-143h-776v143h295v1176h-295v143zM422 1856c3.33301 -30 10.167 -53.333 20.5 -70s23.666 -29 39.999 -37s35.5 -13 57.5 -15s46 -3 72 -3c120 0 183.667 41.667 191 125h112c-2.66699 -42 -11.667 -80.167 -27 -114.5
s-36 -63.5 -62 -87.5s-57.167 -42.5 -93.5 -55.5s-77.166 -19.5 -122.499 -19.5c-187.333 0 -286.333 92.333 -297 277h109z" />
    <glyph glyph-name="ibreve" unicode="&#x12d;" 
d="M272 1098h451v-774c0 -130 64.333 -195 193 -195c75.333 0 146.333 7 213 21v-138c-65.333 -21.333 -140.333 -32 -225 -32c-242 0 -363 114.667 -363 344v630h-269v144zM447 1518c3.33301 -30 10.167 -53.333 20.5 -70s23.666 -29 39.999 -37s35.5 -13 57.5 -15
s46 -3 72 -3c120 0 183.667 41.667 191 125h112c-2.66699 -42 -11.667 -80.167 -27 -114.5s-36 -63.5 -62 -87.5s-57.167 -42.5 -93.5 -55.5s-77.166 -19.5 -122.499 -19.5c-187.333 0 -286.333 92.333 -297 277h109z" />
    <glyph glyph-name="Iogonek" unicode="&#x12e;" 
d="M225 1462h776v-143h-294v-1176h294v-143h-776v143h295v1176h-295v143zM422 -252c0 96 63.333 179.999 190 251.999h131c-113.333 -83.333 -170 -162.666 -170 -237.999c0 -64 42.333 -96 127 -96c44 0 85 5 123 15v-113c-52 -15.333 -104 -23 -156 -23
c-80.667 0 -141.667 18.167 -183 54.5s-62 85.833 -62 148.5z" />
    <glyph glyph-name="iogonek" unicode="&#x12f;" 
d="M272 1098h451v-774c0 -130 64.333 -195 193 -195c75.333 0 146.333 7 213 21v-138c-65.333 -21.333 -140.333 -32 -225 -32c-242 0 -363 114.667 -363 344v630h-269v144zM506 1436c0 19.333 3.33496 37.166 10.002 53.499s15.667 30.5 27 42.5s24.666 21.333 39.999 28
s32 10 50 10s34.667 -3.33301 50 -10s28.666 -16 39.999 -28s20.166 -26.167 26.499 -42.5s9.5 -34.166 9.5 -53.499c0 -18.667 -3.83301 -36.334 -11.5 -53.001s-17.667 -31 -30 -43s-26 -21.5 -41 -28.5s-29.5 -10.5 -43.5 -10.5c-18 0 -34.667 3.5 -50 10.5
s-28.666 16.5 -39.999 28.5s-20.333 26.333 -27 43s-10 34.334 -10 53.001zM439.002 -252c0 96 63.333 179.999 190 251.999h131c-113.333 -83.333 -170 -162.666 -170 -237.999c0 -64 42.333 -96 127 -96c44 0 85 5 123 15v-113c-52 -15.333 -104 -23 -156 -23
c-80.667 0 -141.667 18.167 -183 54.5s-62 85.833 -62 148.5z" />
    <glyph glyph-name="Idotaccent" unicode="&#x130;" 
d="M225 1462h776v-143h-294v-1176h294v-143h-776v143h295v1176h-295v143zM488 1733c0 19.333 3.16699 37.166 9.5 53.499s15.166 30.5 26.499 42.5s24.666 21.333 39.999 28s32 10 50 10s34.667 -3.33301 50 -10s28.666 -16 39.999 -28s20.333 -26.167 27 -42.5
s10 -34.166 10 -53.499c0 -18.667 -3.33301 -36.334 -10 -53.001s-15.667 -31 -27 -43s-24.666 -21.5 -39.999 -28.5s-32 -10.5 -50 -10.5s-34.667 3.5 -50 10.5s-28.666 16.5 -39.999 28.5s-20.166 26.333 -26.499 43s-9.5 34.334 -9.5 53.001z" />
    <glyph glyph-name="dotlessi" unicode="&#x131;" 
d="M272 1098h451v-774c0 -130 64.333 -195 193 -195c75.333 0 146.333 7 213 21v-138c-65.333 -21.333 -140.333 -32 -225 -32c-242 0 -363 114.667 -363 344v630h-269v144z" />
    <glyph glyph-name="IJ" unicode="&#x132;" 
d="M492 186c62 -30 124 -45 186 -45c129.333 0 194 94.333 194 283v1038h187v-1026c0 -304 -121.667 -456 -365 -456c-90 0 -157.333 14.333 -202 43v163zM156 0v1462h186v-1462h-186z" />
    <glyph glyph-name="ij" unicode="&#x133;" 
d="M502 -303c59.333 -26 122.667 -38.998 190 -38.998c109.333 0 164 71.667 164 215v1081l-215 21v123h397v-1215c0 -60.667 -7.33301 -114.334 -22 -161.001s-35.667 -85.834 -63 -117.501s-61 -55.667 -101 -72s-85 -24.5 -135 -24.5c-79.333 0 -151 11.667 -215 35v154z
M203.001 0.00195312v1098h182v-1098h-182zM295.001 1550c70.667 0 106 -38 106 -114c0 -38.667 -10.5 -67.5 -31.5 -86.5s-45.833 -28.5 -74.5 -28.5c-71.333 0 -107 38.333 -107 115c0 76 35.667 114 107 114zM821.001 1436c0 76 35.667 114 107 114
c70.667 0 106 -38 106 -114c0 -38.667 -10.5 -67.5 -31.5 -86.5s-45.833 -28.5 -74.5 -28.5c-71.333 0 -107 38.333 -107 115z" />
    <glyph glyph-name="Jcircumflex" unicode="&#x134;" 
d="M137 39l-0.00292969 166.001c110.667 -41.333 213.667 -62 309 -62c54 0 102.333 6.83301 145 20.5s79 33.5 109 59.5s53 58 69 96s24 81.333 24 130v1013h186v-1011c0 -77.333 -13.167 -145.333 -39.5 -204s-62.666 -107.834 -108.999 -147.501
s-101.166 -69.5 -164.499 -89.5s-131.666 -30 -204.999 -30c-144.667 0 -252.667 19.667 -324 59zM550.997 1579l-0.000976562 27l27.5 31l31.5 36c48 52 86.167 97.333 114.5 136s48.833 71.334 61.5 98.001h193c12.667 -26.667 33.667 -59.334 63 -98.001s67 -84 113 -136
l59 -67v-27h-121c-28 18.667 -59.5 43.334 -94.5 74.001s-73.833 68 -116.5 112c-44.667 -46 -84.667 -84.333 -120 -115s-65.666 -54.334 -90.999 -71.001h-120z" />
    <glyph glyph-name="jcircumflex" unicode="&#x135;" 
d="M303 1241l-0.000976562 27l27.5 31l31.5 36c48 52 86.167 97.333 114.5 136s48.833 71.334 61.5 98.001h193c12.667 -26.667 33.667 -59.334 63 -98.001s67 -84 113 -136l59 -67v-27h-121c-28 18.667 -59.5 43.334 -94.5 74.001s-73.833 68 -116.5 112
c-44.667 -46 -84.667 -84.333 -120 -115s-65.666 -54.334 -90.999 -71.001h-120zM134.999 -457l0.00292969 154.002c89.333 -26 185.666 -39 288.999 -39c78.667 0 139.667 18.667 183 56s65 90.333 65 159v1081l-420 21v123h602v-1215c0 -60 -9.66699 -113.333 -29 -160
s-47.333 -85.834 -84 -117.501s-81.834 -55.834 -135.501 -72.501s-114.834 -25 -183.501 -25c-106 0 -201.667 11.667 -287 35z" />
    <glyph glyph-name="uni0136" unicode="&#x136;" 
d="M397 1462v-731l121 168l453 563h209l-521 -637l539 -825h-211l-450 698l-140 -114v-584h-186v1462h186zM510 -453v27c40.667 92.667 68.667 193 84 301h178v-20c0 -14.667 -16 -56 -48 -124s-70.333 -129.333 -115 -184h-99z" />
    <glyph glyph-name="uni0137" unicode="&#x137;" 
d="M215 0v1556h180v-714l-16 -289h4l135 152l395 393h222l-494 -475l522 -623h-213l-426 504l-129 -82v-422h-180zM485 -453v27c40.667 92.667 68.667 193 84 301h178v-20c0 -14.667 -16 -56 -48 -124s-70.333 -129.333 -115 -184h-99z" />
    <glyph glyph-name="kgreenlandic" unicode="&#x138;" 
d="M215 0v1098h180v-291l-16 -299h4l137 166l402 424h213l-494 -510l522 -588h-213l-426 469l-129 -82v-387h-180z" />
    <glyph glyph-name="Lacute" unicode="&#x139;" 
d="M233 0v1462h187v-1296h635v-166h-822zM263 1579v27.002c63.333 92 121.333 192.333 174 301h219v-21c-38 -58.667 -79.333 -113.334 -124 -164.001s-94 -98.334 -148 -143.001h-121z" />
    <glyph glyph-name="lacute" unicode="&#x13a;" 
d="M264 1556h451v-1232c0 -130 64.333 -195 193 -195c75.333 0 146.333 7 213 21v-138c-65.333 -21.333 -140.333 -32 -225 -32c-242 0 -363 114.667 -363 344v1088h-269v144zM496 1636v27.002c63.333 92 121.333 192.333 174 301h219v-21
c-38 -58.667 -79.333 -113.334 -124 -164.001s-94 -98.334 -148 -143.001h-121z" />
    <glyph glyph-name="uni013B" unicode="&#x13b;" 
d="M233 0v1462h187v-1296h635v-166h-822zM491 -453v27c40.667 92.667 68.667 193 84 301h178v-20c0 -14.667 -16 -56 -48 -124s-70.333 -129.333 -115 -184h-99z" />
    <glyph glyph-name="uni013C" unicode="&#x13c;" 
d="M264 1556h451v-1232c0 -130 64.333 -195 193 -195c75.333 0 146.333 7 213 21v-138c-65.333 -21.333 -140.333 -32 -225 -32c-242 0 -363 114.667 -363 344v1088h-269v144zM461 -453v27c40.667 92.667 68.667 193 84 301h178v-20c0 -14.667 -16 -56 -48 -124
s-70.333 -129.333 -115 -184h-99z" />
    <glyph glyph-name="Lcaron" unicode="&#x13d;" 
d="M233 0v1462h187v-1296h635v-166h-822zM750 1162l25.999 107.001c8.66699 38.667 15.834 74.167 21.501 106.5s10.167 61.5 13.5 87.5h180v-20c0 -4.66699 -3.66699 -16.334 -11 -35.001l-31 -78c-14 -34 -29.5 -66.833 -46.5 -98.5s-35.833 -63.5 -56.5 -95.5h-96v26z
" />
    <glyph glyph-name="lcaron" unicode="&#x13e;" 
d="M264 1556h451v-1232c0 -130 64.333 -195 193 -195c75.333 0 146.333 7 213 21v-138c-65.333 -21.333 -140.333 -32 -225 -32c-242 0 -363 114.667 -363 344v1088h-269v144zM865 1255l25.999 107.001c8.66699 38.667 15.834 74.167 21.501 106.5s10.167 61.5 13.5 87.5
h180v-20c0 -4.66699 -3.66699 -16.334 -11 -35.001l-31 -78c-14 -34 -29.5 -66.833 -46.5 -98.5s-35.833 -63.5 -56.5 -95.5h-96v26z" />
    <glyph glyph-name="Ldot" unicode="&#x13f;" 
d="M233 0v1462h187v-1296h635v-166h-822zM730 775c0 19.333 3.16699 37.166 9.5 53.499s15.166 30.5 26.499 42.5s24.666 21.333 39.999 28s32 10 50 10s34.667 -3.33301 50 -10s28.666 -16 39.999 -28s20.333 -26.167 27 -42.5s10 -34.166 10 -53.499
c0 -18.667 -3.33301 -36.334 -10 -53.001s-15.667 -31 -27 -43s-24.666 -21.5 -39.999 -28.5s-32 -10.5 -50 -10.5s-34.667 3.5 -50 10.5s-28.666 16.5 -39.999 28.5s-20.166 26.333 -26.499 43s-9.5 34.334 -9.5 53.001z" />
    <glyph glyph-name="ldot" unicode="&#x140;" 
d="M264 1556h451v-1232c0 -130 64.333 -195 193 -195c75.333 0 146.333 7 213 21v-138c-65.333 -21.333 -140.333 -32 -225 -32c-242 0 -363 114.667 -363 344v1088h-269v144zM846 683c0 19.333 3.16699 37.166 9.5 53.499s15.166 30.5 26.499 42.5s24.666 21.333 39.999 28
s32 10 50 10s34.667 -3.33301 50 -10s28.666 -16 39.999 -28s20.333 -26.167 27 -42.5s10 -34.166 10 -53.499c0 -18.667 -3.33301 -36.334 -10 -53.001s-15.667 -31 -27 -43s-24.666 -21.5 -39.999 -28.5s-32 -10.5 -50 -10.5s-34.667 3.5 -50 10.5
s-28.666 16.5 -39.999 28.5s-20.166 26.333 -26.499 43s-9.5 34.334 -9.5 53.001z" />
    <glyph glyph-name="Lslash" unicode="&#x141;" 
d="M72 539l198 125v798h187v-680l299 189l78 -125l-377 -238v-442h635v-166h-822v492l-125 -78z" />
    <glyph glyph-name="lslash" unicode="&#x142;" 
d="M188 0v123l344 20v449l-141 -92l-78 121l219 143v649l-268 21v122h451v-673l164 108l77 -121l-241 -159v-568l352 -20v-123h-879z" />
    <glyph glyph-name="Nacute" unicode="&#x143;" 
d="M135 1462h213l578 -1204h6c-4.66699 102.667 -8.16699 187.167 -10.5 253.5s-3.5 116.5 -3.5 150.5v800h174v-1462h-215l-580 1210h-8c12 -184.667 18 -323.667 18 -417v-793h-172v1462zM516 1579v27.002c63.333 92 121.333 192.333 174 301h219v-21
c-38 -58.667 -79.333 -113.334 -124 -164.001s-94 -98.334 -148 -143.001h-121z" />
    <glyph glyph-name="nacute" unicode="&#x144;" 
d="M160 1098h147l27 -148h10c69.333 112 181.333 168 336 168c259.333 0 389 -133.667 389 -401v-717h-182v707c0 173.333 -79.333 260 -238 260c-204.667 0 -307 -132.667 -307 -398v-569h-182v1098zM529 1241v27.002c63.333 92 121.333 192.333 174 301h219v-21
c-38 -58.667 -79.333 -113.334 -124 -164.001s-94 -98.334 -148 -143.001h-121z" />
    <glyph glyph-name="uni0145" unicode="&#x145;" 
d="M135 1462h213l578 -1204h6c-4.66699 102.667 -8.16699 187.167 -10.5 253.5s-3.5 116.5 -3.5 150.5v800h174v-1462h-215l-580 1210h-8c12 -184.667 18 -323.667 18 -417v-793h-172v1462zM433 -453v27c40.667 92.667 68.667 193 84 301h178v-20
c0 -14.667 -16 -56 -48 -124s-70.333 -129.333 -115 -184h-99z" />
    <glyph glyph-name="uni0146" unicode="&#x146;" 
d="M160 1098h147l27 -148h10c69.333 112 181.333 168 336 168c259.333 0 389 -133.667 389 -401v-717h-182v707c0 173.333 -79.333 260 -238 260c-204.667 0 -307 -132.667 -307 -398v-569h-182v1098zM455 -453v27c40.667 92.667 68.667 193 84 301h178v-20
c0 -14.667 -16 -56 -48 -124s-70.333 -129.333 -115 -184h-99z" />
    <glyph glyph-name="Ncaron" unicode="&#x147;" 
d="M135 1462h213l578 -1204h6c-4.66699 102.667 -8.16699 187.167 -10.5 253.5s-3.5 116.5 -3.5 150.5v800h174v-1462h-215l-580 1210h-8c12 -184.667 18 -323.667 18 -417v-793h-172v1462zM400 1907c54.667 -36 125.001 -98.332 211.001 -186.999
c81.333 85.333 151.666 147.666 210.999 186.999h121v-27l-27.5 -31l-31.5 -36c-48 -52 -86.5 -97.667 -115.5 -137s-49.167 -71.666 -60.5 -96.999h-193c-11.333 25.333 -31.5 57.166 -60.5 95.499s-67.5 84.5 -115.5 138.5l-59 67v27h120z" />
    <glyph glyph-name="ncaron" unicode="&#x148;" 
d="M160 1098h147l27 -148h10c69.333 112 181.333 168 336 168c259.333 0 389 -133.667 389 -401v-717h-182v707c0 173.333 -79.333 260 -238 260c-204.667 0 -307 -132.667 -307 -398v-569h-182v1098zM415 1569c54.667 -36 125.001 -98.332 211.001 -186.999
c81.333 85.333 151.666 147.666 210.999 186.999h121v-27l-27.5 -31l-31.5 -36c-48 -52 -86.5 -97.667 -115.5 -137s-49.167 -71.666 -60.5 -96.999h-193c-11.333 25.333 -31.5 57.166 -60.5 95.499s-67.5 84.5 -115.5 138.5l-59 67v27h120z" />
    <glyph glyph-name="napostrophe" unicode="&#x149;" 
d="M262 1098l148 -0.00195312l26 -148h10c14 26 32 49.333 54 70s46.833 38.334 74.5 53.001s57.667 25.834 90 33.501s65.5 11.5 99.5 11.5c244 0 366 -133.667 366 -401v-717h-182v707c0 173.333 -73 260 -219 260c-190 0 -285 -132.667 -285 -398v-569h-182v1098z
M-16 960.998c20 80.667 38.333 162.5 55 245.5s31.667 168.167 45 255.5h199l14 -22c-16.667 -66 -39.5 -138.333 -68.5 -217s-64.833 -166 -107.5 -262h-137z" />
    <glyph glyph-name="Eng" unicode="&#x14a;" 
d="M348 1462l578 -1128h10c-12 183.333 -18 317.666 -18 402.999v725h174v-1442c0 -134 -32.833 -235.667 -98.5 -305s-161.834 -104 -288.501 -104c-62.667 0 -114.667 8 -156 24v160c54.667 -13.333 107.334 -20 158.001 -20c140.667 0 211 75 211 225l-621 1210h-8
c12 -184.667 18 -323.667 18 -417v-793h-172v1462h213z" />
    <glyph glyph-name="eng" unicode="&#x14b;" 
d="M307 1098l27 -148h10c69.333 112 181.333 168 336 168c259.333 0 389 -133.667 389 -401v-875c0 -222.667 -97 -334 -291 -334c-56 0 -100.333 8.33301 -133 25v148c36 -14 74.333 -21 115 -21c84.667 0 127 56.667 127 170v877c0 173.333 -79.333 260 -238 260
c-204.667 0 -307 -132.667 -307 -398v-569h-182v1098h147z" />
    <glyph glyph-name="Omacron" unicode="&#x14c;" 
d="M84 735c0 500 177.999 750.001 533.999 750.001c85.333 0 160.833 -16.667 226.5 -50s121 -82 166 -146s79 -142.667 102 -236s34.5 -200 34.5 -320c0 -58.667 -3.33301 -118 -10 -178s-18 -117.833 -34 -173.5s-37.167 -107.834 -63.5 -156.501
s-59.166 -91.167 -98.499 -127.5s-85.833 -65 -139.5 -86s-115.5 -31.5 -185.5 -31.5c-354.667 0 -532 251.667 -532 755zM615.999 143.001c115.333 0 199.833 48.333 253.5 145s80.5 245 80.5 445c0 202 -27.167 350.5 -81.5 445.5s-137.833 142.5 -250.5 142.5
c-224.667 0 -337 -196 -337 -588c0 -393.333 111.667 -590 335 -590zM329.999 1729h575v-150h-575v150z" />
    <glyph glyph-name="omacron" unicode="&#x14d;" 
d="M251 966c91.333 101.333 213.003 152.001 365.003 152.001c144.667 0 263.667 -51.667 357 -155c92.667 -102.667 139 -240 139 -412c0 -78.667 -10.333 -152.667 -31 -222s-51.834 -129.833 -93.501 -181.5s-93.834 -92.5 -156.501 -122.5s-136.334 -45 -221.001 -45
c-142.667 0 -261 52 -355 156c-93.333 103.333 -140 241.666 -140 414.999c0 176 45.333 314.333 136 415zM303.003 551.001c0 -280 103.667 -420 311 -420c206.667 0 310 140 310 420c0 277.333 -104 416 -312 416c-206 0 -309 -138.667 -309 -416zM326.003 1391h575v-150
h-575v150z" />
    <glyph glyph-name="Obreve" unicode="&#x14e;" 
d="M84 735c0 500 177.999 750.001 533.999 750.001c85.333 0 160.833 -16.667 226.5 -50s121 -82 166 -146s79 -142.667 102 -236s34.5 -200 34.5 -320c0 -58.667 -3.33301 -118 -10 -178s-18 -117.833 -34 -173.5s-37.167 -107.834 -63.5 -156.501
s-59.166 -91.167 -98.499 -127.5s-85.833 -65 -139.5 -86s-115.5 -31.5 -185.5 -31.5c-354.667 0 -532 251.667 -532 755zM615.999 143.001c115.333 0 199.833 48.333 253.5 145s80.5 245 80.5 445c0 202 -27.167 350.5 -81.5 445.5s-137.833 142.5 -250.5 142.5
c-224.667 0 -337 -196 -337 -588c0 -393.333 111.667 -590 335 -590zM420.999 1856c3.33301 -30 10.167 -53.333 20.5 -70s23.666 -29 39.999 -37s35.5 -13 57.5 -15s46 -3 72 -3c120 0 183.667 41.667 191 125h112c-2.66699 -42 -11.667 -80.167 -27 -114.5
s-36 -63.5 -62 -87.5s-57.167 -42.5 -93.5 -55.5s-77.166 -19.5 -122.499 -19.5c-187.333 0 -286.333 92.333 -297 277h109z" />
    <glyph glyph-name="obreve" unicode="&#x14f;" 
d="M251 966c91.333 101.333 213.003 152.001 365.003 152.001c144.667 0 263.667 -51.667 357 -155c92.667 -102.667 139 -240 139 -412c0 -78.667 -10.333 -152.667 -31 -222s-51.834 -129.833 -93.501 -181.5s-93.834 -92.5 -156.501 -122.5s-136.334 -45 -221.001 -45
c-142.667 0 -261 52 -355 156c-93.333 103.333 -140 241.666 -140 414.999c0 176 45.333 314.333 136 415zM303.003 551.001c0 -280 103.667 -420 311 -420c206.667 0 310 140 310 420c0 277.333 -104 416 -312 416c-206 0 -309 -138.667 -309 -416zM422.003 1518
c3.33301 -30 10.167 -53.333 20.5 -70s23.666 -29 39.999 -37s35.5 -13 57.5 -15s46 -3 72 -3c120 0 183.667 41.667 191 125h112c-2.66699 -42 -11.667 -80.167 -27 -114.5s-36 -63.5 -62 -87.5s-57.167 -42.5 -93.5 -55.5s-77.166 -19.5 -122.499 -19.5
c-187.333 0 -286.333 92.333 -297 277h109z" />
    <glyph glyph-name="Ohungarumlaut" unicode="&#x150;" 
d="M84 735c0 500 177.999 750.001 533.999 750.001c85.333 0 160.833 -16.667 226.5 -50s121 -82 166 -146s79 -142.667 102 -236s34.5 -200 34.5 -320c0 -58.667 -3.33301 -118 -10 -178s-18 -117.833 -34 -173.5s-37.167 -107.834 -63.5 -156.501
s-59.166 -91.167 -98.499 -127.5s-85.833 -65 -139.5 -86s-115.5 -31.5 -185.5 -31.5c-354.667 0 -532 251.667 -532 755zM615.999 143.001c115.333 0 199.833 48.333 253.5 145s80.5 245 80.5 445c0 202 -27.167 350.5 -81.5 445.5s-137.833 142.5 -250.5 142.5
c-224.667 0 -337 -196 -337 -588c0 -393.333 111.667 -590 335 -590zM325.999 1606c63.333 92 121.333 192.335 174 301.002h198v-21c-38 -58.667 -79.333 -113.334 -124 -164.001s-94 -98.334 -148 -143.001h-100v27zM687.999 1606c30 40 59.332 85.002 87.999 135.002
s57.334 105.333 86.001 166h199v-21c-38 -58.667 -79.333 -113.334 -124 -164.001s-94 -98.334 -148 -143.001h-101v27z" />
    <glyph glyph-name="ohungarumlaut" unicode="&#x151;" 
d="M251 966c91.333 101.333 213.003 152.001 365.003 152.001c144.667 0 263.667 -51.667 357 -155c92.667 -102.667 139 -240 139 -412c0 -78.667 -10.333 -152.667 -31 -222s-51.834 -129.833 -93.501 -181.5s-93.834 -92.5 -156.501 -122.5s-136.334 -45 -221.001 -45
c-142.667 0 -261 52 -355 156c-93.333 103.333 -140 241.666 -140 414.999c0 176 45.333 314.333 136 415zM303.003 551.001c0 -280 103.667 -420 311 -420c206.667 0 310 140 310 420c0 277.333 -104 416 -312 416c-206 0 -309 -138.667 -309 -416zM328.003 1268
c63.333 92 121.333 192.335 174 301.002h198v-21c-38 -58.667 -79.333 -113.334 -124 -164.001s-94 -98.334 -148 -143.001h-100v27zM690.003 1268c30 40 59.332 85.002 87.999 135.002s57.334 105.333 86.001 166h199v-21c-38 -58.667 -79.333 -113.334 -124 -164.001
s-94 -98.334 -148 -143.001h-101v27z" />
    <glyph glyph-name="OE" unicode="&#x152;" 
d="M532 1485c51.333 0 102.666 -7.66699 153.999 -23h541v-164h-398v-452h359v-162h-359v-520h398v-164h-574l-48 -10c-15.333 -3.33301 -31.166 -5.83301 -47.499 -7.5s-32.833 -2.5 -49.5 -2.5c-325.333 0 -488 251.667 -488 755c0 500 170.667 750 512 750zM209 733
c0 -393.333 103.001 -590 309.001 -590c46.667 0 91 11 133 33v1112c-38.667 22 -82.334 33 -131.001 33c-207.333 0 -311 -196 -311 -588z" />
    <glyph glyph-name="oe" unicode="&#x153;" 
d="M57 551c0 180 29.334 319.331 88.001 417.998c59.333 99.333 140 149 242 149c114.667 0 201.334 -72.333 260.001 -217c56 144.667 136.667 217 242 217c39.333 0 73.666 -8 102.999 -24s54.5 -37.167 75.5 -63.5s38.333 -56.666 52 -90.999s24.5 -69.666 32.5 -105.999
s13.667 -72.333 17 -108s5 -68.5 5 -98.5v-113h-439c2 -250 65 -375 189 -375c73.333 0 141.333 25.333 204 76v-162c-62.667 -48.667 -135 -73 -217 -73c-28.667 0 -56.5 5.16699 -83.5 15.5s-51.833 25 -74.5 44s-42.834 42.167 -60.501 69.5s-31.5 58 -41.5 92
c-59.333 -147.333 -148 -221 -266 -221c-96 0 -175 51.333 -237 154c-60.667 100.667 -91 239.667 -91 417zM397.001 130.998c112 0 168 136.666 168 409.999c0 284 -56.667 426 -170 426c-60 0 -103 -34.333 -129 -103s-39 -173 -39 -313
c0 -141.333 13.167 -246.666 39.5 -315.999s69.833 -104 130.5 -104zM737.001 661.997h260c0 203.333 -41 305 -123 305c-83.333 0 -129 -101.667 -137 -305z" />
    <glyph glyph-name="Racute" unicode="&#x154;" 
d="M186 0v1462h357c346.667 0 520 -138.333 520 -415c0 -191.333 -96.333 -322 -289 -392l397 -655h-219l-350 604h-229v-604h-187zM373 762l164 0.00195312c114 0 198 22 252 66s81 114 81 210c0 47.333 -6.5 87.666 -19.5 120.999s-33.167 60.666 -60.5 81.999
s-62.333 37 -105 47s-93.667 15 -153 15h-159v-541zM447 1579v27.002c63.333 92 121.333 192.333 174 301h219v-21c-38 -58.667 -79.333 -113.334 -124 -164.001s-94 -98.334 -148 -143.001h-121z" />
    <glyph glyph-name="racute" unicode="&#x155;" 
d="M264 1098l148 0.000976562l22 -201h8c25.333 40 51.333 74 78 102s55 50.833 85 68.5s62.667 30.5 98 38.5s74 12 116 12c79.333 0 159.333 -15 240 -45l-49 -166c-82 30 -156.667 45 -224 45c-110.667 0 -195 -30.333 -253 -91s-87 -150.334 -87 -269.001v-592h-182
v1098zM510 1241v27.002c63.333 92 121.333 192.333 174 301h219v-21c-38 -58.667 -79.333 -113.334 -124 -164.001s-94 -98.334 -148 -143.001h-121z" />
    <glyph glyph-name="uni0156" unicode="&#x156;" 
d="M186 0v1462h357c346.667 0 520 -138.333 520 -415c0 -191.333 -96.333 -322 -289 -392l397 -655h-219l-350 604h-229v-604h-187zM373 762l164 0.00195312c114 0 198 22 252 66s81 114 81 210c0 47.333 -6.5 87.666 -19.5 120.999s-33.167 60.666 -60.5 81.999
s-62.333 37 -105 47s-93.667 15 -153 15h-159v-541zM480 -452.998v27c40.667 92.667 68.667 193 84 301h178v-20c0 -14.667 -16 -56 -48 -124s-70.333 -129.333 -115 -184h-99z" />
    <glyph glyph-name="uni0157" unicode="&#x157;" 
d="M264 1098l148 0.000976562l22 -201h8c25.333 40 51.333 74 78 102s55 50.833 85 68.5s62.667 30.5 98 38.5s74 12 116 12c79.333 0 159.333 -15 240 -45l-49 -166c-82 30 -156.667 45 -224 45c-110.667 0 -195 -30.333 -253 -91s-87 -150.334 -87 -269.001v-592h-182
v1098zM187 -452.999v27c40.667 92.667 68.667 193 84 301h178v-20c0 -14.667 -16 -56 -48 -124s-70.333 -129.333 -115 -184h-99z" />
    <glyph glyph-name="Rcaron" unicode="&#x158;" 
d="M186 0v1462h357c346.667 0 520 -138.333 520 -415c0 -191.333 -96.333 -322 -289 -392l397 -655h-219l-350 604h-229v-604h-187zM373 762l164 0.00195312c114 0 198 22 252 66s81 114 81 210c0 47.333 -6.5 87.666 -19.5 120.999s-33.167 60.666 -60.5 81.999
s-62.333 37 -105 47s-93.667 15 -153 15h-159v-541zM373 1907c54.667 -36 125.001 -98.332 211.001 -186.999c81.333 85.333 151.666 147.666 210.999 186.999h121v-27l-27.5 -31l-31.5 -36c-48 -52 -86.5 -97.667 -115.5 -137s-49.167 -71.666 -60.5 -96.999h-193
c-11.333 25.333 -31.5 57.166 -60.5 95.499s-67.5 84.5 -115.5 138.5l-59 67v27h120z" />
    <glyph glyph-name="rcaron" unicode="&#x159;" 
d="M264 1098l148 0.000976562l22 -201h8c25.333 40 51.333 74 78 102s55 50.833 85 68.5s62.667 30.5 98 38.5s74 12 116 12c79.333 0 159.333 -15 240 -45l-49 -166c-82 30 -156.667 45 -224 45c-110.667 0 -195 -30.333 -253 -91s-87 -150.334 -87 -269.001v-592h-182
v1098zM415 1569c54.667 -36 125.001 -98.332 211.001 -186.999c81.333 85.333 151.666 147.666 210.999 186.999h121v-27l-27.5 -31l-31.5 -36c-48 -52 -86.5 -97.667 -115.5 -137s-49.167 -71.666 -60.5 -96.999h-193c-11.333 25.333 -31.5 57.166 -60.5 95.499
s-67.5 84.5 -115.5 138.5l-59 67v27h120z" />
    <glyph glyph-name="Sacute" unicode="&#x15a;" 
d="M141 227c144 -57.333 281.999 -85.9961 413.999 -85.9961c233.333 0 350 80 350 240c0 70 -23.333 123.333 -70 160c-24 18.667 -59.5 39.167 -106.5 61.5s-106.833 46.166 -179.5 71.499c-54.667 19.333 -105.667 41.166 -153 65.499s-88.5 53.5 -123.5 87.5
s-62.5 74.167 -82.5 120.5s-30 101.166 -30 164.499c0 68.667 13.833 126.667 41.5 174s64.167 85.5 109.5 114.5s96.666 50 153.999 63s116 19.5 176 19.5c152.667 0 291.334 -26 416.001 -78l-64 -164c-128.667 52 -248.667 78 -360 78c-195.333 0 -293 -69.667 -293 -209
c0 -68 22 -122.667 66 -164c22 -20.667 55.333 -42.167 100 -64.5s101.334 -45.166 170.001 -68.499c84 -30 152.833 -59.667 206.5 -89s94.5 -60 122.5 -92c54.667 -62.667 82 -143 82 -241c0 -64 -11.833 -121.333 -35.5 -172s-58 -93.834 -103 -129.501
s-100.5 -62.834 -166.5 -81.501s-141.667 -28 -227 -28c-176.667 0 -314.667 23 -414 69v178zM513.999 1579v27.002c63.333 92 121.333 192.333 174 301h219v-21c-38 -58.667 -79.333 -113.334 -124 -164.001s-94 -98.334 -148 -143.001h-121z" />
    <glyph glyph-name="sacute" unicode="&#x15b;" 
d="M203 215c132 -57.333 255.333 -86 370 -86c183.333 0 275 54 275 162c0 38 -16.333 71 -49 99c-16.667 14 -43.5 29.5 -80.5 46.5s-85.5 36.833 -145.5 59.5c-78 30 -141.167 58 -189.5 84s-82.833 51.333 -103.5 76c-40.667 48.667 -61 105.667 -61 171
c0 45.333 9.5 86 28.5 122s46.5 66.5 82.5 91.5s80 44.167 132 57.5s111 20 177 20c129.333 0 252.333 -24.667 369 -74l-60 -149c-120.667 48 -227 72 -319 72c-157.333 0 -236 -44.333 -236 -133c0 -40.667 17 -73 51 -97c16.667 -11.333 44 -25.666 82 -42.999
s88 -37 150 -59c142 -51.333 235.667 -101.666 281 -150.999c46 -50 69 -111 69 -183c0 -50 -10 -94.833 -30 -134.5s-49 -73.334 -87 -101.001s-84.833 -48.834 -140.5 -63.501s-119.167 -22 -190.5 -22c-164.667 0 -289.667 23 -375 69v166zM512 1241v27.002
c63.333 92 121.333 192.333 174 301h219v-21c-38 -58.667 -79.333 -113.334 -124 -164.001s-94 -98.334 -148 -143.001h-121z" />
    <glyph glyph-name="Scircumflex" unicode="&#x15c;" 
d="M141 227c144 -57.333 281.999 -85.9961 413.999 -85.9961c233.333 0 350 80 350 240c0 70 -23.333 123.333 -70 160c-24 18.667 -59.5 39.167 -106.5 61.5s-106.833 46.166 -179.5 71.499c-54.667 19.333 -105.667 41.166 -153 65.499s-88.5 53.5 -123.5 87.5
s-62.5 74.167 -82.5 120.5s-30 101.166 -30 164.499c0 68.667 13.833 126.667 41.5 174s64.167 85.5 109.5 114.5s96.666 50 153.999 63s116 19.5 176 19.5c152.667 0 291.334 -26 416.001 -78l-64 -164c-128.667 52 -248.667 78 -360 78c-195.333 0 -293 -69.667 -293 -209
c0 -68 22 -122.667 66 -164c22 -20.667 55.333 -42.167 100 -64.5s101.334 -45.166 170.001 -68.499c84 -30 152.833 -59.667 206.5 -89s94.5 -60 122.5 -92c54.667 -62.667 82 -143 82 -241c0 -64 -11.833 -121.333 -35.5 -172s-58 -93.834 -103 -129.501
s-100.5 -62.834 -166.5 -81.501s-141.667 -28 -227 -28c-176.667 0 -314.667 23 -414 69v178zM302.999 1579l-0.000976562 27l27.5 31l31.5 36c48 52 86.167 97.333 114.5 136s48.833 71.334 61.5 98.001h193c12.667 -26.667 33.667 -59.334 63 -98.001s67 -84 113 -136
l59 -67v-27h-121c-28 18.667 -59.5 43.334 -94.5 74.001s-73.833 68 -116.5 112c-44.667 -46 -84.667 -84.333 -120 -115s-65.666 -54.334 -90.999 -71.001h-120z" />
    <glyph glyph-name="scircumflex" unicode="&#x15d;" 
d="M203 215c132 -57.333 255.333 -86 370 -86c183.333 0 275 54 275 162c0 38 -16.333 71 -49 99c-16.667 14 -43.5 29.5 -80.5 46.5s-85.5 36.833 -145.5 59.5c-78 30 -141.167 58 -189.5 84s-82.833 51.333 -103.5 76c-40.667 48.667 -61 105.667 -61 171
c0 45.333 9.5 86 28.5 122s46.5 66.5 82.5 91.5s80 44.167 132 57.5s111 20 177 20c129.333 0 252.333 -24.667 369 -74l-60 -149c-120.667 48 -227 72 -319 72c-157.333 0 -236 -44.333 -236 -133c0 -40.667 17 -73 51 -97c16.667 -11.333 44 -25.666 82 -42.999
s88 -37 150 -59c142 -51.333 235.667 -101.666 281 -150.999c46 -50 69 -111 69 -183c0 -50 -10 -94.833 -30 -134.5s-49 -73.334 -87 -101.001s-84.833 -48.834 -140.5 -63.501s-119.167 -22 -190.5 -22c-164.667 0 -289.667 23 -375 69v166zM306 1241l-0.000976562 27
l27.5 31l31.5 36c48 52 86.167 97.333 114.5 136s48.833 71.334 61.5 98.001h193c12.667 -26.667 33.667 -59.334 63 -98.001s67 -84 113 -136l59 -67v-27h-121c-28 18.667 -59.5 43.334 -94.5 74.001s-73.833 68 -116.5 112c-44.667 -46 -84.667 -84.333 -120 -115
s-65.666 -54.334 -90.999 -71.001h-120z" />
    <glyph glyph-name="Scedilla" unicode="&#x15e;" 
d="M141 227c144 -57.333 281.999 -85.9961 413.999 -85.9961c233.333 0 350 80 350 240c0 70 -23.333 123.333 -70 160c-24 18.667 -59.5 39.167 -106.5 61.5s-106.833 46.166 -179.5 71.499c-54.667 19.333 -105.667 41.166 -153 65.499s-88.5 53.5 -123.5 87.5
s-62.5 74.167 -82.5 120.5s-30 101.166 -30 164.499c0 68.667 13.833 126.667 41.5 174s64.167 85.5 109.5 114.5s96.666 50 153.999 63s116 19.5 176 19.5c152.667 0 291.334 -26 416.001 -78l-64 -164c-128.667 52 -248.667 78 -360 78c-195.333 0 -293 -69.667 -293 -209
c0 -68 22 -122.667 66 -164c22 -20.667 55.333 -42.167 100 -64.5s101.334 -45.166 170.001 -68.499c84 -30 152.833 -59.667 206.5 -89s94.5 -60 122.5 -92c54.667 -62.667 82 -143 82 -241c0 -64 -11.833 -121.333 -35.5 -172s-58 -93.834 -103 -129.501
s-100.5 -62.834 -166.5 -81.501s-141.667 -28 -227 -28c-176.667 0 -314.667 23 -414 69v178zM405.999 -374.996c22 -4 48.667 -6 80 -6c100.667 0 151 30.667 151 92c0 49.333 -57.333 87 -172 113l91 176h120l-57 -115c106.667 -24.667 160 -82 160 -172
c0 -136.667 -97 -205 -291 -205c-22.667 0 -50 3 -82 9v108z" />
    <glyph glyph-name="scedilla" unicode="&#x15f;" 
d="M203 215c132 -57.333 255.333 -86 370 -86c183.333 0 275 54 275 162c0 38 -16.333 71 -49 99c-16.667 14 -43.5 29.5 -80.5 46.5s-85.5 36.833 -145.5 59.5c-78 30 -141.167 58 -189.5 84s-82.833 51.333 -103.5 76c-40.667 48.667 -61 105.667 -61 171
c0 45.333 9.5 86 28.5 122s46.5 66.5 82.5 91.5s80 44.167 132 57.5s111 20 177 20c129.333 0 252.333 -24.667 369 -74l-60 -149c-120.667 48 -227 72 -319 72c-157.333 0 -236 -44.333 -236 -133c0 -40.667 17 -73 51 -97c16.667 -11.333 44 -25.666 82 -42.999
s88 -37 150 -59c142 -51.333 235.667 -101.666 281 -150.999c46 -50 69 -111 69 -183c0 -50 -10 -94.833 -30 -134.5s-49 -73.334 -87 -101.001s-84.833 -48.834 -140.5 -63.501s-119.167 -22 -190.5 -22c-164.667 0 -289.667 23 -375 69v166zM419 -375
c22 -4 48.667 -6 80 -6c100.667 0 151 30.667 151 92c0 49.333 -57.333 87 -172 113l91 176h120l-57 -115c106.667 -24.667 160 -82 160 -172c0 -136.667 -97 -205 -291 -205c-22.667 0 -50 3 -82 9v108z" />
    <glyph glyph-name="Scaron" unicode="&#x160;" 
d="M141 227c144 -57.333 281.999 -85.9961 413.999 -85.9961c233.333 0 350 80 350 240c0 70 -23.333 123.333 -70 160c-24 18.667 -59.5 39.167 -106.5 61.5s-106.833 46.166 -179.5 71.499c-54.667 19.333 -105.667 41.166 -153 65.499s-88.5 53.5 -123.5 87.5
s-62.5 74.167 -82.5 120.5s-30 101.166 -30 164.499c0 68.667 13.833 126.667 41.5 174s64.167 85.5 109.5 114.5s96.666 50 153.999 63s116 19.5 176 19.5c152.667 0 291.334 -26 416.001 -78l-64 -164c-128.667 52 -248.667 78 -360 78c-195.333 0 -293 -69.667 -293 -209
c0 -68 22 -122.667 66 -164c22 -20.667 55.333 -42.167 100 -64.5s101.334 -45.166 170.001 -68.499c84 -30 152.833 -59.667 206.5 -89s94.5 -60 122.5 -92c54.667 -62.667 82 -143 82 -241c0 -64 -11.833 -121.333 -35.5 -172s-58 -93.834 -103 -129.501
s-100.5 -62.834 -166.5 -81.501s-141.667 -28 -227 -28c-176.667 0 -314.667 23 -414 69v178zM433.999 1907c54.667 -36 125.001 -98.332 211.001 -186.999c81.333 85.333 151.666 147.666 210.999 186.999h121v-27l-27.5 -31l-31.5 -36c-48 -52 -86.5 -97.667 -115.5 -137
s-49.167 -71.666 -60.5 -96.999h-193c-11.333 25.333 -31.5 57.166 -60.5 95.499s-67.5 84.5 -115.5 138.5l-59 67v27h120z" />
    <glyph glyph-name="scaron" unicode="&#x161;" 
d="M203 215c132 -57.333 255.333 -86 370 -86c183.333 0 275 54 275 162c0 38 -16.333 71 -49 99c-16.667 14 -43.5 29.5 -80.5 46.5s-85.5 36.833 -145.5 59.5c-78 30 -141.167 58 -189.5 84s-82.833 51.333 -103.5 76c-40.667 48.667 -61 105.667 -61 171
c0 45.333 9.5 86 28.5 122s46.5 66.5 82.5 91.5s80 44.167 132 57.5s111 20 177 20c129.333 0 252.333 -24.667 369 -74l-60 -149c-120.667 48 -227 72 -319 72c-157.333 0 -236 -44.333 -236 -133c0 -40.667 17 -73 51 -97c16.667 -11.333 44 -25.666 82 -42.999
s88 -37 150 -59c142 -51.333 235.667 -101.666 281 -150.999c46 -50 69 -111 69 -183c0 -50 -10 -94.833 -30 -134.5s-49 -73.334 -87 -101.001s-84.833 -48.834 -140.5 -63.501s-119.167 -22 -190.5 -22c-164.667 0 -289.667 23 -375 69v166zM413 1569
c54.667 -36 125.001 -98.332 211.001 -186.999c81.333 85.333 151.666 147.666 210.999 186.999h121v-27l-27.5 -31l-31.5 -36c-48 -52 -86.5 -97.667 -115.5 -137s-49.167 -71.666 -60.5 -96.999h-193c-11.333 25.333 -31.5 57.166 -60.5 95.499s-67.5 84.5 -115.5 138.5
l-59 67v27h120z" />
    <glyph glyph-name="uni0162" unicode="&#x162;" 
d="M102 1462h1022v-164h-417v-1298h-187v1298h-418v164zM428 -375c22 -4 48.667 -6 80 -6c100.667 0 151 30.667 151 92c0 49.333 -57.333 87 -172 113l91 176h120l-57 -115c106.667 -24.667 160 -82 160 -172c0 -136.667 -97 -205 -291 -205c-22.667 0 -50 3 -82 9v108z
" />
    <glyph glyph-name="uni0163" unicode="&#x163;" 
d="M139 961v137h267v364h182v-364h438v-137h-438v-637c0 -130 64 -195 192 -195c62 0 142 7 240 21v-138c-92.667 -21.333 -176.667 -32 -252 -32c-241.333 0 -362 114.667 -362 344v637h-267zM468 -375c22 -4 48.667 -6 80 -6c100.667 0 151 30.667 151 92
c0 49.333 -57.333 87 -172 113l91 176h120l-57 -115c106.667 -24.667 160 -82 160 -172c0 -136.667 -97 -205 -291 -205c-22.667 0 -50 3 -82 9v108z" />
    <glyph glyph-name="Tcaron" unicode="&#x164;" 
d="M102 1462h1022v-164h-417v-1298h-187v1298h-418v164zM402 1907c54.667 -36 125.001 -98.332 211.001 -186.999c81.333 85.333 151.666 147.666 210.999 186.999h121v-27l-27.5 -31l-31.5 -36c-48 -52 -86.5 -97.667 -115.5 -137s-49.167 -71.666 -60.5 -96.999h-193
c-11.333 25.333 -31.5 57.166 -60.5 95.499s-67.5 84.5 -115.5 138.5l-59 67v27h120z" />
    <glyph glyph-name="tcaron" unicode="&#x165;" 
d="M139 961v137h267v364h182v-364h438v-137h-438v-637c0 -130 64 -195 192 -195c62 0 142 7 240 21v-138c-92.667 -21.333 -176.667 -32 -252 -32c-241.333 0 -362 114.667 -362 344v637h-267zM799 1255l25.999 107.001c8.66699 38.667 15.834 74.167 21.501 106.5
s10.167 61.5 13.5 87.5h180v-20c0 -4.66699 -3.66699 -16.334 -11 -35.001l-31 -78c-14 -34 -29.5 -66.833 -46.5 -98.5s-35.833 -63.5 -56.5 -95.5h-96v26z" />
    <glyph glyph-name="Tbar" unicode="&#x166;" 
d="M102 1462h1022v-164h-417v-479h294v-149h-294v-670h-187v670h-297v149h297v479h-418v164z" />
    <glyph glyph-name="tbar" unicode="&#x167;" 
d="M139 1055l267 49l77 287h105v-293h438v-137h-438v-248h307v-138h-307v-251c0 -130 64 -195 192 -195c62 0 142 7 240 21v-138c-92.667 -21.333 -176.667 -32 -252 -32c-241.333 0 -362 114.667 -362 344v251h-162v138h162v248h-267v94z" />
    <glyph glyph-name="Utilde" unicode="&#x168;" 
d="M125 520v942h186v-932c0 -258 102.333 -387 307 -387c196.667 0 296.667 129.667 300 389v932h186v-948c0 -173.333 -42 -306 -126 -398s-207.333 -138 -370 -138c-322 0 -483 180 -483 540zM260 1579c17.333 176 87.6689 263.999 211.002 263.999
c38 0 91.667 -18.667 161 -56s114.666 -56 135.999 -56c54 0 89.333 38 106 114h105c-18 -176 -88.333 -264 -211 -264c-19.333 0 -41.833 4.83301 -67.5 14.5s-55.5 23.834 -89.5 42.501c-67.333 37.333 -114 56 -140 56c-54.667 0 -90.334 -38.333 -107.001 -115h-104z
" />
    <glyph glyph-name="utilde" unicode="&#x169;" 
d="M160 381v717h182v-707c0 -173.333 78.667 -260 236 -260c54 0 100.333 7.33301 139 22s70.667 38 96 70s44 73.167 56 123.5s18 110.833 18 181.5v570h182v-1098h-147l-27 147h-10c-70 -111.333 -181.333 -167 -334 -167c-260.667 0 -391 133.667 -391 401zM256 1241
c17.333 176 87.6689 263.999 211.002 263.999c38 0 91.667 -18.667 161 -56s114.666 -56 135.999 -56c54 0 89.333 38 106 114h105c-18 -176 -88.333 -264 -211 -264c-19.333 0 -41.833 4.83301 -67.5 14.5s-55.5 23.834 -89.5 42.501c-67.333 37.333 -114 56 -140 56
c-54.667 0 -90.334 -38.333 -107.001 -115h-104z" />
    <glyph glyph-name="Umacron" unicode="&#x16a;" 
d="M125 520v942h186v-932c0 -258 102.333 -387 307 -387c196.667 0 296.667 129.667 300 389v932h186v-948c0 -173.333 -42 -306 -126 -398s-207.333 -138 -370 -138c-322 0 -483 180 -483 540zM326 1729h575v-150h-575v150z" />
    <glyph glyph-name="umacron" unicode="&#x16b;" 
d="M160 381v717h182v-707c0 -173.333 78.667 -260 236 -260c54 0 100.333 7.33301 139 22s70.667 38 96 70s44 73.167 56 123.5s18 110.833 18 181.5v570h182v-1098h-147l-27 147h-10c-70 -111.333 -181.333 -167 -334 -167c-260.667 0 -391 133.667 -391 401zM328 1391h575
v-150h-575v150z" />
    <glyph glyph-name="Ubreve" unicode="&#x16c;" 
d="M125 520v942h186v-932c0 -258 102.333 -387 307 -387c196.667 0 296.667 129.667 300 389v932h186v-948c0 -173.333 -42 -306 -126 -398s-207.333 -138 -370 -138c-322 0 -483 180 -483 540zM421 1856c3.33301 -30 10.167 -53.333 20.5 -70s23.666 -29 39.999 -37
s35.5 -13 57.5 -15s46 -3 72 -3c120 0 183.667 41.667 191 125h112c-2.66699 -42 -11.667 -80.167 -27 -114.5s-36 -63.5 -62 -87.5s-57.167 -42.5 -93.5 -55.5s-77.166 -19.5 -122.499 -19.5c-187.333 0 -286.333 92.333 -297 277h109z" />
    <glyph glyph-name="ubreve" unicode="&#x16d;" 
d="M160 381v717h182v-707c0 -173.333 78.667 -260 236 -260c54 0 100.333 7.33301 139 22s70.667 38 96 70s44 73.167 56 123.5s18 110.833 18 181.5v570h182v-1098h-147l-27 147h-10c-70 -111.333 -181.333 -167 -334 -167c-260.667 0 -391 133.667 -391 401zM422 1518
c3.33301 -30 10.167 -53.333 20.5 -70s23.666 -29 39.999 -37s35.5 -13 57.5 -15s46 -3 72 -3c120 0 183.667 41.667 191 125h112c-2.66699 -42 -11.667 -80.167 -27 -114.5s-36 -63.5 -62 -87.5s-57.167 -42.5 -93.5 -55.5s-77.166 -19.5 -122.499 -19.5
c-187.333 0 -286.333 92.333 -297 277h109z" />
    <glyph glyph-name="Uring" unicode="&#x16e;" 
d="M125 520v942h186v-932c0 -258 102.333 -387 307 -387c196.667 0 296.667 129.667 300 389v932h186v-948c0 -173.333 -42 -306 -126 -398s-207.333 -138 -370 -138c-322 0 -483 180 -483 540zM612 2009c32 0 61.999 -4.83496 89.999 -14.502s52.333 -23.667 73 -42
s37 -40.666 49 -66.999s18 -56.166 18 -89.499c0 -32.667 -5.5 -62.334 -16.5 -89.001s-26.667 -49.5 -47 -68.5s-44.666 -33.667 -72.999 -44s-59.5 -15.5 -93.5 -15.5s-64.667 5 -92 15s-50.833 24.333 -70.5 43s-34.667 41.334 -45 68.001s-15.5 56.334 -15.5 89.001
c0 33.333 5.16699 63.166 15.5 89.499s25.333 48.833 45 67.5s43.167 33 70.5 43s58 15 92 15zM499.999 1794c0 -75.333 37.333 -113 112 -113c34 0 61.333 9.83301 82 29.5s31 47.5 31 83.5s-10.333 63.833 -31 83.5s-48 29.5 -82 29.5
c-32.667 0 -59.5 -9.83301 -80.5 -29.5s-31.5 -47.5 -31.5 -83.5z" />
    <glyph glyph-name="uring" unicode="&#x16f;" 
d="M160 381v717h182v-707c0 -173.333 78.667 -260 236 -260c54 0 100.333 7.33301 139 22s70.667 38 96 70s44 73.167 56 123.5s18 110.833 18 181.5v570h182v-1098h-147l-27 147h-10c-70 -111.333 -181.333 -167 -334 -167c-260.667 0 -391 133.667 -391 401zM607 1671
c32 0 61.999 -4.83496 89.999 -14.502s52.333 -23.667 73 -42s37 -40.666 49 -66.999s18 -56.166 18 -89.499c0 -32.667 -5.5 -62.334 -16.5 -89.001s-26.667 -49.5 -47 -68.5s-44.666 -33.667 -72.999 -44s-59.5 -15.5 -93.5 -15.5s-64.667 5 -92 15
s-50.833 24.333 -70.5 43s-34.667 41.334 -45 68.001s-15.5 56.334 -15.5 89.001c0 33.333 5.16699 63.166 15.5 89.499s25.333 48.833 45 67.5s43.167 33 70.5 43s58 15 92 15zM494.999 1456c0 -75.333 37.333 -113 112 -113c34 0 61.333 9.83301 82 29.5s31 47.5 31 83.5
s-10.333 63.833 -31 83.5s-48 29.5 -82 29.5c-32.667 0 -59.5 -9.83301 -80.5 -29.5s-31.5 -47.5 -31.5 -83.5z" />
    <glyph glyph-name="Uhungarumlaut" unicode="&#x170;" 
d="M125 520v942h186v-932c0 -258 102.333 -387 307 -387c196.667 0 296.667 129.667 300 389v932h186v-948c0 -173.333 -42 -306 -126 -398s-207.333 -138 -370 -138c-322 0 -483 180 -483 540zM322 1606c63.333 92 121.333 192.335 174 301.002h198v-21
c-38 -58.667 -79.333 -113.334 -124 -164.001s-94 -98.334 -148 -143.001h-100v27zM684 1606c30 40 59.332 85.002 87.999 135.002s57.334 105.333 86.001 166h199v-21c-38 -58.667 -79.333 -113.334 -124 -164.001s-94 -98.334 -148 -143.001h-101v27z" />
    <glyph glyph-name="uhungarumlaut" unicode="&#x171;" 
d="M160 381v717h182v-707c0 -173.333 78.667 -260 236 -260c54 0 100.333 7.33301 139 22s70.667 38 96 70s44 73.167 56 123.5s18 110.833 18 181.5v570h182v-1098h-147l-27 147h-10c-70 -111.333 -181.333 -167 -334 -167c-260.667 0 -391 133.667 -391 401zM326 1268
c63.333 92 121.333 192.335 174 301.002h198v-21c-38 -58.667 -79.333 -113.334 -124 -164.001s-94 -98.334 -148 -143.001h-100v27zM688 1268c30 40 59.332 85.002 87.999 135.002s57.334 105.333 86.001 166h199v-21c-38 -58.667 -79.333 -113.334 -124 -164.001
s-94 -98.334 -148 -143.001h-101v27z" />
    <glyph glyph-name="Uogonek" unicode="&#x172;" 
d="M125 520v942h186v-932c0 -258 102.333 -387 307 -387c196.667 0 296.667 129.667 300 389v932h186v-948c0 -173.333 -42 -306 -126 -398s-207.333 -138 -370 -138c-322 0 -483 180 -483 540zM441 -252c0 96 63.333 179.999 190 251.999h131
c-113.333 -83.333 -170 -162.666 -170 -237.999c0 -64 42.333 -96 127 -96c44 0 85 5 123 15v-113c-52 -15.333 -104 -23 -156 -23c-80.667 0 -141.667 18.167 -183 54.5s-62 85.833 -62 148.5z" />
    <glyph glyph-name="uogonek" unicode="&#x173;" 
d="M160 381v717h182v-707c0 -173.333 78.667 -260 236 -260c54 0 100.333 7.33301 139 22s70.667 38 96 70s44 73.167 56 123.5s18 110.833 18 181.5v570h182v-1098h-147l-27 147h-10c-70 -111.333 -181.333 -167 -334 -167c-260.667 0 -391 133.667 -391 401zM723 -252
c0 96 63.333 179.999 190 251.999h131c-113.333 -83.333 -170 -162.666 -170 -237.999c0 -64 42.333 -96 127 -96c44 0 85 5 123 15v-113c-52 -15.333 -104 -23 -156 -23c-80.667 0 -141.667 18.167 -183 54.5s-62 85.833 -62 148.5z" />
    <glyph glyph-name="Wcircumflex" unicode="&#x174;" 
d="M172 1462l88 -663.002c8 -58.667 15.333 -119.167 22 -181.5s12.667 -127.833 18 -196.5l12.5 -162c3 -39.333 4.5 -65.666 4.5 -78.999c8 50.667 17.833 101.834 29.5 153.501s25.167 104.5 40.5 158.5l141 516h177l145 -521c41.333 -146 65.333 -248.333 72 -307
c0.666992 17.333 6.33398 77.5 17.001 180.5s26.667 249.167 48 438.5l70 663h170l-187 -1462h-190l-168 580c-26.667 92 -48.667 186 -66 282c-10.667 -58.667 -21.334 -111.167 -32.001 -157.5s-21.667 -88.5 -33 -126.5l-156 -578h-190l-203 1462h170zM285 1579
l-0.000976562 27l27.5 31l31.5 36c48 52 86.167 97.333 114.5 136s48.833 71.334 61.5 98.001h193c12.667 -26.667 33.667 -59.334 63 -98.001s67 -84 113 -136l59 -67v-27h-121c-28 18.667 -59.5 43.334 -94.5 74.001s-73.833 68 -116.5 112
c-44.667 -46 -84.667 -84.333 -120 -115s-65.666 -54.334 -90.999 -71.001h-120z" />
    <glyph glyph-name="wcircumflex" unicode="&#x175;" 
d="M158 1098l98 -542.999c11.333 -62.667 21.833 -126.167 31.5 -190.5s18.167 -131.833 25.5 -202.5h6l32.5 182c11 58.667 22.833 117.334 35.5 176.001l133 578h193l127 -578c14 -64.667 26.667 -126.834 38 -186.501s21 -116.834 29 -171.501h6
c21.333 161.333 41.333 292.333 60 393l102 543h158l-225 -1098h-195l-131 596l-68 330h-6l-65 -334l-135 -592h-189l-223 1098h162zM280 1241l-0.000976562 27l27.5 31l31.5 36c48 52 86.167 97.333 114.5 136s48.833 71.334 61.5 98.001h193
c12.667 -26.667 33.667 -59.334 63 -98.001s67 -84 113 -136l59 -67v-27h-121c-28 18.667 -59.5 43.334 -94.5 74.001s-73.833 68 -116.5 112c-44.667 -46 -84.667 -84.333 -120 -115s-65.666 -54.334 -90.999 -71.001h-120z" />
    <glyph glyph-name="Ycircumflex" unicode="&#x176;" 
d="M33 1462h203l376 -739l381 739h201l-487 -893v-569h-187v559zM282 1579l-0.000976562 27l27.5 31l31.5 36c48 52 86.167 97.333 114.5 136s48.833 71.334 61.5 98.001h193c12.667 -26.667 33.667 -59.334 63 -98.001s67 -84 113 -136l59 -67v-27h-121
c-28 18.667 -59.5 43.334 -94.5 74.001s-73.833 68 -116.5 112c-44.667 -46 -84.667 -84.333 -120 -115s-65.666 -54.334 -90.999 -71.001h-120z" />
    <glyph glyph-name="ycircumflex" unicode="&#x177;" 
d="M270 1098l262.002 -654.001c28 -68.667 49.167 -127 63.5 -175s22.833 -86.333 25.5 -115h6c7.33301 38 18.666 81 33.999 129s34 102.333 56 163l239 652h189l-475 -1241c-22 -58.667 -46 -109.5 -72 -152.5s-54 -79.5 -84 -109.5c-58 -58 -140 -87 -246 -87
c-51.333 0 -107.333 5.66699 -168 17v145c41.333 -8 86.666 -12 135.999 -12c34.667 0 64.5 3.83301 89.5 11.5s47 19 66 34s35.5 33.833 49.5 56.5s27.333 49.334 40 80.001l58 150l-457 1108h188zM285.002 1241l-0.000976562 27l27.5 31l31.5 36
c48 52 86.167 97.333 114.5 136s48.833 71.334 61.5 98.001h193c12.667 -26.667 33.667 -59.334 63 -98.001s67 -84 113 -136l59 -67v-27h-121c-28 18.667 -59.5 43.334 -94.5 74.001s-73.833 68 -116.5 112c-44.667 -46 -84.667 -84.333 -120 -115
s-65.666 -54.334 -90.999 -71.001h-120z" />
    <glyph glyph-name="Ydieresis" unicode="&#x178;" 
d="M33 1462h203l376 -739l381 739h201l-487 -893v-569h-187v559zM803 1855c16 0 31 -3.16699 45 -9.5s26.333 -15 37 -26s19 -23.833 25 -38.5s9 -30.667 9 -48s-3 -33.5 -9 -48.5s-14.333 -28 -25 -39s-23 -19.667 -37 -26s-29 -9.5 -45 -9.5s-31 3.16699 -45 9.5
s-26.333 15 -37 26s-19 24 -25 39s-9 31.167 -9 48.5s3 33.333 9 48s14.333 27.5 25 38.5s23 19.667 37 26s29 9.5 45 9.5zM428 1855c16 0 31 -3.16699 45 -9.5s26.333 -15 37 -26s19 -23.833 25 -38.5s9 -30.667 9 -48s-3 -33.5 -9 -48.5s-14.333 -28 -25 -39
s-23 -19.667 -37 -26s-29 -9.5 -45 -9.5s-31 3.16699 -45 9.5s-26.333 15 -37 26s-19 24 -25 39s-9 31.167 -9 48.5s3 33.333 9 48s14.333 27.5 25 38.5s23 19.667 37 26s29 9.5 45 9.5z" />
    <glyph glyph-name="Zacute" unicode="&#x179;" 
d="M1124 0h-1022v145l793 1151h-772v166h981v-145l-793 -1151h813v-166zM475 1579v27.002c63.333 92 121.333 192.333 174 301h219v-21c-38 -58.667 -79.333 -113.334 -124 -164.001s-94 -98.334 -148 -143.001h-121z" />
    <glyph glyph-name="zacute" unicode="&#x17a;" 
d="M1044 0h-862v125l660 836h-627v137h811v-146l-647 -815h665v-137zM496 1241v27.002c63.333 92 121.333 192.333 174 301h219v-21c-38 -58.667 -79.333 -113.334 -124 -164.001s-94 -98.334 -148 -143.001h-121z" />
    <glyph glyph-name="Zdotaccent" unicode="&#x17b;" 
d="M1124 0h-1022v145l793 1151h-772v166h981v-145l-793 -1151h813v-166zM504 1733c0 19.333 3.16699 37.166 9.5 53.499s15.166 30.5 26.499 42.5s24.666 21.333 39.999 28s32 10 50 10s34.667 -3.33301 50 -10s28.666 -16 39.999 -28s20.333 -26.167 27 -42.5
s10 -34.166 10 -53.499c0 -18.667 -3.33301 -36.334 -10 -53.001s-15.667 -31 -27 -43s-24.666 -21.5 -39.999 -28.5s-32 -10.5 -50 -10.5s-34.667 3.5 -50 10.5s-28.666 16.5 -39.999 28.5s-20.166 26.333 -26.499 43s-9.5 34.334 -9.5 53.001z" />
    <glyph glyph-name="zdotaccent" unicode="&#x17c;" 
d="M1044 0h-862v125l660 836h-627v137h811v-146l-647 -815h665v-137zM504 1395c0 19.333 3.16699 37.166 9.5 53.499s15.166 30.5 26.499 42.5s24.666 21.333 39.999 28s32 10 50 10s34.667 -3.33301 50 -10s28.666 -16 39.999 -28s20.333 -26.167 27 -42.5
s10 -34.166 10 -53.499c0 -18.667 -3.33301 -36.334 -10 -53.001s-15.667 -31 -27 -43s-24.666 -21.5 -39.999 -28.5s-32 -10.5 -50 -10.5s-34.667 3.5 -50 10.5s-28.666 16.5 -39.999 28.5s-20.166 26.333 -26.499 43s-9.5 34.334 -9.5 53.001z" />
    <glyph glyph-name="Zcaron" unicode="&#x17d;" 
d="M1124 0h-1022v145l793 1151h-772v166h981v-145l-793 -1151h813v-166zM402 1907c54.667 -36 125.001 -98.332 211.001 -186.999c81.333 85.333 151.666 147.666 210.999 186.999h121v-27l-27.5 -31l-31.5 -36c-48 -52 -86.5 -97.667 -115.5 -137
s-49.167 -71.666 -60.5 -96.999h-193c-11.333 25.333 -31.5 57.166 -60.5 95.499s-67.5 84.5 -115.5 138.5l-59 67v27h120z" />
    <glyph glyph-name="zcaron" unicode="&#x17e;" 
d="M1044 0h-862v125l660 836h-627v137h811v-146l-647 -815h665v-137zM415 1569c54.667 -36 125.001 -98.332 211.001 -186.999c81.333 85.333 151.666 147.666 210.999 186.999h121v-27l-27.5 -31l-31.5 -36c-48 -52 -86.5 -97.667 -115.5 -137
s-49.167 -71.666 -60.5 -96.999h-193c-11.333 25.333 -31.5 57.166 -60.5 95.499s-67.5 84.5 -115.5 138.5l-59 67v27h120z" />
    <glyph glyph-name="longs" unicode="&#x17f;" 
d="M356 0l0.00292969 1200c0 63.333 7.16699 118 21.5 164s37.166 84 68.499 114s71.5 52.333 120.5 67s108.5 22 178.5 22c77.333 0 168.333 -11.667 273 -35l-41 -143c-66.667 18.667 -142.334 28 -227.001 28c-40 0 -73.333 -3.66699 -100 -11
s-48.334 -19.5 -65.001 -36.5s-28.5 -39.167 -35.5 -66.5s-10.5 -61 -10.5 -101v-1202h-183z" />
    <glyph glyph-name="florin" unicode="&#x192;" 
d="M215 -477v153c39.333 -12 77.666 -18 114.999 -18c30.667 0 56 4.16699 76 12.5s35.833 21.166 47.5 38.499s19.834 39.5 24.501 66.5s7 59.5 7 97.5v963h-194v75l194 68v137c0 63.333 6.16699 118 18.5 164s31.666 84 57.999 114s60.5 52.333 102.5 67s93 22 153 22
c67.333 0 133 -12.333 197 -37l-47 -141c-50 18.667 -98 28 -144 28c-30.667 0 -56 -4.16699 -76 -12.5s-35.833 -21.166 -47.5 -38.499s-19.834 -39.5 -24.501 -66.5s-7 -59.5 -7 -97.5v-145h245v-137h-245v-961c0 -63.333 -6.16699 -118 -18.5 -164
s-31.666 -84 -57.999 -114s-60.5 -52.333 -102.5 -67s-93 -22 -153 -22c-33.333 0 -73.666 5 -120.999 15z" />
    <glyph glyph-name="Ohorn" unicode="&#x1a0;" 
d="M84 735c0 113.333 10 216.171 30 308.504s51.5 171.166 94.5 236.499s98.333 115.833 166 151.5s148.834 53.5 243.501 53.5c84.667 0 157.667 -14.667 219 -44s114 -73.333 158 -132c12 12.667 21.833 27.667 29.5 45s13.667 36.5 18 57.5s7.5 43.667 9.5 68
s3.66699 49.833 5 76.5h198l15 -22c-7.33301 -34.667 -16.5 -68.5 -27.5 -101.5s-24.667 -64 -41 -93s-35.833 -55.833 -58.5 -80.5s-49.334 -46.334 -80.001 -65.001c56 -120.667 84 -274.334 84 -461.001c0 -112.667 -10.667 -215.334 -32 -308.001s-54 -172 -98 -238
s-99.333 -117 -166 -153s-145 -54 -235 -54c-94.667 0 -175.5 18 -242.5 54s-122 87 -165 153s-74.5 145.5 -94.5 238.5s-30 196.167 -30 309.5zM281 733.005c0 -91.333 6 -173.5 18 -246.5s31.167 -135 57.5 -186s60.833 -90 103.5 -117s94.667 -40.5 156 -40.5
c62 0 114.333 13.5 157 40.5s77 66 103 117s44.833 113 56.5 186s17.5 155.167 17.5 246.5c0 92 -5.83301 174.333 -17.5 247s-30.5 134.167 -56.5 184.5s-60.167 89 -102.5 116s-94.166 40.5 -155.499 40.5c-62 0 -114.333 -13.5 -157 -40.5s-77.334 -65.667 -104.001 -116
s-46 -111.833 -58 -184.5s-18 -155 -18 -247z" />
    <glyph glyph-name="ohorn" unicode="&#x1a1;" 
d="M616 1118c64.667 0 125.5 -10.833 182.5 -32.5s107.5 -54.5 151.5 -98.5c25.333 10.667 45.166 25.334 59.499 44.001s25 40 32 64s11.333 50.5 13 79.5s2.5 59.5 2.5 91.5h198l15 -23c-10 -46 -22 -88 -36 -126s-30.5 -72.167 -49.5 -102.5s-41 -56.666 -66 -78.999
s-53.833 -40.5 -86.5 -54.5c25.333 -44 45 -93.333 59 -148s21 -115.334 21 -182.001c0 -91.333 -12.333 -172.5 -37 -243.5s-59.167 -130.667 -103.5 -179s-97.166 -85.166 -158.499 -110.499s-129 -38 -203 -38c-68.667 0 -133 12.667 -193 38
s-112.333 62.166 -157 110.499s-80 108 -106 179s-39 152.167 -39 243.5c0 90.667 12.167 171.167 36.5 241.5s58.5 129.666 102.5 177.999s96.833 85 158.5 110s129.5 37.5 203.5 37.5zM614 131c206.667 0 310.001 139.999 310.001 419.999
c0 141.333 -25.833 246 -77.5 314s-129.834 102 -234.501 102c-104 0 -181.5 -34 -232.5 -102s-76.5 -172.667 -76.5 -314s26 -246.666 78 -315.999s129.667 -104 233 -104z" />
    <glyph glyph-name="Uhorn" unicode="&#x1af;" 
d="M125 479l0.000976562 983.001h186v-973c0 -58 4 -108.667 12 -152s21 -79.333 39 -108s41.833 -50.167 71.5 -64.5s66.167 -21.5 109.5 -21.5c44.667 0 81.334 8 110.001 24s51.167 39 67.5 69s27.666 66.5 33.999 109.5s9.5 91.833 9.5 146.5v970h186v-194
c31.333 5.33301 56.166 16.666 74.499 33.999s32.333 38.833 42 64.5s16 54.667 19 87s4.5 66.5 4.5 102.5h198l15 -22c-10 -46 -23.167 -90.167 -39.5 -132.5s-38 -81 -65 -116s-60.667 -65 -101 -90s-89.5 -43.167 -147.5 -54.5v-666c0 -76 -7.5 -144.5 -22.5 -205.5
s-39 -113 -72 -156s-76 -76 -129 -99s-117.833 -34.5 -194.5 -34.5c-72 0 -133.667 10.833 -185 32.5s-93.5 53.5 -126.5 95.5s-57.167 94.167 -72.5 156.5s-23 133.833 -23 214.5z" />
    <glyph glyph-name="uhorn" unicode="&#x1b0;" 
d="M342 1098l-0.00488281 -707.003c0 -88.667 13.833 -154.167 41.5 -196.5s71.834 -63.5 132.501 -63.5c44 0 81 8.66699 111 26s54.333 42.833 73 76.5s32 75.167 40 124.5s12 106 12 170v570h182v-123c34.667 4 62.334 14.333 83.001 31s36.334 38 47.001 64
s17.667 55.833 21 89.5s5 69.167 5 106.5h198l15 -23c-10 -46.667 -23.333 -92.667 -40 -138s-39.167 -86.166 -67.5 -122.499s-63.666 -66.666 -105.999 -90.999s-94.166 -38.833 -155.499 -43.5v-848h-148l-26 147h-8c-30 -57.333 -69.5 -99.5 -118.5 -126.5
s-101.167 -40.5 -156.5 -40.5c-52.667 0 -98.834 7.66699 -138.501 23s-72.667 39.333 -99 72s-46.166 74.334 -59.499 125.001s-20 111 -20 181v717h182z" />
    <glyph glyph-name="uni01F0" unicode="&#x1f0;" 
d="M135 -457l0.00292969 154.002c89.333 -26 185.666 -39 288.999 -39c78.667 0 139.667 18.667 183 56s65 90.333 65 159v1081l-420 21v123h602v-1215c0 -60 -9.66699 -113.333 -29 -160s-47.333 -85.834 -84 -117.501s-81.834 -55.834 -135.501 -72.501
s-114.834 -25 -183.501 -25c-106 0 -201.667 11.667 -287 35zM394.003 1569c54.667 -36 125.001 -98.332 211.001 -186.999c81.333 85.333 151.666 147.666 210.999 186.999h121v-27l-27.5 -31l-31.5 -36c-48 -52 -86.5 -97.667 -115.5 -137s-49.167 -71.666 -60.5 -96.999
h-193c-11.333 25.333 -31.5 57.166 -60.5 95.499s-67.5 84.5 -115.5 138.5l-59 67v27h120z" />
    <glyph glyph-name="Aringacute" unicode="&#x1fa;" 
d="M516 1468h195l485 -1468h-192l-144 453h-491l-146 -453h-190zM422 618h385l-133 424c-13.333 42 -25.166 81.667 -35.499 119s-19.166 73 -26.499 107c-6.66699 -34 -13.834 -66 -21.501 -96s-15.834 -59 -24.501 -87zM612 1796c32 0 61.999 -4.83496 89.999 -14.502
s52.333 -23.667 73 -42s37 -40.666 49 -66.999s18 -56.166 18 -89.499c0 -32.667 -5.5 -62.334 -16.5 -89.001s-26.667 -49.5 -47 -68.5s-44.666 -33.667 -72.999 -44s-59.5 -15.5 -93.5 -15.5s-64.667 5 -92 15s-50.833 24.333 -70.5 43s-34.667 41.334 -45 68.001
s-15.5 56.334 -15.5 89.001c0 33.333 5.16699 63.166 15.5 89.499s25.333 48.833 45 67.5s43.167 33 70.5 43s58 15 92 15zM499.999 1581c0 -75.333 37.333 -113 112 -113c34 0 61.333 9.83301 82 29.5s31 47.5 31 83.5s-10.333 63.833 -31 83.5s-48 29.5 -82 29.5
c-32.667 0 -59.5 -9.83301 -80.5 -29.5s-31.5 -47.5 -31.5 -83.5zM489.999 1835v27.002c63.333 92 121.333 192.333 174 301h219v-21c-38 -58.667 -79.333 -113.334 -124 -164.001s-94 -98.334 -148 -143.001h-121z" />
    <glyph glyph-name="aringacute" unicode="&#x1fb;" 
d="M135 307c0 220 170 336 510 348l203 7v69c0 157.333 -81.333 236 -244 236c-100.667 0 -210 -27.333 -328 -82l-63 137c131.333 64 259 96 383 96c76 0 141 -7 195 -21s98.5 -36 133.5 -66s60.667 -68 77 -114s24.5 -101 24.5 -165v-752h-131l-37 152h-8
c-26 -32.667 -52 -60 -78 -82s-53.5 -39.667 -82.5 -53s-60.333 -22.833 -94 -28.5s-71.167 -8.5 -112.5 -8.5c-54 0 -102.5 7.33301 -145.5 22s-79.5 36 -109.5 64s-53 62.167 -69 102.5s-24 86.5 -24 138.5zM324 305c0 -118.667 66.668 -178 200.001 -178
c49.333 0 93.833 7 133.5 21s73.5 34.167 101.5 60.5s49.5 58.833 64.5 97.5s22.5 82.667 22.5 132v99l-162 -7c-65.333 -2.66699 -120.833 -9 -166.5 -19s-82.834 -24.167 -111.501 -42.5s-49.5 -41 -62.5 -68s-19.5 -58.833 -19.5 -95.5zM610.001 1671
c32 0 61.999 -4.83496 89.999 -14.502s52.333 -23.667 73 -42s37 -40.666 49 -66.999s18 -56.166 18 -89.499c0 -32.667 -5.5 -62.334 -16.5 -89.001s-26.667 -49.5 -47 -68.5s-44.666 -33.667 -72.999 -44s-59.5 -15.5 -93.5 -15.5s-64.667 5 -92 15
s-50.833 24.333 -70.5 43s-34.667 41.334 -45 68.001s-15.5 56.334 -15.5 89.001c0 33.333 5.16699 63.166 15.5 89.499s25.333 48.833 45 67.5s43.167 33 70.5 43s58 15 92 15zM498 1456c0 -75.333 37.333 -113 112 -113c34 0 61.333 9.83301 82 29.5s31 47.5 31 83.5
s-10.333 63.833 -31 83.5s-48 29.5 -82 29.5c-32.667 0 -59.5 -9.83301 -80.5 -29.5s-31.5 -47.5 -31.5 -83.5zM512 1720v27.002c63.333 92 121.333 192.333 174 301h219v-21c-38 -58.667 -79.333 -113.334 -124 -164.001s-94 -98.334 -148 -143.001h-121z" />
    <glyph glyph-name="AEacute" unicode="&#x1fc;" 
d="M0 0l338 1462h872v-164h-477v-452h438v-162h-438v-520h477v-164h-653v453h-289l-96 -453h-172zM557 618v680h-106l-146 -680h252zM631 1579v27.002c63.333 92 121.333 192.333 174 301h219v-21c-38 -58.667 -79.333 -113.334 -124 -164.001s-94 -98.334 -148 -143.001
h-121z" />
    <glyph glyph-name="aeacute" unicode="&#x1fd;" 
d="M45 307c0 222 109.331 337.999 327.998 347.999l149 7v69c0 157.333 -46.333 236 -139 236c-72 0 -142.333 -27.333 -211 -82l-57 137c87.333 64 179.333 96 276 96c125.333 0 207.333 -59.333 246 -178c52 118.667 132 178 240 178c92 0 166.333 -45 223 -135
c57.333 -91.333 86 -210 86 -356v-113h-496c2 -128 24.333 -222.5 67 -283.5s99 -91.5 169 -91.5c74.667 0 152.334 25.333 233.001 76v-162c-70.667 -48.667 -151 -73 -241 -73c-148 0 -253.333 76.333 -316 229c-70 -152.667 -170.333 -229 -301 -229
c-38 0 -72.833 7.5 -104.5 22.5s-58.667 36.5 -81 64.5s-39.666 62.333 -51.999 103s-18.5 86.334 -18.5 137.001zM214.998 304.999c0 -56.667 10.666 -100.502 31.999 -131.502s50.333 -46.5 87 -46.5c27.333 0 52.333 7 75 21s42.334 34.333 59.001 61
s29.5 59.334 38.5 98.001s13.5 82.334 13.5 131.001v99l-88 -7c-144.667 -12 -217 -87 -217 -225zM1010 661.997c0 47.333 -3.5 89.667 -10.5 127s-17 69.333 -30 96s-28.833 47 -47.5 61s-40 21 -64 21c-46 0 -83.833 -25.5 -113.5 -76.5s-46.5 -127.167 -50.5 -228.5h316z
M530.997 1241v27.002c63.333 92 121.333 192.333 174 301h219v-21c-38 -58.667 -79.333 -113.334 -124 -164.001s-94 -98.334 -148 -143.001h-121z" />
    <glyph glyph-name="Oslashacute" unicode="&#x1fe;" 
d="M80 2l120.999 197.001c-78 123.333 -117 302 -117 536c0 500 178 750 534 750c124 0 227.333 -35 310 -105l92 152l137 -78l-125 -201c76.667 -124.667 115 -298 115 -520c0 -58.667 -3.33301 -118 -10 -178s-18 -117.833 -34 -173.5s-37.167 -107.834 -63.5 -156.501
s-59.166 -91.167 -98.499 -127.5s-85.833 -65 -139.5 -86s-115.5 -31.5 -185.5 -31.5c-126 0 -228.333 31.333 -307 94l-92 -150zM318.999 391.001l515 836c-52.667 62.667 -124.667 94 -216 94c-224.667 0 -337 -196 -337 -588c0 -138 12.667 -252 38 -342z
M402.999 229.001c53.333 -57.333 124.333 -86 213 -86c115.333 0 199.833 48.333 253.5 145s80.5 245 80.5 445c0 136.667 -11.667 246 -35 328zM474.999 1579v27.002c63.333 92 121.333 192.333 174 301h219v-21c-38 -58.667 -79.333 -113.334 -124 -164.001
s-94 -98.334 -148 -143.001h-121z" />
    <glyph glyph-name="oslashacute" unicode="&#x1ff;" 
d="M115 551c0 80 10 154.664 30 223.997s50.5 129.333 91.5 180s93 90.5 156 119.5s137.5 43.5 223.5 43.5c85.333 0 164 -19 236 -57l76 119l131 -84l-84 -131c91.333 -105.333 137 -243.333 137 -414c0 -80.667 -10 -155.667 -30 -225s-50.5 -129.666 -91.5 -180.999
s-93 -91.666 -156 -120.999s-137.833 -44 -224.5 -44c-86 0 -163.667 17.667 -233 53l-76 -119l-131 84l84 131c-92.667 104.667 -139 245.334 -139 422.001zM303 550.997c0 -120 17.666 -211.667 52.999 -275l406 656c-45.333 23.333 -97.333 35 -156 35
c-107.333 0 -184.666 -34.5 -231.999 -103.5s-71 -173.167 -71 -312.5zM466.999 163.997c41.333 -22 92.668 -33 154.001 -33c107.333 0 184.666 35.167 231.999 105.5s71 175.166 71 314.499c0 110.667 -17.333 199.334 -52 266.001zM498.001 1241v27.002
c63.333 92 121.333 192.333 174 301h219v-21c-38 -58.667 -79.333 -113.334 -124 -164.001s-94 -98.334 -148 -143.001h-121z" />
    <glyph glyph-name="uni0218" unicode="&#x218;" 
d="M141 227c144 -57.333 281.999 -85.9961 413.999 -85.9961c233.333 0 350 80 350 240c0 70 -23.333 123.333 -70 160c-24 18.667 -59.5 39.167 -106.5 61.5s-106.833 46.166 -179.5 71.499c-54.667 19.333 -105.667 41.166 -153 65.499s-88.5 53.5 -123.5 87.5
s-62.5 74.167 -82.5 120.5s-30 101.166 -30 164.499c0 68.667 13.833 126.667 41.5 174s64.167 85.5 109.5 114.5s96.666 50 153.999 63s116 19.5 176 19.5c152.667 0 291.334 -26 416.001 -78l-64 -164c-128.667 52 -248.667 78 -360 78c-195.333 0 -293 -69.667 -293 -209
c0 -68 22 -122.667 66 -164c22 -20.667 55.333 -42.167 100 -64.5s101.334 -45.166 170.001 -68.499c84 -30 152.833 -59.667 206.5 -89s94.5 -60 122.5 -92c54.667 -62.667 82 -143 82 -241c0 -64 -11.833 -121.333 -35.5 -172s-58 -93.834 -103 -129.501
s-100.5 -62.834 -166.5 -81.501s-141.667 -28 -227 -28c-176.667 0 -314.667 23 -414 69v178zM482.999 -452.996v27c40.667 92.667 68.667 193 84 301h178v-20c0 -14.667 -16 -56 -48 -124s-70.333 -129.333 -115 -184h-99z" />
    <glyph glyph-name="uni0219" unicode="&#x219;" 
d="M203 215c132 -57.333 255.333 -86 370 -86c183.333 0 275 54 275 162c0 38 -16.333 71 -49 99c-16.667 14 -43.5 29.5 -80.5 46.5s-85.5 36.833 -145.5 59.5c-78 30 -141.167 58 -189.5 84s-82.833 51.333 -103.5 76c-40.667 48.667 -61 105.667 -61 171
c0 45.333 9.5 86 28.5 122s46.5 66.5 82.5 91.5s80 44.167 132 57.5s111 20 177 20c129.333 0 252.333 -24.667 369 -74l-60 -149c-120.667 48 -227 72 -319 72c-157.333 0 -236 -44.333 -236 -133c0 -40.667 17 -73 51 -97c16.667 -11.333 44 -25.666 82 -42.999
s88 -37 150 -59c142 -51.333 235.667 -101.666 281 -150.999c46 -50 69 -111 69 -183c0 -50 -10 -94.833 -30 -134.5s-49 -73.334 -87 -101.001s-84.833 -48.834 -140.5 -63.501s-119.167 -22 -190.5 -22c-164.667 0 -289.667 23 -375 69v166zM455 -453v27
c40.667 92.667 68.667 193 84 301h178v-20c0 -14.667 -16 -56 -48 -124s-70.333 -129.333 -115 -184h-99z" />
    <glyph glyph-name="uni021A" unicode="&#x21a;" 
d="M102 1462h1022v-164h-417v-1298h-187v1298h-418v164zM449 -453v27c40.667 92.667 68.667 193 84 301h178v-20c0 -14.667 -16 -56 -48 -124s-70.333 -129.333 -115 -184h-99z" />
    <glyph glyph-name="uni021B" unicode="&#x21b;" 
d="M139 961v137h267v364h182v-364h438v-137h-438v-637c0 -130 64 -195 192 -195c62 0 142 7 240 21v-138c-92.667 -21.333 -176.667 -32 -252 -32c-241.333 0 -362 114.667 -362 344v637h-267zM489 -453v27c40.667 92.667 68.667 193 84 301h178v-20
c0 -14.667 -16 -56 -48 -124s-70.333 -129.333 -115 -184h-99z" />
    <glyph glyph-name="uni02BC" unicode="&#x2bc;" 
d="M446 961c21.333 90.667 40.5 177.167 57.5 259.5s31.5 162.833 43.5 241.5h219l14 -22c-18.667 -72.667 -42.5 -148 -71.5 -226s-63.833 -162.333 -104.5 -253h-158z" />
    <glyph glyph-name="circumflex" unicode="&#x2c6;" 
d="M283 1241l-0.000976562 27l27.5 31l31.5 36c48 52 86.167 97.333 114.5 136s48.833 71.334 61.5 98.001h193c12.667 -26.667 33.667 -59.334 63 -98.001s67 -84 113 -136l59 -67v-27h-121c-28 18.667 -59.5 43.334 -94.5 74.001s-73.833 68 -116.5 112
c-44.667 -46 -84.667 -84.333 -120 -115s-65.666 -54.334 -90.999 -71.001h-120z" />
    <glyph glyph-name="caron" unicode="&#x2c7;" 
d="M403 1569c54.667 -36 125.001 -98.332 211.001 -186.999c81.333 85.333 151.666 147.666 210.999 186.999h121v-27l-27.5 -31l-31.5 -36c-48 -52 -86.5 -97.667 -115.5 -137s-49.167 -71.666 -60.5 -96.999h-193c-11.333 25.333 -31.5 57.166 -60.5 95.499
s-67.5 84.5 -115.5 138.5l-59 67v27h120z" />
    <glyph glyph-name="uni02C9" unicode="&#x2c9;" 
d="M326 1391h575v-150h-575v150z" />
    <glyph glyph-name="breve" unicode="&#x2d8;" 
d="M422 1518c3.33301 -30 10.167 -53.333 20.5 -70s23.666 -29 39.999 -37s35.5 -13 57.5 -15s46 -3 72 -3c120 0 183.667 41.667 191 125h112c-2.66699 -42 -11.667 -80.167 -27 -114.5s-36 -63.5 -62 -87.5s-57.167 -42.5 -93.5 -55.5s-77.166 -19.5 -122.499 -19.5
c-187.333 0 -286.333 92.333 -297 277h109z" />
    <glyph glyph-name="dotaccent" unicode="&#x2d9;" 
d="M488 1395c0 19.333 3.16699 37.166 9.5 53.499s15.166 30.5 26.499 42.5s24.666 21.333 39.999 28s32 10 50 10s34.667 -3.33301 50 -10s28.666 -16 39.999 -28s20.333 -26.167 27 -42.5s10 -34.166 10 -53.499c0 -18.667 -3.33301 -36.334 -10 -53.001
s-15.667 -31 -27 -43s-24.666 -21.5 -39.999 -28.5s-32 -10.5 -50 -10.5s-34.667 3.5 -50 10.5s-28.666 16.5 -39.999 28.5s-20.166 26.333 -26.499 43s-9.5 34.334 -9.5 53.001z" />
    <glyph glyph-name="ring" unicode="&#x2da;" 
d="M610 1671c32 0 61.999 -4.83496 89.999 -14.502s52.333 -23.667 73 -42s37 -40.666 49 -66.999s18 -56.166 18 -89.499c0 -32.667 -5.5 -62.334 -16.5 -89.001s-26.667 -49.5 -47 -68.5s-44.666 -33.667 -72.999 -44s-59.5 -15.5 -93.5 -15.5s-64.667 5 -92 15
s-50.833 24.333 -70.5 43s-34.667 41.334 -45 68.001s-15.5 56.334 -15.5 89.001c0 33.333 5.16699 63.166 15.5 89.499s25.333 48.833 45 67.5s43.167 33 70.5 43s58 15 92 15zM497.999 1456c0 -75.333 37.333 -113 112 -113c34 0 61.333 9.83301 82 29.5s31 47.5 31 83.5
s-10.333 63.833 -31 83.5s-48 29.5 -82 29.5c-32.667 0 -59.5 -9.83301 -80.5 -29.5s-31.5 -47.5 -31.5 -83.5z" />
    <glyph glyph-name="ogonek" unicode="&#x2db;" 
d="M414 -252c0 96 63.333 179.999 190 251.999h131c-113.333 -83.333 -170 -162.666 -170 -237.999c0 -64 42.333 -96 127 -96c44 0 85 5 123 15v-113c-52 -15.333 -104 -23 -156 -23c-80.667 0 -141.667 18.167 -183 54.5s-62 85.833 -62 148.5z" />
    <glyph glyph-name="tilde" unicode="&#x2dc;" 
d="M254 1241c17.333 176 87.6689 263.999 211.002 263.999c38 0 91.667 -18.667 161 -56s114.666 -56 135.999 -56c54 0 89.333 38 106 114h105c-18 -176 -88.333 -264 -211 -264c-19.333 0 -41.833 4.83301 -67.5 14.5s-55.5 23.834 -89.5 42.501
c-67.333 37.333 -114 56 -140 56c-54.667 0 -90.334 -38.333 -107.001 -115h-104z" />
    <glyph glyph-name="hungarumlaut" unicode="&#x2dd;" 
d="M246 1268c63.333 92 121.333 192.335 174 301.002h198v-21c-38 -58.667 -79.333 -113.334 -124 -164.001s-94 -98.334 -148 -143.001h-100v27zM608 1268c30 40 59.332 85.002 87.999 135.002s57.334 105.333 86.001 166h199v-21
c-38 -58.667 -79.333 -113.334 -124 -164.001s-94 -98.334 -148 -143.001h-101v27z" />
    <glyph glyph-name="uni02F3" unicode="&#x2f3;" 
d="M387 -340c0 34 5.33398 64.1641 16.001 90.4971s25.834 48.833 45.501 67.5s43.167 32.834 70.5 42.501s57.666 14.5 90.999 14.5c32 0 62 -4.83301 90 -14.5s52.333 -23.667 73 -42s37 -40.666 49 -66.999s18 -56.166 18 -89.499c0 -34 -5.83301 -64.5 -17.5 -91.5
s-27.834 -49.833 -48.501 -68.5s-45 -32.834 -73 -42.501s-58.333 -14.5 -91 -14.5c-33.333 0 -63.666 4.83301 -90.999 14.5s-50.833 23.834 -70.5 42.501s-34.834 41.167 -45.501 67.5s-16 56.5 -16 90.5zM610.001 -453.003c34 0 61.333 9.83301 82 29.5s31 47.5 31 83.5
s-10.333 63.833 -31 83.5s-48 29.5 -82 29.5c-32.667 0 -59.5 -9.83301 -80.5 -29.5s-31.5 -47.5 -31.5 -83.5s9.5 -63.833 28.5 -83.5s46.833 -29.5 83.5 -29.5z" />
    <glyph glyph-name="gravecomb" unicode="&#x300;" 
d="M637 1569c56.667 -116 114.667 -216.333 174 -301v-27h-121c-56 48 -106.333 97 -151 147s-85 103.333 -121 160v21h219z" />
    <glyph glyph-name="acutecomb" unicode="&#x301;" 
d="M418 1241v27.002c63.333 92 121.333 192.333 174 301h219v-21c-38 -58.667 -79.333 -113.334 -124 -164.001s-94 -98.334 -148 -143.001h-121z" />
    <glyph glyph-name="tildecomb" unicode="&#x303;" 
d="M254 1241c17.333 176 87.6689 263.999 211.002 263.999c38 0 91.667 -18.667 161 -56s114.666 -56 135.999 -56c54 0 89.333 38 106 114h105c-18 -176 -88.333 -264 -211 -264c-19.333 0 -41.833 4.83301 -67.5 14.5s-55.5 23.834 -89.5 42.501
c-67.333 37.333 -114 56 -140 56c-54.667 0 -90.334 -38.333 -107.001 -115h-104z" />
    <glyph glyph-name="hookabovecomb" unicode="&#x309;" 
d="M428 1671c10.667 2 24.167 3.83496 40.5 5.50195s38.5 2.5 66.5 2.5c90.667 0 157.667 -15.167 201 -45.5s65 -77.833 65 -142.5c0 -26 -4.5 -48.667 -13.5 -68s-21 -35.833 -36 -49.5s-32.5 -24.834 -52.5 -33.501s-41.333 -15.667 -64 -21l-10 -111h-113l-14 176
c50 8 89.333 19.333 118 34s43 37.667 43 69c0 16 -3.33301 29.333 -10 40s-16 19.167 -28 25.5s-26.333 10.666 -43 12.999s-34.667 3.5 -54 3.5c-18.667 0 -36.667 -0.5 -54 -1.5s-31.333 -2.5 -42 -4.5v108z" />
    <glyph glyph-name="uni030F" unicode="&#x30f;" 
d="M766 1569c10.667 -22.667 23.167 -47.502 37.5 -74.502l44.5 -81c15.333 -27 31 -53.167 47 -78.5s31 -47.666 45 -66.999v-27h-100c-22.667 18.667 -47.667 41.834 -75 69.501s-54 56.167 -80 85.5s-49.5 57.5 -70.5 84.5s-36.833 49.5 -47.5 67.5v21h199zM403 1569
c10.667 -22.667 23 -47.502 37 -74.502s28.833 -54 44.5 -81l47.5 -78.5c16 -25.333 31.333 -47.666 46 -66.999v-27h-101c-22.667 18.667 -47.667 41.834 -75 69.501s-53.833 56.167 -79.5 85.5s-49 57.5 -70 84.5s-36.833 49.5 -47.5 67.5v21h198z" />
    <glyph glyph-name="dotbelowcomb" unicode="&#x323;" 
d="M508 -246c0 40 10.167 69.168 30.5 87.501s45.5 27.5 75.5 27.5s55.333 -9.16699 76 -27.5s31 -47.5 31 -87.5c0 -38.667 -10.333 -67.334 -31 -86.001s-46 -28 -76 -28s-55.167 9 -75.5 27s-30.5 47 -30.5 87z" />
    <glyph glyph-name="tonos" unicode="&#x384;" 
d="M479 1268l30 107c10 38 18.333 73.167 25 105.5s11.667 61.833 15 88.5h199v-21c0 -14 -16.333 -54 -49 -120c-32.667 -66.667 -69.667 -129 -111 -187h-109v27z" />
    <glyph glyph-name="dieresistonos" unicode="&#x385;" 
d="M532 1389l0.000976562 26c16.667 46.667 32.667 95 48 145s29.666 102 42.999 156h206v-20c-63.333 -110 -135 -212.333 -215 -307h-82zM735.001 1395c0 68 32 102 96 102c64.667 0 97 -34 97 -102c0 -68.667 -32.333 -103 -97 -103c-64 0 -96 34.333 -96 103z
M299.001 1395c0 68 32 102 96 102c64.667 0 97 -34 97 -102c0 -32.667 -9.16699 -58 -27.5 -76s-41.5 -27 -69.5 -27c-64 0 -96 34.333 -96 103z" />
    <glyph glyph-name="Alphatonos" unicode="&#x386;" 
d="M516 1468h195l485 -1468h-192l-144 453h-491l-146 -453h-190zM422 618h385l-133 424c-13.333 42 -25.166 81.667 -35.499 119s-19.166 73 -26.499 107c-6.66699 -34 -13.834 -66 -21.501 -96s-15.834 -59 -24.501 -87zM36 1163l30 107c10 38 18.333 73.167 25 105.5
s11.667 61.833 15 88.5h199v-21c0 -14 -16.333 -54 -49 -120c-32.667 -66.667 -69.667 -129 -111 -187h-109v27z" />
    <glyph glyph-name="anoteleia" unicode="&#x387;" 
d="M487 723c0 92.667 42.333 139 127 139s127 -46.333 127 -139s-42.333 -139 -127 -139s-127 46.333 -127 139z" />
    <glyph glyph-name="Epsilontonos" unicode="&#x388;" 
d="M1059 1462v-164h-656v-452h617v-162h-617v-520h656v-164h-842v1462h842zM-114 1163l30 107c10 38 18.333 73.167 25 105.5s11.667 61.833 15 88.5h199v-21c0 -14 -16.333 -54 -49 -120c-32.667 -66.667 -69.667 -129 -111 -187h-109v27z" />
    <glyph glyph-name="Etatonos" unicode="&#x389;" 
d="M135 1462h187v-616h585v616h187v-1462h-187v682h-585v-682h-187v1462zM-155 1163l30 107c10 38 18.333 73.167 25 105.5s11.667 61.833 15 88.5h199v-21c0 -14 -16.333 -54 -49 -120c-32.667 -66.667 -69.667 -129 -111 -187h-109v27z" />
    <glyph glyph-name="Iotatonos" unicode="&#x38a;" 
d="M225 1462h776v-143h-294v-1176h294v-143h-776v143h295v1176h-295v143zM-93 1163l30 107c10 38 18.333 73.167 25 105.5s11.667 61.833 15 88.5h199v-21c0 -14 -16.333 -54 -49 -120c-32.667 -66.667 -69.667 -129 -111 -187h-109v27z" />
    <glyph glyph-name="Omicrontonos" unicode="&#x38c;" 
d="M84 735c0 500 177.999 750.001 533.999 750.001c85.333 0 160.833 -16.667 226.5 -50s121 -82 166 -146s79 -142.667 102 -236s34.5 -200 34.5 -320c0 -58.667 -3.33301 -118 -10 -178s-18 -117.833 -34 -173.5s-37.167 -107.834 -63.5 -156.501
s-59.166 -91.167 -98.499 -127.5s-85.833 -65 -139.5 -86s-115.5 -31.5 -185.5 -31.5c-354.667 0 -532 251.667 -532 755zM615.999 143.001c115.333 0 199.833 48.333 253.5 145s80.5 245 80.5 445c0 202 -27.167 350.5 -81.5 445.5s-137.833 142.5 -250.5 142.5
c-224.667 0 -337 -196 -337 -588c0 -393.333 111.667 -590 335 -590zM-132.001 1163l30 107c10 38 18.333 73.167 25 105.5s11.667 61.833 15 88.5h199v-21c0 -14 -16.333 -54 -49 -120c-32.667 -66.667 -69.667 -129 -111 -187h-109v27z" />
    <glyph glyph-name="Upsilontonos" unicode="&#x38e;" 
d="M33 1462h203l376 -739l381 739h201l-487 -893v-569h-187v559zM-237 1163l30 107c10 38 18.333 73.167 25 105.5s11.667 61.833 15 88.5h199v-21c0 -14 -16.333 -54 -49 -120c-32.667 -66.667 -69.667 -129 -111 -187h-109v27z" />
    <glyph glyph-name="Omegatonos" unicode="&#x38f;" 
d="M74 164h266c-169.333 157.333 -254 377.666 -254 660.999c0 57.333 4.16699 113.5 12.5 168.5s21.333 106.833 39 155.5s40.334 93.667 68.001 135s61.167 76.833 100.5 106.5s84.666 52.834 135.999 69.501s109.333 25 174 25c166.667 0 297 -58 391 -174
c93.333 -115.333 140 -277.333 140 -486c0 -286 -85.333 -506.333 -256 -661h268v-164h-469v147c173.333 154 260 378.667 260 674c0 333.333 -112 500 -336 500c-223.333 0 -335 -166.667 -335 -500c0 -295.333 87.333 -520 262 -674v-147h-467v164zM-134 1163l30 107
c10 38 18.333 73.167 25 105.5s11.667 61.833 15 88.5h199v-21c0 -14 -16.333 -54 -49 -120c-32.667 -66.667 -69.667 -129 -111 -187h-109v27z" />
    <glyph glyph-name="iotadieresistonos" unicode="&#x390;" 
d="M428 324v774h182v-774c0 -130 64.333 -195 193 -195c75.333 0 146.333 7 213 21v-138c-65.333 -21.333 -140.333 -32 -225 -32c-242 0 -363 114.667 -363 344zM474 1389l0.000976562 26c16.667 46.667 32.667 95 48 145s29.666 102 42.999 156h206v-20
c-63.333 -110 -135 -212.333 -215 -307h-82zM677.001 1395c0 68 32 102 96 102c64.667 0 97 -34 97 -102c0 -68.667 -32.333 -103 -97 -103c-64 0 -96 34.333 -96 103zM241.001 1395c0 68 32 102 96 102c64.667 0 97 -34 97 -102c0 -32.667 -9.16699 -58 -27.5 -76
s-41.5 -27 -69.5 -27c-64 0 -96 34.333 -96 103z" />
    <glyph glyph-name="Alpha" unicode="&#x391;" 
d="M516 1468h195l485 -1468h-192l-144 453h-491l-146 -453h-190zM422 618h385l-133 424c-13.333 42 -25.166 81.667 -35.499 119s-19.166 73 -26.499 107c-6.66699 -34 -13.834 -66 -21.501 -96s-15.834 -59 -24.501 -87z" />
    <glyph glyph-name="Beta" unicode="&#x392;" 
d="M135 0v1462h440c91.333 0 169.833 -7 235.5 -21s119.667 -36 162 -66s73.5 -68.333 93.5 -115s30 -102.667 30 -168c0 -42.667 -6.83301 -82 -20.5 -118s-33 -67.667 -58 -95s-55.5 -49.833 -91.5 -67.5s-76.333 -29.5 -121 -35.5v-10c221.333 -36 332 -150 332 -342
c0 -71.333 -12 -133.666 -36 -186.999s-57.333 -97.5 -100 -132.5s-93 -61.167 -151 -78.5s-120.667 -26 -188 -26h-527zM629 157.999c207.333 0 311 91.333 311 274c0 169.333 -108 254 -324 254h-294v-528h307zM606 841.999c104 0 179.833 18.5 227.5 55.5
s71.5 97.5 71.5 181.5c0 80 -25.5 137.333 -76.5 172s-131.833 52 -242.5 52h-264v-461h284z" />
    <glyph glyph-name="Gamma" unicode="&#x393;" 
d="M1071 1462v-166h-639v-1296h-186v1462h825z" />
    <glyph glyph-name="uni0394" unicode="&#x394;" 
d="M68 133l450 1329h187l454 -1337v-125h-1091v133zM954 166l-252.003 751.999c-17.333 52 -33.666 105.833 -48.999 161.5s-29.666 114.834 -42.999 177.501c-17.333 -74.667 -33.166 -139.667 -47.499 -195s-27.833 -101.333 -40.5 -138l-254 -758h686z" />
    <glyph glyph-name="Epsilon" unicode="&#x395;" 
d="M1059 1462v-164h-656v-452h617v-162h-617v-520h656v-164h-842v1462h842z" />
    <glyph glyph-name="Zeta" unicode="&#x396;" 
d="M1124 0h-1022v145l793 1151h-772v166h981v-145l-793 -1151h813v-166z" />
    <glyph glyph-name="Eta" unicode="&#x397;" 
d="M135 1462h187v-616h585v616h187v-1462h-187v682h-585v-682h-187v1462z" />
    <glyph glyph-name="Theta" unicode="&#x398;" 
d="M618 1485c85.333 0 160.832 -16.666 226.499 -49.999s121 -82 166 -146s79 -142.667 102 -236s34.5 -200 34.5 -320c0 -58.667 -3.33301 -118 -10 -178s-18 -117.833 -34 -173.5s-37.167 -107.834 -63.5 -156.501s-59.166 -91.167 -98.499 -127.5s-85.833 -65 -139.5 -86
s-115.5 -31.5 -185.5 -31.5c-354.667 0 -532 251.667 -532 755c0 500 178 750 534 750zM615.999 143.001c115.333 0 199.833 48.333 253.5 145s80.5 245 80.5 445c0 202 -27.167 350.5 -81.5 445.5s-137.833 142.5 -250.5 142.5c-224.667 0 -337 -196 -337 -588
c0 -393.333 111.667 -590 335 -590zM409.999 825.001h411v-161h-411v161z" />
    <glyph glyph-name="Iota" unicode="&#x399;" 
d="M225 1462h776v-143h-294v-1176h294v-143h-776v143h295v1176h-295v143z" />
    <glyph glyph-name="Kappa" unicode="&#x39a;" 
d="M397 1462v-731l121 168l453 563h209l-521 -637l539 -825h-211l-450 698l-140 -114v-584h-186v1462h186z" />
    <glyph glyph-name="Lambda" unicode="&#x39b;" 
d="M33 0l486.999 1462h187l489 -1462h-199l-292 922c-21.333 68 -39.666 130.167 -54.999 186.5s-28 107.5 -38 153.5c-15.333 -66.667 -30.333 -127.834 -45 -183.501s-29 -105.834 -43 -150.501l-295 -928h-196z" />
    <glyph glyph-name="Mu" unicode="&#x39c;" 
d="M360 1462l248 -1192h6l250 1192h252v-1462h-153v887c0 34 1.16699 83 3.5 147s5.83301 145.333 10.5 244h-8l-283 -1278h-154l-278 1280h-8c12 -176.667 18 -312 18 -406v-874h-151v1462h247z" />
    <glyph glyph-name="Nu" unicode="&#x39d;" 
d="M135 1462h213l578 -1204h6c-4.66699 102.667 -8.16699 187.167 -10.5 253.5s-3.5 116.5 -3.5 150.5v800h174v-1462h-215l-580 1210h-8c12 -184.667 18 -323.667 18 -417v-793h-172v1462z" />
    <glyph glyph-name="Xi" unicode="&#x39e;" 
d="M152 1462h923v-164h-923v164zM233 846h760v-162h-760v162zM1116 164v-164h-1005v164h1005z" />
    </font>
</defs>
</svg>
